<svg width="24" height="18" viewBox="0 0 24 18" fill="none" xmlns="http://www.w3.org/2000/svg">
<path d="M5.36549 10.3507V10.3957H8.10749V5.84766H8.01449C7.07619 7.31492 6.19259 8.81795 5.36549 10.3507Z" fill="white"/>
<path d="M3 0C2.20435 0 1.44129 0.31607 0.87868 0.87868C0.316071 1.44129 0 2.20435 0 3V15C0 15.7956 0.316071 16.5587 0.87868 17.1213C1.44129 17.6839 2.20435 18 3 18H21C21.7956 18 22.5587 17.6839 23.1213 17.1213C23.6839 16.5587 24 15.7956 24 15V3C24 2.20435 23.6839 1.44129 23.1213 0.87868C22.5587 0.31607 21.7956 0 21 0H3ZM6.558 5.5725L7.2105 4.5015H9.7755V10.3965H10.875V11.832H9.7755V13.5H8.1075V11.832H3.75V10.3755C4.611 8.76 5.5875 7.1625 6.558 5.5725ZM18.153 4.5015H20.112L16.902 8.3775L20.25 13.5H18.108L15.5895 9.564L14.667 10.614V13.5H12.885V4.5015H14.6655V8.5305H14.751L18.153 4.5015Z" fill="white"/>
</svg>
