<svg width="24" height="16" viewBox="0 0 24 16" fill="none" xmlns="http://www.w3.org/2000/svg">
<path fill-rule="evenodd" clip-rule="evenodd" d="M2 0.799805H22C23.1046 0.799805 24 1.69524 24 2.7998V13.1998C24 14.3044 23.1046 15.1998 22 15.1998H2C0.89543 15.1998 0 14.3044 0 13.1998V2.79981C0 1.69524 0.895431 0.799805 2 0.799805ZM3.72773 9.21181V10.2918H8.33574V12.1998H9.84773V10.2918H11.3357V8.9718H9.84773V7.2798H8.38373V8.9718H5.63667L9.53573 3.7998H7.86773L3.72773 9.21181ZM20.0563 3.7998H18.3043L14.1523 8.11019V3.7998H12.5923V12.1998H14.1523V10.0479L15.4902 8.67884L18.4483 12.1998H20.2723L16.5233 7.55287L20.0563 3.7998Z" fill="white"/>
</svg>
