<svg width="24" height="14" viewBox="0 0 24 14" fill="none" xmlns="http://www.w3.org/2000/svg">
<path fill-rule="evenodd" clip-rule="evenodd" d="M0 4C0 1.79086 1.79086 0 4 0H20C22.2091 0 24 1.79086 24 4V10C24 12.2091 22.2091 14 20 14H4C1.79086 14 0 12.2091 0 10V4ZM5.72934 9.18V8.08L8.99934 3.4H10.6293V7.96H11.5093V9.18H10.6293V10.6H9.22934V9.18H5.72934ZM7.26934 7.96L9.31934 4.9V7.96H7.26934ZM13.9607 7.49L16.5007 10.6H18.2707L15.3107 7.08L18.1907 3.62H16.5007L13.9607 6.75V3.62H12.5607V10.6H13.9607V7.49Z" fill="white"/>
</svg>
