<svg width="24" height="24" viewBox="0 0 24 24" fill="none" xmlns="http://www.w3.org/2000/svg">
<path fill-rule="evenodd" clip-rule="evenodd" d="M15.5333 15.5101V5.72477C15.5333 5.16398 15.224 4.85449 14.6632 4.85449H12.7486C12.1878 4.85449 11.8783 5.16398 11.8783 5.72477C11.8783 5.72477 11.8783 7.86077 11.8783 10.3718C11.8783 10.5027 13.1393 11.1104 13.1722 11.2389C14.1329 14.9927 13.381 17.997 12.4702 18.1372C13.9594 18.2109 14.1232 18.9269 13.014 18.4377C13.1837 16.4348 13.8458 16.4387 15.7492 18.364C15.7655 18.3806 16.1394 19.1651 16.1627 19.1651C18.3028 19.1651 20.6581 19.1651 20.6581 19.1651C21.2189 19.1651 21.5283 18.8557 21.5283 18.2949V16.3804C21.5283 15.8196 21.2189 15.5101 20.6581 15.5101H15.5333Z" fill="#02A9FF"/>
<path fill-rule="evenodd" clip-rule="evenodd" d="M7.58582 4.85449L2.55782 19.1651H6.46423L7.31512 16.6897H11.5695L12.4012 19.1651H16.2882L11.2794 4.85449H7.58582ZM8.20465 13.5182L9.42293 9.55375L10.7573 13.5182H8.20465Z" fill="#FEFEFE"/>
</svg>
