<svg width="24" height="19" viewBox="0 0 24 19" fill="none" xmlns="http://www.w3.org/2000/svg">
<path fill-rule="evenodd" clip-rule="evenodd" d="M6.36105 7.01466e-08L0 18.1046H4.94211L6.01858 14.973H11.401L12.4531 18.1046H17.3706L11.7916 2.16472L11.0339 7.01466e-08H6.36105ZM7.14395 10.9607L8.68523 5.94514L10.3734 10.9607H7.14395Z" fill="#FEFEFE"/>
<path d="M16.4156 13.4806V1.10101C16.4156 0.391541 16.0242 0 15.3148 0H12.8926C12.1831 0 11.7916 0.391541 11.7916 1.10101V2.16472L17.3706 18.1046H22.8992C23.6086 18.1046 24 17.7133 24 17.0038V14.5816C24 13.8722 23.6086 13.4806 22.8992 13.4806H16.4156Z" fill="#02A9FF"/>
</svg>
