<svg width="24" height="6" viewBox="0 0 24 6" fill="none" xmlns="http://www.w3.org/2000/svg">
<path d="M10.254 5.76421H9.23064V3.93474H10.2718C10.6475 3.93474 10.7841 4.0987 10.7841 4.39791V5.25595C10.7841 5.65627 10.6161 5.76421 10.254 5.76421ZM10.3674 4.40338L10.2048 4.23669H9.64872V5.46499H10.2021C10.3127 5.46499 10.3674 5.43089 10.3674 5.3024V4.40338ZM11.2186 5.76421H11.6352V3.93365H11.2186V5.76421ZM13.3418 5.76421L13.2981 5.63987C13.2367 5.71912 13.1177 5.79563 12.8295 5.79563H12.6231C12.2665 5.79563 12.0712 5.68775 12.0712 5.29693V4.38015C12.0712 3.90195 12.4373 3.89648 12.6915 3.89648H13.182C13.3678 3.89648 13.5304 3.93201 13.611 3.97573V4.21073H12.6669C12.5562 4.21073 12.4879 4.23806 12.4879 4.38698V5.34066L12.6641 5.48958H12.9552L13.2489 5.424V4.99772H12.8568V4.72856H13.6547V5.76421H13.3418ZM14.1028 5.76421H14.5195V3.93365H14.1028V5.76421ZM15.7342 4.23259V5.76421H15.3175V4.23259H14.7532V3.93337H16.2903V4.23259" fill="white"/>
<path d="M17.6661 5.76367L17.5076 5.29367H16.778L16.6223 5.76367H16.2507L16.9188 3.91644H17.4147L18.0911 5.76367H17.6661ZM17.1688 4.27305L17.1442 4.16374H17.1346L17.1087 4.27305L16.8764 4.98762H17.4079L17.1688 4.27305ZM18.4504 5.76367V3.93421H18.8657V5.45216H19.7279V5.76367" fill="white"/>
<path d="M23.0903 0.129127L22.3115 1.50635L21.5587 0.129127H20.8537C20.9849 0.362763 21.9085 2.05697 21.9085 2.05697V3.17596H22.6654C22.6668 3.0243 22.6654 2.06243 22.6654 2.06243C22.6654 2.06243 23.6245 0.364129 23.7598 0.129127H23.0903ZM-3.05176e-05 5.83203H8.48997V-0.000260961H-3.05176e-05V5.83203ZM1.9688 5.07511H1.00283V0.754889H1.9688C2.97439 0.754889 3.81466 1.74272 3.81466 2.9068C3.81466 4.1064 2.97439 5.07511 1.9688 5.07511ZM7.48862 5.07511H6.51992C5.51296 5.07511 4.67542 4.1064 4.67542 2.9068C4.67542 1.74272 5.51296 0.754889 6.51992 0.754889H7.48862" fill="white"/>
<path d="M14.6207 2.10934C14.6207 2.64903 14.428 2.77336 13.8842 2.77336C13.3418 2.77336 13.1478 2.64903 13.1478 2.10934V1.19666C13.1478 0.66927 13.3418 0.555868 13.8842 0.555868C14.428 0.555868 14.6207 0.66927 14.6207 1.19666V2.10934ZM14.9308 0.297639C14.7177 0.151445 14.3556 0.0762993 13.8842 0.0762993C13.4238 0.0762993 13.0918 0.137782 12.8349 0.299005C12.5671 0.467059 12.4414 0.749882 12.4414 1.19256V2.1517C12.4414 2.59438 12.5726 2.89359 12.8322 3.04252C13.0426 3.18462 13.3855 3.25293 13.8842 3.25293C14.3775 3.25293 14.73 3.18325 14.9308 3.04662C15.1918 2.88676 15.327 2.58071 15.327 2.1517V1.19256C15.327 0.771742 15.1945 0.471158 14.9308 0.297639ZM11.2937 2.03693C11.2937 2.57115 11.0014 2.70505 10.7568 2.70505H9.89329V0.574996H10.7568C11.0014 0.574996 11.2937 0.710259 11.2937 1.20759V2.03693ZM10.7513 0.128218H9.18965V3.17642H10.8606C11.6859 3.17642 11.9919 2.84851 11.9919 1.96452V1.29367C11.9919 0.454762 11.6435 0.128218 10.7513 0.128218ZM16.5485 0.128218H15.8449V3.17642H17.8492V2.66816H16.5485V0.128218Z" fill="white"/>
<path d="M19.9492 1.56219C20.5026 1.513 20.6214 1.24794 20.6214 0.868113C20.6214 0.532006 20.478 0.361219 20.3181 0.265578C20.1842 0.183601 20.0257 0.127583 19.6964 0.127583H18.2345V3.17578H19.7142C20.1692 3.17578 20.3577 3.08697 20.4438 3.02822C20.5955 2.93121 20.7908 2.71397 20.7908 2.36557C20.7908 1.95705 20.6447 1.54716 19.9492 1.56219ZM19.5748 2.73174H18.9409V0.564797H19.6322C19.8672 0.564797 20.0134 0.746514 20.0134 0.995179C20.0134 1.37774 19.8249 1.38594 19.2838 1.40643V1.75894C19.7661 1.75894 20.1528 1.72888 20.1528 2.21664C20.1528 2.46258 19.9943 2.73174 19.5748 2.73174Z" fill="white"/>
</svg>
