<svg width="24" height="6" viewBox="0 0 24 6" fill="none" xmlns="http://www.w3.org/2000/svg">
<path d="M22.8162 0.170207L22.1333 1.45589L21.4734 0.170207H20.8551C20.9706 0.387938 21.7789 1.96969 21.7789 1.96969V3.01234H22.4435C22.444 2.8706 22.4435 1.97374 22.4435 1.97374C22.4435 1.97374 23.2832 0.388898 23.4021 0.170207H22.8162Z" fill="white"/>
<path d="M14.8728 2.02412C14.8728 2.54539 14.696 2.66429 14.199 2.66429C13.7022 2.66429 13.5257 2.5455 13.5257 2.02412V1.14423C13.5257 0.635767 13.7022 0.525514 14.199 0.525514C14.6958 0.525514 14.8728 0.635553 14.8728 1.14423V2.02412ZM15.1575 0.278219C14.961 0.137014 14.6295 0.0634766 14.1987 0.0634766C13.7784 0.0634766 13.4723 0.123673 13.2383 0.279179C12.9938 0.441944 12.8787 0.714534 12.8787 1.14018V2.06521C12.8787 2.49192 12.9981 2.78041 13.2361 2.92397C13.428 3.06154 13.741 3.12686 14.1989 3.12686C14.6499 3.12686 14.9718 3.05962 15.1564 2.92727C15.3948 2.77497 15.5191 2.47837 15.5191 2.06521V1.14018C15.5191 0.73492 15.3971 0.444719 15.1575 0.278219Z" fill="white"/>
<path d="M11.7118 1.89924C11.7118 2.38241 11.4419 2.50462 11.2155 2.50462H10.4152V0.575464H11.2155C11.442 0.575464 11.7118 0.69703 11.7118 1.1469V1.89924ZM11.21 0.170207H9.76276V2.93069H11.3116C12.075 2.93069 12.3591 2.63313 12.3591 1.83264V1.22577C12.3592 0.466278 12.0366 0.170207 11.21 0.170207Z" fill="white"/>
<path d="M16.0163 0.170207V2.97157H17.9404V2.50516H16.6929V0.170207H16.0163Z" fill="white"/>
<path d="M23.4178 2.73281C23.4178 2.85683 23.3263 2.94627 23.21 2.94627C23.0921 2.94627 23.0011 2.85683 23.0011 2.73281C23.0011 2.61199 23.0923 2.52052 23.21 2.52052C23.3263 2.52052 23.4178 2.6121 23.4178 2.73281ZM22.9523 2.73281C22.9523 2.88031 23.0703 2.98768 23.21 2.98768C23.348 2.98768 23.4663 2.88031 23.4663 2.73281C23.4663 2.58723 23.3478 2.48029 23.21 2.48029C23.0702 2.48029 22.9523 2.58723 22.9523 2.73281ZM23.1559 2.6248H23.216C23.268 2.6248 23.2817 2.64017 23.2817 2.66739C23.2817 2.70047 23.2638 2.71563 23.2086 2.71563H23.1557L23.1559 2.6248ZM23.1559 2.75277H23.2064L23.2842 2.88021H23.3331L23.2502 2.75128C23.2938 2.74583 23.3266 2.72289 23.3266 2.67048C23.3266 2.61295 23.293 2.58712 23.2231 2.58712H23.1109V2.88021H23.1559V2.75277Z" fill="white"/>
<path d="M19.9351 1.48951C20.4679 1.44393 20.5838 1.20037 20.5838 0.850295C20.5838 0.542057 20.4433 0.385056 20.2898 0.29647C20.1618 0.220798 20.0096 0.170207 19.6902 0.170207H18.2856V2.97157H19.7088C20.1465 2.97157 20.3283 2.89131 20.4134 2.83741C20.5575 2.74701 20.745 2.54721 20.745 2.2284C20.7449 1.85175 20.6052 1.47456 19.9351 1.48951ZM19.576 2.5645H18.9624V0.571942H19.6302C19.8554 0.571942 19.9971 0.738762 19.9971 0.968019C19.9971 1.31938 19.8144 1.32781 19.2948 1.34531V1.66999C19.7591 1.66796 20.1315 1.64202 20.1315 2.09061C20.1314 2.31624 19.9776 2.5645 19.576 2.5645Z" fill="white"/>
<path d="M0 5.93591H8.46289V0.0634766H0V5.93591ZM1.96299 5.17428H0.998146V0.824893H1.96278C2.96423 0.824893 3.80143 1.81888 3.80143 2.99121C3.80143 4.19801 2.96434 5.17428 1.96299 5.17428ZM7.46624 5.17428H6.49841C5.4962 5.17428 4.66061 4.19812 4.66061 2.9911C4.66061 1.81888 5.49642 0.824787 6.49841 0.824787H7.46624V5.17428Z" fill="white"/>
<path d="M12.9982 5.847L12.5658 5.13254H12.3487V5.847H11.9268V3.8141H12.9598C13.0583 3.8141 13.1387 3.82808 13.2017 3.85669C13.2653 3.88508 13.3158 3.92265 13.3528 3.97121C13.3903 4.01849 13.4158 4.07399 13.4304 4.13653C13.4454 4.20015 13.4522 4.26472 13.4522 4.33377V4.60668C13.4522 4.66165 13.4474 4.71875 13.4371 4.77713C13.427 4.83626 13.4072 4.89037 13.3778 4.93915C13.3474 4.98782 13.3061 5.02827 13.2537 5.06061C13.2011 5.09305 13.1321 5.10917 13.047 5.10917H12.993L13.4821 5.84689L12.9982 5.847ZM13.0363 4.32513C13.0363 4.2628 13.0207 4.21626 12.9903 4.18883C12.9588 4.15991 12.9143 4.14614 12.8566 4.14614H12.3485V4.79816H12.8619C12.978 4.79816 13.0364 4.73689 13.0364 4.61543L13.0363 4.32513Z" fill="white"/>
<path d="M9.84548 4.14262V3.80898H11.5397V4.14262H10.9255V5.847H10.4667V4.14262H9.84548Z" fill="white"/>
<path d="M21.4166 4.40009C21.4173 4.21759 21.2231 4.22969 21.2231 4.22969L20.802 4.22704V5.37803L21.2144 5.38088C21.338 5.38088 21.4127 5.32425 21.4133 5.18209L21.4166 4.40009ZM21.387 5.83707H20.2506V3.8141H21.3542C21.7719 3.8141 21.9228 3.99543 21.9228 4.32615V5.27475C21.9228 5.7175 21.7362 5.83707 21.3336 5.83707" fill="white"/>
<path d="M14.9797 5.87165H14.4695C14.1028 5.87165 13.927 5.75436 13.927 5.31986V3.81026H14.3557V5.34889C14.3557 5.47782 14.4139 5.52115 14.5168 5.52115H14.9771C15.0794 5.52115 15.1376 5.47782 15.1376 5.34889V3.81026H15.5192V5.31986C15.519 5.75436 15.3469 5.87165 14.9797 5.87165Z" fill="white"/>
<path d="M18.0715 3.84687V5.83473H18.5696V5.06755L19.2312 5.06093V5.83473H19.7615V3.84687H19.2578L19.2361 4.64415L18.5667 4.64062L18.5641 3.84687H18.0715Z" fill="white"/>
<path d="M17.4959 3.85039H16.0429V5.8346L17.4933 5.83544V5.55413H16.3729V4.90721L17.2333 4.90862V4.6272L16.388 4.62697L16.3921 4.12934H17.4934L17.4959 3.85039Z" fill="white"/>
</svg>
