<svg width="24" height="10" viewBox="0 0 24 10" fill="none" xmlns="http://www.w3.org/2000/svg">
<path d="M5.82563 8.77825L5.32826 7.46435L4.822 8.77825H5.82563ZM5.09566 6.78009H5.59303L6.98439 10.01H6.32744L6.02627 9.27096H4.62581L4.33373 10.01H3.69054L5.09566 6.78009Z" fill="white"/>
<path d="M7.90002 7.28184H6.91015V6.78003H9.46493V7.28184H8.47485V10.01H7.90002V7.28184Z" fill="white"/>
<path d="M10.182 6.78001H11.0806L11.9202 9.07489H11.9338L12.7643 6.78001H13.6674V10.0099H13.0972V7.41431H13.0881L12.1073 10.0099H11.7056L10.7386 7.41431H10.7293V10.0099H10.182V6.78001Z" fill="white"/>
<path d="M14.9884 8.38651C14.9884 8.54503 15.0127 8.69065 15.0614 8.82293C15.1101 8.95499 15.1797 9.06992 15.2703 9.16727C15.3607 9.26484 15.4678 9.34061 15.5918 9.39479C15.7156 9.44919 15.8527 9.47628 16.003 9.47628C16.1535 9.47628 16.2911 9.44919 16.4166 9.39479C16.5416 9.34061 16.6496 9.26484 16.74 9.16727C16.8305 9.06992 16.9 8.95499 16.9489 8.82293C16.9975 8.69065 17.0219 8.54503 17.0219 8.38651C17.0219 8.23349 16.9975 8.09148 16.9489 7.96068C16.9 7.82967 16.8312 7.7158 16.7421 7.61823C16.653 7.52088 16.5459 7.44426 16.4206 7.38839C16.2953 7.33294 16.1562 7.305 16.003 7.305C15.85 7.305 15.7114 7.33294 15.5875 7.38839C15.4637 7.44426 15.3573 7.52088 15.2682 7.61823C15.1791 7.7158 15.1101 7.82967 15.0614 7.96068C15.0127 8.09148 14.9884 8.23349 14.9884 8.38651ZM14.3532 8.3863C14.3532 8.14037 14.3945 7.91814 14.477 7.72004C14.5594 7.52172 14.6737 7.35304 14.8199 7.2142C14.9661 7.07515 15.1397 6.96806 15.341 6.89292C15.542 6.81758 15.7613 6.7799 15.9988 6.7799C16.239 6.7799 16.4602 6.81758 16.6629 6.89292C16.8655 6.96806 17.0405 7.07515 17.188 7.2142C17.3357 7.35304 17.4509 7.52172 17.5332 7.72004C17.6158 7.91814 17.657 8.14037 17.657 8.3863C17.657 8.62652 17.6158 8.84578 17.5332 9.0441C17.4509 9.24241 17.3357 9.413 17.188 9.55649C17.0405 9.69957 16.8655 9.8111 16.6629 9.89047C16.4602 9.97026 16.239 10.0101 15.9988 10.0101C15.7613 10.0101 15.542 9.97026 15.341 9.89047C15.1397 9.8111 14.9661 9.69957 14.8199 9.55649C14.6737 9.413 14.5594 9.24241 14.477 9.0441C14.3945 8.84578 14.3532 8.62652 14.3532 8.3863Z" fill="white"/>
<path d="M19.933 7.50342C19.8752 7.42849 19.7937 7.36563 19.6883 7.31505C19.5831 7.26468 19.4771 7.23949 19.3702 7.23949C19.3067 7.23949 19.2434 7.24732 19.1799 7.2632C19.1164 7.27907 19.0586 7.30362 19.0068 7.33685C18.9547 7.37008 18.9122 7.41325 18.879 7.46659C18.8459 7.52014 18.8292 7.58427 18.8292 7.65919C18.8292 7.7284 18.8436 7.78766 18.8726 7.83655C18.9014 7.88565 18.941 7.92756 18.9916 7.96227C19.0421 7.99698 19.1035 8.02724 19.1755 8.05306C19.2476 8.07909 19.327 8.10492 19.4136 8.13095C19.5116 8.16269 19.6134 8.19889 19.7188 8.2391C19.824 8.27952 19.9207 8.33307 20.0087 8.39932C20.0966 8.46577 20.1687 8.54937 20.2252 8.65033C20.2813 8.75149 20.3095 8.877 20.3095 9.02685C20.3095 9.19151 20.2792 9.335 20.2185 9.45755C20.1579 9.58009 20.0771 9.68189 19.9763 9.76274C19.8752 9.84359 19.7569 9.90412 19.6214 9.94455C19.4857 9.98476 19.3427 10.0051 19.1928 10.0051C18.9937 10.0051 18.799 9.96825 18.6085 9.8946C18.4182 9.82116 18.2622 9.71216 18.1412 9.56803L18.5308 9.20442C18.6057 9.30812 18.706 9.39046 18.8313 9.45099C18.9571 9.51173 19.0802 9.54199 19.2015 9.54199C19.265 9.54199 19.3298 9.53416 19.3962 9.51808C19.4627 9.50242 19.5224 9.47554 19.5759 9.43808C19.6292 9.40061 19.6726 9.35384 19.7057 9.29754C19.7389 9.24124 19.7554 9.17119 19.7554 9.08759C19.7554 9.00674 19.7366 8.93965 19.6993 8.88631C19.6616 8.83298 19.6113 8.78663 19.5478 8.74769C19.4843 8.70874 19.4091 8.67488 19.3228 8.6461C19.2362 8.6171 19.1452 8.58683 19.05 8.55509C18.9575 8.5263 18.8652 8.4918 18.7729 8.45138C18.6806 8.41096 18.5977 8.35762 18.524 8.29116C18.4506 8.22492 18.3907 8.14322 18.3446 8.0465C18.2984 7.94999 18.2751 7.82956 18.2751 7.68522C18.2751 7.52945 18.3077 7.39526 18.3727 7.28267C18.4377 7.17028 18.5228 7.07716 18.6279 7.00351C18.7333 6.92985 18.8531 6.87504 18.9873 6.83906C19.1215 6.80308 19.2578 6.78488 19.3962 6.78488C19.552 6.78488 19.7101 6.81239 19.8703 6.86721C20.0303 6.92202 20.1694 7.00435 20.2879 7.11378L19.933 7.50342Z" fill="white"/>
<path d="M0 0H0.687216C1.97085 0 3.01702 1.04617 3.01702 2.32959C3.01702 3.61323 1.97085 4.65918 0.687216 4.65918H0V0Z" fill="white"/>
<path d="M6.62832 4.65929H5.94111C4.65747 4.65929 3.6113 3.61312 3.6113 2.3297C3.6113 1.04606 4.65747 0.000105469 5.94111 0.000105469H6.62832V4.65929Z" fill="white"/>
<path d="M9.72193 3.95294H8.74561V0.706498H9.72193C10.6164 0.706498 11.3453 1.43541 11.3453 2.32961C11.3453 3.22403 10.6164 3.95294 9.72193 3.95294ZM9.72193 2.28449e-05H8.03913V4.65942H9.72193C11.0066 4.65942 12.0515 3.61431 12.0515 2.32961C12.0515 1.04513 11.0066 2.28449e-05 9.72193 2.28449e-05Z" fill="white"/>
<path d="M14.0244 4.01686C13.4843 4.01686 13.051 3.57769 13.051 3.0435C13.051 2.50338 13.4902 2.07014 14.0244 2.07014C14.5586 2.07014 14.9978 2.5093 14.9978 3.0435C14.9978 3.58362 14.5586 4.01686 14.0244 4.01686ZM14.0244 1.43498C13.134 1.43498 12.41 2.15903 12.41 3.04942C12.41 3.93961 13.134 4.66386 14.0244 4.66386C14.9146 4.66386 15.6388 3.93961 15.6388 3.04942C15.6388 2.15903 14.9146 1.43498 14.0244 1.43498Z" fill="white"/>
<path d="M16.0958 0.000803765H16.802V4.66507H16.0958V0.000803765Z" fill="white"/>
<path d="M19.0265 4.01707C18.5947 4.01707 18.2317 3.73579 18.1033 3.35017C18.0711 3.25366 18.0531 3.1508 18.0531 3.04371C18.0531 2.93598 18.0711 2.83291 18.1033 2.7364C18.2326 2.34845 18.5987 2.07035 19.0265 2.07035C19.5607 2.07035 19.9998 2.50951 19.9998 3.04371C19.9998 3.58383 19.5607 4.01707 19.0265 4.01707ZM19.0265 1.4352C18.6834 1.4352 18.3651 1.54314 18.1033 1.72621V0.000868311H17.3957V4.66492H18.1033V4.37306C18.3651 4.55613 18.6834 4.66407 19.0265 4.66407C19.9169 4.66407 20.6409 3.93982 20.6409 3.04963C20.6409 2.15924 19.9169 1.4352 19.0265 1.4352Z" fill="white"/>
<path d="M23.2285 1.43613L22.3085 3.50497L21.3883 1.43613H20.6168L21.9227 4.37145L21.8964 4.42838L21.8871 4.4487L21.6044 5.08724C21.6037 5.08893 21.6031 5.09062 21.6025 5.09211C21.5178 5.28195 21.2945 5.36788 21.1051 5.28343L21.0039 5.23835L20.7186 5.87816L20.7199 5.87858L20.9646 5.98779C21.4238 6.19267 21.9654 5.98441 22.1707 5.52408C22.1724 5.52027 23.8432 1.78704 24 1.43613H23.2285Z" fill="white"/>
</svg>
