<svg width="24" height="6" viewBox="0 0 24 6" fill="none" xmlns="http://www.w3.org/2000/svg">
<path d="M9.45139 4.38267C9.45139 4.27963 9.41742 4.24177 9.31727 4.24177H8.86025V5.27861H9.31523C9.40695 5.27861 9.45139 5.24964 9.45139 5.14027V4.38267ZM9.35763 5.53033H8.51503V3.98755H9.37343C9.68309 3.98755 9.7945 4.12582 9.7945 4.37754V5.10149C9.79444 5.43913 9.65676 5.53033 9.35763 5.53033Z" fill="white"/>
<path d="M10.4959 3.98807H10.1528V5.53033H10.4959V3.98807Z" fill="white"/>
<path d="M11.9004 5.53033L11.865 5.4257C11.8134 5.49253 11.7148 5.55726 11.4789 5.55726H11.3096C11.0153 5.55726 10.8546 5.46606 10.8546 5.13619V4.362C10.8546 3.96114 11.1558 3.95601 11.3653 3.95601H11.769C11.9228 3.95601 12.0564 3.9855 12.1231 4.0233V4.22215H11.3453C11.2539 4.22215 11.1982 4.24394 11.1982 4.36924V5.17405C11.1982 5.274 11.2603 5.29836 11.3429 5.29836H11.5812C11.6464 5.29836 11.769 5.27196 11.8246 5.24292V4.88401H11.5017V4.65724H12.1591V5.53039L11.9004 5.53033Z" fill="white"/>
<path d="M12.8716 3.98807H12.528V5.53033H12.8716V3.98807Z" fill="white"/>
<path d="M13.8698 4.23973V5.53033H13.5267V4.23973H13.0632V3.98807H14.329V4.23973H13.8698Z" fill="white"/>
<path d="M15.0511 4.27291L15.0305 4.18172H15.0239L15.0016 4.27291L14.8097 4.87518H15.2469L15.0511 4.27291ZM15.461 5.53033L15.3315 5.13362H14.7297L14.6002 5.53033H14.2946L14.8457 3.97464H15.2535L15.8115 5.53033H15.461Z" fill="white"/>
<path d="M16.0331 5.53033V3.98755H16.3766V5.26722H17.0851V5.53033H16.0331Z" fill="white"/>
<path d="M18.79 4.37543C18.79 4.27963 18.7366 4.23973 18.6434 4.23973H18.2213V4.77727H18.6475C18.7407 4.77727 18.79 4.73691 18.79 4.64111V4.37543ZM18.7346 5.0311H18.2213V5.53033H17.8779V3.98702H18.7029C18.9997 3.98702 19.1313 4.09889 19.1313 4.38063V4.64993C19.1313 4.91713 19.0235 5.0311 18.7346 5.0311Z" fill="white"/>
<path d="M19.4108 5.53033V3.98755H19.7542V5.26722H20.4632V5.53033H19.4108Z" fill="white"/>
<path d="M21.5465 5.56187H21.138C20.8444 5.56187 20.7035 5.47232 20.7035 5.14034V3.98702H21.0468V5.16259C21.0468 5.26103 21.0935 5.29415 21.1758 5.29415H21.5445C21.6264 5.29415 21.673 5.26103 21.673 5.16259V3.98702H21.9785V5.14034C21.9785 5.47232 21.8408 5.56187 21.5465 5.56187Z" fill="white"/>
<path d="M23.0904 5.55726H22.6424C22.5393 5.55726 22.399 5.53698 22.3348 5.46606V5.29619H23.066C23.1332 5.29619 23.1618 5.26103 23.1618 5.19782V5.04657C23.1618 4.97309 23.139 4.94406 23.0499 4.93056L22.6828 4.87979C22.4259 4.84351 22.3295 4.77003 22.3295 4.54939V4.31011C22.3295 4.08736 22.4488 3.95587 22.7563 3.95587H23.1146C23.2173 3.95587 23.3642 3.9807 23.4202 4.04799V4.22412H22.7334C22.6621 4.22412 22.6382 4.25 22.6382 4.32868V4.46959C22.6382 4.54517 22.6828 4.5696 22.7531 4.57836L23.1795 4.63426C23.4046 4.66323 23.4802 4.7327 23.4802 4.9642V5.21125C23.4803 5.44335 23.3803 5.55726 23.0904 5.55726Z" fill="white"/>
<path d="M19.9706 0.535233L19.3296 1.69658L18.7091 0.535233H18.1286C18.2364 0.731512 18.996 2.16164 18.996 2.16164V3.10392H19.6206C19.6206 2.97632 19.6206 2.16473 19.6206 2.16473C19.6206 2.16473 20.4098 0.733093 20.5217 0.535233H19.9706Z" fill="white"/>
<path d="M6.86071 5.09266H5.97109C5.051 5.09266 4.28227 4.15327 4.28227 2.99238C4.28227 1.86396 5.051 0.908632 5.97109 0.908632H6.86071V5.09266ZM1.80385 5.09266H0.917136V0.908698H1.80379C2.72342 0.908698 3.49267 1.86402 3.49267 2.99245C3.49274 4.15334 2.72349 5.09266 1.80385 5.09266ZM0 5.82524H7.77659V0.174805H0V5.82524Z" fill="white"/>
<path d="M13.2539 0.678179C13.0767 0.555447 12.7784 0.490986 12.391 0.490986C12.0124 0.490986 11.7375 0.542805 11.5272 0.679759C11.3065 0.82106 11.2033 1.05981 11.2033 1.43169V2.24032C11.2033 2.61477 11.3107 2.86623 11.5252 2.99179C11.6982 3.11215 11.9798 3.16937 12.391 3.16937C12.797 3.16937 13.087 3.11057 13.2528 2.99489C13.4672 2.86182 13.5791 2.60206 13.5791 2.24032V1.43169C13.5791 1.07745 13.4698 0.823957 13.2539 0.678179ZM12.9969 2.2049C12.9969 2.66034 12.8385 2.76522 12.391 2.76522C11.9446 2.76522 11.7851 2.66034 11.7851 2.2049V1.43531C11.7851 0.991002 11.9446 0.894936 12.391 0.894936C12.8385 0.894936 12.9969 0.991002 12.9969 1.43531V2.2049Z" fill="white"/>
<path d="M9.81195 0.535233H8.52504V3.10465H9.90235C10.5805 3.10465 10.8336 2.82791 10.8336 2.08269V1.51795C10.8336 0.810986 10.5472 0.535233 9.81195 0.535233ZM10.2582 2.14425C10.2582 2.59429 10.0178 2.70801 9.81695 2.70801H9.10499V0.912253H9.81695C10.0178 0.912253 10.2582 1.0257 10.2582 1.44407V2.14425Z" fill="white"/>
<path d="M14.5847 0.535233H14.0047V3.10438H15.6557V2.67666H14.5847V0.535233Z" fill="white"/>
<path d="M20.2301 2.88071H20.2783L20.3529 3.00318H20.3999L20.3202 2.8794C20.3621 2.8742 20.3932 2.85194 20.3932 2.80249C20.3932 2.74679 20.3611 2.72197 20.2938 2.72197H20.1865V3.00318H20.23L20.2301 2.88071ZM20.2301 2.75745H20.2875C20.3373 2.75745 20.3498 2.77253 20.3498 2.79894C20.3498 2.83028 20.3337 2.84549 20.2803 2.84549H20.23L20.2301 2.75745ZM20.0348 2.86208C20.0348 3.00325 20.1478 3.1055 20.2813 3.1055C20.414 3.1055 20.5269 3.00318 20.5269 2.86208C20.5269 2.72203 20.414 2.61971 20.2813 2.61971C20.1478 2.61971 20.0348 2.72203 20.0348 2.86208ZM20.4803 2.86208C20.4803 2.98099 20.3933 3.06613 20.2814 3.06613C20.1685 3.06613 20.0816 2.98099 20.0816 2.86208C20.0816 2.7458 20.1685 2.65777 20.2814 2.65777C20.3932 2.65777 20.4803 2.7458 20.4803 2.86208Z" fill="white"/>
<path d="M17.0767 2.73072H16.5532V0.903496H17.1233C17.3171 0.903496 17.4377 1.05731 17.4377 1.26702C17.4377 1.58913 17.2813 1.5969 16.8365 1.61296V1.91097C17.2331 1.90945 17.5521 1.88529 17.5521 2.29648C17.5522 2.50317 17.4201 2.73072 17.0767 2.73072ZM17.3844 1.74504C17.8401 1.70356 17.9385 1.47989 17.9385 1.15956C17.9385 0.87571 17.8189 0.731513 17.6878 0.650525C17.578 0.58185 17.4475 0.535299 17.1746 0.535299H15.9737V3.10419H17.1907C17.5645 3.10419 17.72 3.03097 17.7929 2.98126C17.9167 2.89836 18.0767 2.71558 18.0767 2.42271C18.0768 2.07742 17.9571 1.73227 17.3844 1.74504Z" fill="white"/>
</svg>
