<svg width="24" height="10" viewBox="0 0 24 10" fill="none" xmlns="http://www.w3.org/2000/svg">
<path fill-rule="evenodd" clip-rule="evenodd" d="M9.35913 9.4525H9.06241V7.59005H8.38159V7.32909H10.0399V7.59005H9.35913V9.4525ZM6.24451 9.4525H5.91463L6.83534 7.32909H7.10524L8.01752 9.4525H7.68135L7.46509 8.9306H6.45758L6.24451 9.4525ZM11.9524 8.9606H11.9582L12.5853 7.32909H13.0472V9.4525H12.75V7.67685H12.7442L12.0392 9.4525H11.8503L11.1479 7.67685H11.1427V9.4525H10.8544V7.32909H11.3163L11.9524 8.9606ZM16.0182 8.38765C16.0182 8.54391 15.9909 8.68702 15.9367 8.81697C15.8825 8.94745 15.8078 9.05951 15.7131 9.15368C15.6178 9.24786 15.5047 9.32099 15.3737 9.37307C15.2427 9.42516 15.0996 9.45145 14.946 9.45145C14.7918 9.45145 14.6498 9.42516 14.5199 9.37307C14.3894 9.32099 14.2768 9.24786 14.1815 9.15368C14.0868 9.05951 14.0121 8.94745 13.9595 8.81697C13.9058 8.68702 13.8795 8.54391 13.8795 8.38765C13.8795 8.22982 13.9058 8.08619 13.9595 7.95571C14.0121 7.82576 14.0868 7.71423 14.1815 7.62216C14.2768 7.53009 14.3894 7.45799 14.5199 7.40696C14.6498 7.3554 14.7918 7.33015 14.946 7.33015C15.0996 7.33015 15.2427 7.3554 15.3737 7.40696C15.5047 7.45799 15.6178 7.53009 15.7131 7.62216C15.8078 7.71423 15.8825 7.82576 15.9367 7.95571C15.9909 8.08619 16.0182 8.22982 16.0182 8.38765ZM17.8302 7.75471C17.7902 7.7 17.736 7.65476 17.6676 7.61951C17.5992 7.58426 17.5224 7.5669 17.4372 7.5669C17.3914 7.5669 17.3451 7.57322 17.2988 7.58532C17.252 7.59742 17.2099 7.61742 17.172 7.6453C17.1336 7.67266 17.1026 7.70684 17.0789 7.74788C17.0552 7.78839 17.0436 7.83732 17.0436 7.89467C17.0436 7.94991 17.0542 7.99568 17.0763 8.03303C17.0984 8.06986 17.1273 8.10144 17.1647 8.1267C17.2015 8.15248 17.2457 8.17457 17.2956 8.19246C17.3462 8.21088 17.3998 8.22929 17.4566 8.24823C17.525 8.26928 17.5945 8.29296 17.665 8.31927C17.735 8.3461 17.7991 8.38134 17.856 8.425C17.9128 8.46867 17.9596 8.52338 17.9954 8.58862C18.0317 8.65438 18.0501 8.73751 18.0501 8.83853C18.0501 8.9427 18.0301 9.03371 17.9912 9.11053C17.9523 9.18734 17.9007 9.25102 17.836 9.30153C17.7713 9.35203 17.6966 9.38937 17.6119 9.4141C17.5277 9.43883 17.4409 9.45145 17.3514 9.45145C17.2241 9.45145 17.101 9.42621 16.9821 9.37729C16.8632 9.32783 16.7648 9.2547 16.6869 9.1579L16.9063 8.97216C16.9542 9.04266 17.0179 9.09948 17.0978 9.14315C17.1773 9.18682 17.2641 9.20892 17.3572 9.20892C17.4045 9.20892 17.4519 9.20208 17.4998 9.18893C17.5471 9.17578 17.5903 9.15474 17.6292 9.12633C17.6681 9.09791 17.7002 9.06212 17.725 9.01951C17.7492 8.97637 17.7618 8.92481 17.7618 8.86378C17.7618 8.80328 17.7492 8.75225 17.7234 8.71121C17.6976 8.6707 17.6629 8.63598 17.6192 8.60704C17.5755 8.57915 17.5245 8.55443 17.4666 8.53444C17.4088 8.51445 17.3472 8.49445 17.283 8.4734C17.2183 8.45446 17.1546 8.43078 17.092 8.40342C17.0294 8.37607 16.9731 8.34082 16.9237 8.2982C16.8742 8.25506 16.8342 8.20246 16.8037 8.13985C16.7732 8.07724 16.7585 7.99885 16.7585 7.90626C16.7585 7.80524 16.7785 7.71896 16.8195 7.64636C16.8606 7.57428 16.9137 7.51429 16.9795 7.46694C17.0447 7.41959 17.1194 7.38487 17.2015 7.36277C17.2846 7.3412 17.3677 7.33015 17.4514 7.33015C17.5692 7.33015 17.6792 7.35119 17.7818 7.39275C17.8844 7.43484 17.967 7.49062 18.0296 7.56112L17.8302 7.75471ZM15.7131 8.38765C15.7131 8.27769 15.6947 8.17351 15.6589 8.07565C15.6226 7.97779 15.5716 7.89153 15.5047 7.81735C15.4379 7.74316 15.3579 7.68476 15.2638 7.64214C15.1696 7.59953 15.0638 7.57795 14.946 7.57795C14.8297 7.57795 14.7245 7.59953 14.6309 7.64214C14.5367 7.68476 14.4567 7.74316 14.3915 7.81735C14.3257 7.89153 14.2747 7.97779 14.2384 8.07565C14.2026 8.17351 14.1847 8.27769 14.1847 8.38765C14.1847 8.50024 14.2026 8.60547 14.2384 8.70438C14.2747 8.80329 14.3262 8.88957 14.3925 8.96217C14.4593 9.03583 14.5393 9.09319 14.6324 9.13475C14.725 9.17684 14.8297 9.19787 14.946 9.19787C15.0617 9.19787 15.167 9.17684 15.2622 9.13475C15.3574 9.09319 15.4379 9.03583 15.5047 8.96217C15.5716 8.88957 15.6226 8.80329 15.6589 8.70438C15.6947 8.60547 15.7131 8.50024 15.7131 8.38765ZM6.5628 8.66964H7.35725L6.96107 7.67372L6.5628 8.66964ZM23.2282 1.9832L22.3075 4.05243L21.3868 1.9832H20.6155L21.9218 4.91947L21.8861 4.9968L21.603 5.63552C21.6024 5.63709 21.602 5.63868 21.6014 5.64078C21.5167 5.83019 21.2931 5.91646 21.1037 5.83176L21.0027 5.78652L20.8048 6.23002L20.7176 6.4268L20.7186 6.42732L20.9633 6.53675C21.4226 6.74141 21.9644 6.53307 22.1696 6.07219C22.1717 6.0685 23.8427 2.33412 24 1.9832H23.2282ZM16.799 0.547414H16.0924V5.21305H16.799V0.547414ZM19.0245 1.98214C18.6809 1.98214 18.3626 2.08999 18.1011 2.27308V0.547414H17.393V5.21305H18.1011V4.92104C18.3626 5.10413 18.6809 5.212 19.0245 5.212C19.9147 5.212 20.6392 4.48806 20.6392 3.59734C20.6392 2.70662 19.9147 1.98214 19.0245 1.98214ZM14.0206 1.98214C13.1304 1.98214 12.4054 2.70608 12.4054 3.5968C12.4054 4.48752 13.1304 5.212 14.0206 5.212C14.9113 5.212 15.6357 4.48752 15.6357 3.5968C15.6357 2.70608 14.9113 1.98214 14.0206 1.98214ZM9.7169 0.546875H8.03332V5.20779H9.7169C11.0017 5.20779 12.0471 4.16185 12.0471 2.87706C12.0471 1.59175 11.0017 0.546875 9.7169 0.546875ZM6.62174 5.20725H5.93513C4.65298 5.20725 3.60811 4.16237 3.60811 2.88022C3.60811 1.59807 4.65298 0.552681 5.93513 0.552681H6.62174V5.20725ZM0 0.546875H0.68709C1.96872 0.546875 3.01414 1.59177 3.01414 2.87393C3.01414 4.15608 1.96872 5.20147 0.68709 5.20147H0V0.546875ZM19.0245 4.56486C18.5925 4.56486 18.2295 4.28393 18.1011 3.89775C18.069 3.80147 18.0506 3.69835 18.0506 3.59102C18.0506 3.48369 18.069 3.38056 18.1011 3.28375C18.23 2.89547 18.5962 2.6177 19.0245 2.6177C19.559 2.6177 19.9983 3.05701 19.9983 3.59102C19.9983 4.13187 19.559 4.56486 19.0245 4.56486ZM14.0206 4.56486C13.4802 4.56486 13.0467 4.12556 13.0467 3.59102C13.0467 3.0507 13.486 2.61716 14.0206 2.61716C14.5551 2.61716 14.9944 3.05648 14.9944 3.59102C14.9944 4.13135 14.5551 4.56486 14.0206 4.56486ZM9.7169 4.50068H8.73988V1.25295H9.7169C10.6113 1.25295 11.3405 1.98266 11.3405 2.87706C11.3405 3.77146 10.6113 4.50068 9.7169 4.50068Z" fill="white"/>
</svg>
