<svg width="24" height="10" viewBox="0 0 24 10" fill="none" xmlns="http://www.w3.org/2000/svg">
<path d="M23.2286 1.43133L22.3085 3.50015L21.3883 1.43133H20.6167L21.9227 4.36662L21.8965 4.42334L21.8869 4.44387L21.6044 5.08261C21.6038 5.0841 21.6031 5.08579 21.6025 5.08748C21.5178 5.27712 21.2946 5.36325 21.1051 5.27881L21.0038 5.23352L20.8063 5.6767L20.7187 5.87332L20.7199 5.87374L20.9646 5.98316C21.4237 6.18782 21.9655 5.97956 22.1708 5.51924C22.1725 5.51543 23.8432 1.78224 24 1.43133H23.2286ZM19.9999 3.03898C19.9999 2.50458 19.5606 2.06563 19.0264 2.06563C18.5986 2.06563 18.2325 2.34352 18.1034 2.73167C18.0712 2.82818 18.053 2.93125 18.053 3.03898C18.053 3.14607 18.0712 3.24893 18.1034 3.34544C18.2316 3.73106 18.5946 4.01233 19.0264 4.01233C19.5606 4.01233 19.9999 3.5791 19.9999 3.03898ZM20.6408 3.04491C20.6408 3.93508 19.9168 4.65933 19.0264 4.65933C18.6833 4.65933 18.3652 4.55139 18.1034 4.3681V4.66017H17.3957V-0.00403589H18.1034V1.7215C18.3652 1.53843 18.6833 1.43028 19.0264 1.43028C19.9168 1.43028 20.6408 2.15452 20.6408 3.04491ZM16.0957 4.66017H16.802V-0.00403589H16.0957V4.66017ZM14.9979 3.03877C14.9979 2.50458 14.5586 2.06521 14.0244 2.06521C13.4902 2.06521 13.051 2.49865 13.051 3.03877C13.051 3.57296 13.4843 4.01212 14.0244 4.01212C14.5586 4.01212 14.9979 3.57888 14.9979 3.03877ZM15.6388 3.0447C15.6388 3.93487 14.9148 4.6589 14.0244 4.6589C13.134 4.6589 12.41 3.93487 12.41 3.0447C12.41 2.15431 13.134 1.43028 14.0244 1.43028C14.9148 1.43028 15.6388 2.15431 15.6388 3.0447ZM11.3452 2.32489C11.3452 1.43049 10.6161 0.701585 9.72186 0.701585H8.74555V3.9482H9.72186C10.6161 3.9482 11.3452 3.21909 11.3452 2.32489ZM12.0514 2.32489C12.0514 3.60936 11.0063 4.65467 9.72186 4.65467H8.0393V-0.00488281H9.72186C11.0063 -0.00488281 12.0514 1.04022 12.0514 2.32489ZM6.62827 -0.00467048H5.94085C4.65744 -0.00467048 3.61128 1.04149 3.61128 2.32489C3.61128 3.6083 4.65744 4.65467 5.94085 4.65467H6.62827V-0.00467048ZM0 4.65467H0.687208C1.97062 4.65467 3.01677 3.6083 3.01677 2.32489C3.01677 1.04149 1.97062 -0.00467048 0.687208 -0.00467048H0V4.65467ZM17.3087 10.0052H17.8837V7.50975H17.8926L19.4255 10.0052H20.1555V6.77513H19.5809V9.19316H19.5716L18.0708 6.77513H17.3087V10.0052ZM13.9084 7.95589C13.9571 7.82489 14.0261 7.71102 14.1152 7.61345C14.2043 7.5161 14.3107 7.43927 14.4345 7.38361C14.5584 7.32816 14.697 7.30022 14.85 7.30022C15.0032 7.30022 15.1425 7.32816 15.2676 7.38361C15.3929 7.43927 15.5002 7.5161 15.5893 7.61345C15.6782 7.71102 15.7472 7.82489 15.7958 7.95589C15.8445 8.08669 15.8689 8.2287 15.8689 8.38172C15.8689 8.54024 15.8445 8.68585 15.7958 8.81813C15.7472 8.9502 15.6775 9.06512 15.5869 9.16247C15.4966 9.26004 15.3888 9.33581 15.2636 9.38999C15.138 9.44438 15.0005 9.47147 14.85 9.47147C14.6997 9.47147 14.5626 9.44438 14.4388 9.38999C14.315 9.33581 14.2077 9.26004 14.1173 9.16247C14.0267 9.06512 13.9571 8.9502 13.9084 8.81813C13.8597 8.68585 13.8354 8.54024 13.8354 8.38172C13.8354 8.2287 13.8597 8.08669 13.9084 7.95589ZM13.324 9.0393C13.4064 9.23761 13.5207 9.40819 13.6669 9.55169C13.8132 9.69476 13.9867 9.8063 14.188 9.88587C14.389 9.96545 14.6083 10.0052 14.8458 10.0052C15.086 10.0052 15.3071 9.96545 15.5099 9.88587C15.7124 9.8063 15.8877 9.69476 16.0352 9.55169C16.1829 9.40819 16.2979 9.23761 16.3804 9.0393C16.4627 8.84099 16.504 8.62172 16.504 8.38151C16.504 8.13558 16.4627 7.91335 16.3804 7.71525C16.2979 7.51694 16.1829 7.34826 16.0352 7.20942C15.8877 7.07037 15.7124 6.96328 15.5099 6.88815C15.3071 6.8128 15.086 6.77513 14.8458 6.77513C14.6083 6.77513 14.389 6.8128 14.188 6.88815C13.9867 6.96328 13.8132 7.07037 13.6669 7.20942C13.5207 7.34826 13.4064 7.51694 13.324 7.71525C13.2415 7.91335 13.2002 8.13558 13.2002 8.38151C13.2002 8.62172 13.2415 8.84099 13.324 9.0393ZM11.8576 10.0052H12.4324V6.77534H11.8576V10.0052ZM10.9843 7.10487C10.8658 6.99524 10.7268 6.91291 10.5665 6.8581C10.4063 6.80328 10.2484 6.77598 10.0925 6.77598C9.95425 6.77598 9.81774 6.79397 9.68356 6.82995C9.54937 6.86593 9.42958 6.92095 9.3244 6.99439C9.219 7.06783 9.13392 7.16117 9.06894 7.27355C9.00418 7.38615 8.97159 7.52033 8.97159 7.6761C8.97159 7.82044 8.99466 7.94087 9.04079 8.03759C9.08714 8.13431 9.14683 8.21558 9.22048 8.28204C9.29413 8.34849 9.3771 8.40183 9.46937 8.44204C9.56165 8.48246 9.65393 8.51717 9.7462 8.54596C9.84166 8.5777 9.93245 8.60818 10.019 8.63696C10.1056 8.66575 10.1805 8.69961 10.2442 8.73855C10.3075 8.77771 10.3581 8.82363 10.3955 8.87718C10.433 8.93051 10.4518 8.9976 10.4518 9.07845C10.4518 9.16205 10.4353 9.23211 10.4021 9.28819C10.3689 9.34449 10.3257 9.39147 10.2721 9.42893C10.2188 9.4664 10.1589 9.49306 10.0925 9.50915C10.0262 9.52481 9.96123 9.53285 9.89795 9.53285C9.77668 9.53285 9.65329 9.50259 9.52779 9.44206C9.40228 9.38131 9.30196 9.2992 9.22704 9.19528L8.83762 9.55867C8.95868 9.70301 9.11445 9.81201 9.30493 9.88566C9.4954 9.95931 9.69012 9.99593 9.88927 9.99593C10.0391 9.99593 10.182 9.97582 10.3176 9.9354C10.4533 9.89497 10.5716 9.83444 10.6726 9.7536C10.7735 9.67275 10.8544 9.57116 10.9149 9.44841C10.9756 9.32586 11.0059 9.18216 11.0059 9.01792C11.0059 8.86765 10.9778 8.74236 10.9215 8.6412C10.8652 8.54024 10.793 8.45664 10.705 8.39019C10.6169 8.32373 10.5204 8.27061 10.415 8.23018C10.3096 8.18976 10.208 8.15357 10.1098 8.12182C10.0235 8.09579 9.94409 8.06997 9.87192 8.04394C9.79975 8.0179 9.73837 7.98764 9.688 7.95314C9.63742 7.91843 9.59763 7.87674 9.56906 7.82764C9.54006 7.77854 9.52567 7.71927 9.52567 7.65007C9.52567 7.57515 9.54218 7.51081 9.57541 7.45747C9.60863 7.40414 9.65118 7.36075 9.70303 7.32773C9.75488 7.29451 9.81266 7.26995 9.87615 7.25408C9.93965 7.23821 10.0031 7.23017 10.0666 7.23017C10.1733 7.23017 10.2793 7.25556 10.3847 7.30615C10.4899 7.35652 10.5716 7.41938 10.6294 7.4943L10.9843 7.10487ZM7.53198 10.0052H8.10681V6.77534H7.53198V10.0052ZM3.84451 6.77513H4.4877L5.37745 9.26152H5.39565L6.29429 6.77513H6.91462L5.61915 10.0052H5.12178L3.84451 6.77513Z" fill="white"/>
</svg>
