<svg width="24" height="24" viewBox="0 0 24 24" fill="none" xmlns="http://www.w3.org/2000/svg">
<path fill-rule="evenodd" clip-rule="evenodd" d="M9.35913 16.4525H9.06241V14.59H8.38159V14.3291H10.0399V14.59H9.35913V16.4525ZM6.24451 16.4525H5.91463L6.83534 14.3291H7.10524L8.01752 16.4525H7.68135L7.46509 15.9306H6.45758L6.24451 16.4525ZM11.9524 15.9606H11.9582L12.5853 14.3291H13.0472V16.4525H12.75V14.6769H12.7442L12.0392 16.4525H11.8503L11.1479 14.6769H11.1427V16.4525H10.8544V14.3291H11.3163L11.9524 15.9606ZM16.0182 15.3877C16.0182 15.5439 15.9909 15.687 15.9367 15.817C15.8825 15.9475 15.8078 16.0595 15.7131 16.1537C15.6178 16.2479 15.5047 16.321 15.3737 16.3731C15.2427 16.4252 15.0996 16.4515 14.946 16.4515C14.7918 16.4515 14.6498 16.4252 14.5199 16.3731C14.3894 16.321 14.2768 16.2479 14.1815 16.1537C14.0868 16.0595 14.0121 15.9475 13.9595 15.817C13.9058 15.687 13.8795 15.5439 13.8795 15.3877C13.8795 15.2298 13.9058 15.0862 13.9595 14.9557C14.0121 14.8258 14.0868 14.7142 14.1815 14.6222C14.2768 14.5301 14.3894 14.458 14.5199 14.407C14.6498 14.3554 14.7918 14.3301 14.946 14.3301C15.0996 14.3301 15.2427 14.3554 15.3737 14.407C15.5047 14.458 15.6178 14.5301 15.7131 14.6222C15.8078 14.7142 15.8825 14.8258 15.9367 14.9557C15.9909 15.0862 16.0182 15.2298 16.0182 15.3877ZM17.8302 14.7547C17.7902 14.7 17.736 14.6548 17.6676 14.6195C17.5992 14.5843 17.5224 14.5669 17.4372 14.5669C17.3914 14.5669 17.3451 14.5732 17.2988 14.5853C17.252 14.5974 17.2099 14.6174 17.172 14.6453C17.1336 14.6727 17.1026 14.7068 17.0789 14.7479C17.0552 14.7884 17.0436 14.8373 17.0436 14.8947C17.0436 14.9499 17.0542 14.9957 17.0763 15.033C17.0984 15.0699 17.1273 15.1014 17.1647 15.1267C17.2015 15.1525 17.2457 15.1746 17.2956 15.1925C17.3462 15.2109 17.3998 15.2293 17.4566 15.2482C17.525 15.2693 17.5945 15.293 17.665 15.3193C17.735 15.3461 17.7991 15.3813 17.856 15.425C17.9128 15.4687 17.9596 15.5234 17.9954 15.5886C18.0317 15.6544 18.0501 15.7375 18.0501 15.8385C18.0501 15.9427 18.0301 16.0337 17.9912 16.1105C17.9523 16.1873 17.9007 16.251 17.836 16.3015C17.7713 16.352 17.6966 16.3894 17.6119 16.4141C17.5277 16.4388 17.4409 16.4515 17.3514 16.4515C17.2241 16.4515 17.101 16.4262 16.9821 16.3773C16.8632 16.3278 16.7648 16.2547 16.6869 16.1579L16.9063 15.9722C16.9542 16.0427 17.0179 16.0995 17.0978 16.1432C17.1773 16.1868 17.2641 16.2089 17.3572 16.2089C17.4045 16.2089 17.4519 16.2021 17.4998 16.1889C17.5471 16.1758 17.5903 16.1547 17.6292 16.1263C17.6681 16.0979 17.7002 16.0621 17.725 16.0195C17.7492 15.9764 17.7618 15.9248 17.7618 15.8638C17.7618 15.8033 17.7492 15.7522 17.7234 15.7112C17.6976 15.6707 17.6629 15.636 17.6192 15.607C17.5755 15.5792 17.5245 15.5544 17.4666 15.5344C17.4088 15.5144 17.3472 15.4944 17.283 15.4734C17.2183 15.4545 17.1546 15.4308 17.092 15.4034C17.0294 15.3761 16.9731 15.3408 16.9237 15.2982C16.8742 15.2551 16.8342 15.2025 16.8037 15.1399C16.7732 15.0772 16.7585 14.9989 16.7585 14.9063C16.7585 14.8052 16.7785 14.719 16.8195 14.6464C16.8606 14.5743 16.9137 14.5143 16.9795 14.4669C17.0447 14.4196 17.1194 14.3849 17.2015 14.3628C17.2846 14.3412 17.3677 14.3301 17.4514 14.3301C17.5692 14.3301 17.6792 14.3512 17.7818 14.3928C17.8844 14.4348 17.967 14.4906 18.0296 14.5611L17.8302 14.7547ZM15.7131 15.3877C15.7131 15.2777 15.6947 15.1735 15.6589 15.0757C15.6226 14.9778 15.5716 14.8915 15.5047 14.8173C15.4379 14.7432 15.3579 14.6848 15.2638 14.6421C15.1696 14.5995 15.0638 14.5779 14.946 14.5779C14.8297 14.5779 14.7245 14.5995 14.6309 14.6421C14.5367 14.6848 14.4567 14.7432 14.3915 14.8173C14.3257 14.8915 14.2747 14.9778 14.2384 15.0757C14.2026 15.1735 14.1847 15.2777 14.1847 15.3877C14.1847 15.5002 14.2026 15.6055 14.2384 15.7044C14.2747 15.8033 14.3262 15.8896 14.3925 15.9622C14.4593 16.0358 14.5393 16.0932 14.6324 16.1348C14.725 16.1768 14.8297 16.1979 14.946 16.1979C15.0617 16.1979 15.167 16.1768 15.2622 16.1348C15.3574 16.0932 15.4379 16.0358 15.5047 15.9622C15.5716 15.8896 15.6226 15.8033 15.6589 15.7044C15.6947 15.6055 15.7131 15.5002 15.7131 15.3877ZM6.5628 15.6696H7.35725L6.96107 14.6737L6.5628 15.6696ZM23.2282 8.9832L22.3075 11.0524L21.3868 8.9832H20.6155L21.9218 11.9195L21.8861 11.9968L21.603 12.6355C21.6024 12.6371 21.602 12.6387 21.6014 12.6408C21.5167 12.8302 21.2931 12.9165 21.1037 12.8318L21.0027 12.7865L20.8048 13.23L20.7176 13.4268L20.7186 13.4273L20.9633 13.5368C21.4226 13.7414 21.9644 13.5331 22.1696 13.0722C22.1717 13.0685 23.8427 9.33412 24 8.9832H23.2282ZM16.799 7.54741H16.0924V12.2131H16.799V7.54741ZM19.0245 8.98214C18.6809 8.98214 18.3626 9.08999 18.1011 9.27308V7.54741H17.393V12.2131H18.1011V11.921C18.3626 12.1041 18.6809 12.212 19.0245 12.212C19.9147 12.212 20.6392 11.4881 20.6392 10.5973C20.6392 9.70662 19.9147 8.98214 19.0245 8.98214ZM14.0206 8.98214C13.1304 8.98214 12.4054 9.70608 12.4054 10.5968C12.4054 11.4875 13.1304 12.212 14.0206 12.212C14.9113 12.212 15.6357 11.4875 15.6357 10.5968C15.6357 9.70608 14.9113 8.98214 14.0206 8.98214ZM9.7169 7.54688H8.03332V12.2078H9.7169C11.0017 12.2078 12.0471 11.1618 12.0471 9.87706C12.0471 8.59175 11.0017 7.54688 9.7169 7.54688ZM6.62174 12.2072H5.93513C4.65298 12.2072 3.60811 11.1624 3.60811 9.88022C3.60811 8.59807 4.65298 7.55268 5.93513 7.55268H6.62174V12.2072ZM0 7.54688H0.68709C1.96872 7.54688 3.01414 8.59177 3.01414 9.87393C3.01414 11.1561 1.96872 12.2015 0.68709 12.2015H0V7.54688ZM19.0245 11.5649C18.5925 11.5649 18.2295 11.2839 18.1011 10.8978C18.069 10.8015 18.0506 10.6984 18.0506 10.591C18.0506 10.4837 18.069 10.3806 18.1011 10.2838C18.23 9.89547 18.5962 9.6177 19.0245 9.6177C19.559 9.6177 19.9983 10.057 19.9983 10.591C19.9983 11.1319 19.559 11.5649 19.0245 11.5649ZM14.0206 11.5649C13.4802 11.5649 13.0467 11.1256 13.0467 10.591C13.0467 10.0507 13.486 9.61716 14.0206 9.61716C14.5551 9.61716 14.9944 10.0565 14.9944 10.591C14.9944 11.1313 14.5551 11.5649 14.0206 11.5649ZM9.7169 11.5007H8.73988V8.25295H9.7169C10.6113 8.25295 11.3405 8.98266 11.3405 9.87706C11.3405 10.7715 10.6113 11.5007 9.7169 11.5007Z" fill="white"/>
</svg>
