<svg width="24" height="8" viewBox="0 0 24 8" fill="none" xmlns="http://www.w3.org/2000/svg">
<path d="M0.170892 1.78848C0.551048 1.37977 1.72799 1.11516 3.08617 1.21145C4.64327 1.28349 5.89271 1.78848 6.00145 2.36551V2.34126C6.01958 2.12491 6.00145 1.98082 6.00145 1.98082C5.9652 1.37977 4.62515 0.922818 2.99555 0.947059C1.63759 0.971073 0.496902 1.3075 0.134644 1.76446C0.134644 1.76446 0.152768 1.78848 0.170892 1.78848Z" fill="white"/>
<path d="M0.532979 2.07687C1.07625 1.81249 2.01781 1.66817 3.08623 1.74044C4.64333 1.81249 5.89276 2.31725 6.00151 2.87026C6.01963 2.6539 6.00151 2.50959 6.00151 2.50959C5.98338 1.90855 4.64333 1.45182 2.99561 1.47583C1.90929 1.49984 0.967734 1.7162 0.442585 2.02885C0.442585 2.02885 0.478833 2.05286 0.532979 2.07687Z" fill="white"/>
<path d="M1.221 2.38953C1.74615 2.26923 2.39817 2.2212 3.08621 2.26923C4.64331 2.34128 5.89275 2.84626 6.00149 3.39928C6.01962 3.18292 6.00149 3.03861 6.00149 3.03861C5.96524 2.43756 4.62518 1.98083 2.99559 2.00485C2.23505 2.00485 1.54701 2.12492 1.02186 2.29325C1.02186 2.29325 1.13061 2.34128 1.221 2.36552L1.221 2.38953Z" fill="white"/>
<path d="M0.0259399 1.45182C0.152809 0.898803 1.42037 0.442073 2.99559 0.418058C4.49854 0.394043 5.71173 0.77873 5.94712 1.28349C5.94712 1.28349 5.98337 1.35576 5.98337 1.40379C5.98337 1.40379 6.00149 1.49985 6.00149 1.81249V1.8365C5.89275 1.25947 4.64331 0.754715 3.08621 0.682445C1.51077 0.586387 0.207182 0.947059 0.0259399 1.45182Z" fill="white"/>
<path d="M5.87464 3.1587C5.51261 3.61543 4.37191 3.9761 3.03185 3.9761C1.38414 4.00057 0.0440771 3.54338 0.00805521 2.96658C0.00805521 2.96658 -0.010069 2.82227 0.00805521 2.58189C0.134698 3.13468 1.38414 3.6399 2.92334 3.73595C4.28129 3.808 5.45823 3.5674 5.85651 3.13468L5.87464 3.1587Z" fill="white"/>
<path d="M5.56698 2.8943C5.04183 3.23095 4.10028 3.44731 3.01373 3.44731C1.38414 3.47133 0.0440771 3.01459 0.00805521 2.43756C0.00805521 2.43756 -0.010069 2.29325 0.00805521 2.05288C0.134698 2.60589 1.38414 3.11065 2.92334 3.20694C3.99153 3.25497 4.93308 3.11065 5.47636 2.84627C5.47636 2.84627 5.53073 2.87028 5.56698 2.8943Z" fill="white"/>
<path d="M5.00557 2.62993C4.48042 2.79825 3.77426 2.91833 3.03185 2.91833C1.38413 2.94257 0.0440692 2.48561 0.00804734 1.90858C0.00804734 1.90858 0.00804734 1.76449 0.00804734 1.5239C0.13469 2.07691 1.38413 2.5819 2.92333 2.67795C3.62949 2.72598 4.26316 2.67795 4.78831 2.55788C4.78831 2.55788 4.8787 2.5819 4.98745 2.62993L5.00557 2.62993Z" fill="white"/>
<path d="M5.98338 3.47132C5.85651 4.04858 4.58917 4.48084 3.01372 4.50531C1.5289 4.52887 0.297582 4.16865 0.0621934 3.63988C0.0621934 3.63988 0.0440692 3.59185 0.025945 3.51935C0.025945 3.51935 0.00804734 3.44731 0.00804734 3.13466V3.11065C0.13469 3.66344 1.38413 4.16865 2.92333 4.26471C4.49855 4.36077 5.82048 3.97608 5.98338 3.47132Z" fill="white"/>
<path d="M8.33721 3.23093C8.35534 3.66342 8.55448 3.88 8.55448 3.88C8.68135 4.04856 8.91673 4.07212 8.91673 4.07212C9.0615 4.09659 9.26064 4.04856 9.26064 4.04856V2.34126C9.26064 2.34126 9.0615 2.31724 8.91673 2.34126C8.91673 2.34126 8.68135 2.3655 8.53635 2.55784C8.53635 2.55784 8.35534 2.79821 8.33721 3.1829V3.23093ZM10.8542 4.43279C10.0756 4.43279 9.45978 4.45726 9.45978 4.45726C8.69947 4.48082 8.33721 4.45726 8.33721 4.45726C7.54043 4.45726 6.87051 3.92803 6.85239 3.20691C6.83426 2.50959 7.39566 1.9568 8.22869 1.90854C8.22869 1.90854 8.60885 1.86051 9.26064 1.9568V0.514109L10.8542 0.490094V1.98081H11.6329V1.49984L13.1902 0.802737V1.98081H13.7511V2.38951C13.4435 2.38951 13.1902 2.38951 13.1902 2.38951V3.13464C13.1902 3.1829 13.1902 3.54335 13.2083 3.63986C13.2083 3.63986 13.2264 3.83197 13.3891 3.97606C13.3891 3.97606 13.4979 4.07212 13.7149 4.09659C13.7149 4.09659 13.7874 4.09659 13.9143 4.09659H14.2949C14.584 4.09659 14.6564 4.04856 14.6564 4.04856C14.7833 4.00053 14.8558 3.88 14.8558 3.75993C14.8558 3.66342 14.8014 3.56736 14.7471 3.51933V3.49532L14.3307 3.11063C14.2042 2.99056 14.1499 2.89427 14.1136 2.87026V2.84624C14.0593 2.7742 14.0411 2.67791 14.0411 2.58186C14.0411 2.3655 14.1499 2.19717 14.3125 2.10088H14.3307C14.4757 2.00483 15.2364 1.7162 16.6483 2.05286L16.6302 2.38951H16.5939C16.5939 2.38951 16.2323 2.3655 16.0692 2.38951C15.9605 2.41353 15.8699 2.48557 15.8699 2.60587C15.8699 2.67791 15.888 2.72594 15.9242 2.7742H15.9424L16.5033 3.32699C16.6121 3.44729 16.6845 3.59183 16.6845 3.78394C16.6845 4.04856 16.4856 4.31272 16.2323 4.38476C16.2323 4.38476 16.0692 4.45726 15.8155 4.48082C15.8155 4.48082 15.6886 4.48082 15.3447 4.48082H15.3266C14.0593 4.50529 12.7371 4.48082 12.7371 4.48082H12.7008C11.8683 4.45726 11.687 3.80796 11.687 3.80796C11.651 3.68789 11.6329 3.39926 11.6329 3.39926V2.38951H10.8542V4.43279Z" fill="white"/>
<path d="M19.7086 4.45729H20.7952V1.90857H19.7086V2.94256H19.2379V1.90857H18.1518V2.94256H16.8658V3.35126H18.1518V4.45729H19.2379V3.35126H19.7086V4.45729Z" fill="white"/>
<path d="M22.8776 3.18293C22.8776 2.99058 22.8595 2.87028 22.8595 2.87028C22.8414 2.62991 22.787 2.50961 22.787 2.50961C22.7508 2.41355 22.6964 2.38954 22.6964 2.38954C22.642 2.34128 22.5695 2.31727 22.5695 2.31727C22.5151 2.31727 22.4245 2.31727 22.4245 2.31727H22.3339V4.04858H22.4245C22.4245 4.04858 22.5151 4.04858 22.5695 4.02412C22.5695 4.02412 22.642 4.02412 22.6964 3.97609C22.6964 3.97609 22.7508 3.95207 22.787 3.85601C22.787 3.85601 22.8414 3.73594 22.8595 3.49534C22.8595 3.49534 22.8776 3.37527 22.8776 3.18293ZM24 3.18293C24 3.4233 23.9461 3.61542 23.9461 3.61542C23.8917 3.88003 23.7104 4.07215 23.7104 4.07215C23.5473 4.28873 23.2397 4.38479 23.2397 4.38479C23.0584 4.43282 22.8414 4.45729 22.8414 4.45729C22.6783 4.45729 22.4608 4.45729 22.4608 4.45729H21.2478V1.90857H22.4608C22.4608 1.90857 22.6783 1.90857 22.8414 1.90857C22.8414 1.90857 23.0584 1.93258 23.2397 1.98084C23.2397 1.98084 23.5473 2.0769 23.7104 2.29325C23.7104 2.29325 23.8917 2.4856 23.9461 2.74998C23.9461 2.74998 24 2.94255 24 3.15869V3.18293Z" fill="white"/>
<path d="M23.0947 1.04313V0.562385H22.932V0.51413H23.348V0.562385H23.1672V1.04313H23.0947Z" fill="white"/>
<path d="M23.4023 1.04313V0.51413H23.511L23.6379 0.874802C23.6379 0.922831 23.656 0.947072 23.656 0.947072C23.656 0.947072 23.6741 0.922831 23.6923 0.874802L23.801 0.51413H23.9098V1.04313H23.8373V0.5864L23.6741 1.04313H23.6198L23.4748 0.5864V1.04313H23.4023Z" fill="white"/>
<path d="M8.3735 7.55831V5.77942L7.8846 7.55831H7.61296L7.10594 5.77942V7.55831H6.9068V5.58731H7.28718L7.75796 7.31817L8.22873 5.58731H8.60889V7.55831H8.3735Z" fill="white"/>
<path d="M9.60481 6.86145H9.55044C9.33317 6.86145 9.11591 6.90948 9.11591 7.14962C9.11591 7.29371 9.17028 7.41424 9.31505 7.41424C9.53231 7.41424 9.60481 7.19765 9.60481 7.02955V6.86145ZM9.60481 7.55832V7.39022C9.51419 7.51029 9.42379 7.58234 9.24255 7.58234C9.00716 7.58234 8.89865 7.41423 8.89865 7.17364C8.89865 6.74092 9.24255 6.71691 9.60481 6.71691V6.66888C9.60481 6.50077 9.60481 6.3082 9.38755 6.3082C9.26068 6.3082 9.15216 6.38025 9.15216 6.52434H8.95302C8.95302 6.26018 9.15216 6.16366 9.38755 6.16366C9.71356 6.16366 9.80395 6.3082 9.80395 6.62085V7.12561C9.80395 7.27015 9.80395 7.41423 9.82207 7.55832H9.60481Z" fill="white"/>
<path d="M10.4739 7.58234C10.2204 7.58234 10.0756 7.46226 10.0575 7.24568C10.0575 7.22212 10.0575 7.17364 10.0575 7.14962H10.2747C10.2747 7.17364 10.2747 7.19765 10.2747 7.22212C10.2747 7.34174 10.3291 7.43825 10.4739 7.43825C10.6007 7.43825 10.6732 7.34174 10.6732 7.22212C10.6732 7.05356 10.5826 7.00553 10.4376 6.90948C10.2385 6.81342 10.0937 6.74092 10.0937 6.52434C10.0937 6.28419 10.2566 6.16366 10.492 6.16366C10.7274 6.16366 10.8542 6.26018 10.8724 6.45274C10.8905 6.50077 10.8905 6.52434 10.8905 6.57236H10.6732C10.6732 6.52434 10.6732 6.50077 10.6732 6.47631C10.6551 6.38025 10.6189 6.3082 10.4739 6.3082C10.3653 6.3082 10.2929 6.38025 10.2929 6.50077C10.2929 6.64486 10.4197 6.69289 10.5645 6.76494C10.7455 6.86145 10.8905 6.9575 10.8905 7.17364C10.8905 7.46226 10.7274 7.58234 10.4739 7.58234Z" fill="white"/>
<path d="M11.5241 7.58234C11.2706 7.58234 11.2162 7.46226 11.2162 7.22212V6.35623H11.0171V6.18813H11.2162V5.94753L11.4335 5.85147V6.18813H11.6689V6.35623H11.4335V7.19765C11.4335 7.3662 11.4698 7.39022 11.5785 7.39022C11.6148 7.39022 11.651 7.39022 11.687 7.39022V7.55832C11.6329 7.55832 11.5785 7.58234 11.5241 7.58234Z" fill="white"/>
<path d="M12.5382 6.59683C12.5201 6.45275 12.4657 6.3082 12.303 6.3082C12.1399 6.3082 12.0674 6.42828 12.0493 6.57236C12.0493 6.64486 12.0493 6.69289 12.0493 6.76494H12.5382C12.5382 6.69289 12.5382 6.64486 12.5382 6.59683ZM12.0493 6.90948V7.00553C12.0493 7.22212 12.0674 7.43825 12.303 7.43825C12.5019 7.43825 12.5382 7.29371 12.5382 7.12561H12.7552C12.7371 7.41423 12.6284 7.58234 12.303 7.58234C11.8683 7.58234 11.832 7.29371 11.832 6.93304C11.832 6.57236 11.8502 6.16366 12.303 6.16366C12.7552 6.16366 12.7552 6.50077 12.7552 6.83698V6.90948H12.0493Z" fill="white"/>
<path d="M13.5523 6.35623C13.3352 6.35623 13.2446 6.50077 13.2446 6.71691V7.55832H13.0271V6.45274C13.0271 6.38025 13.0271 6.26018 13.0271 6.18813H13.2265V6.38025C13.3171 6.23616 13.4254 6.16366 13.5885 6.16366H13.6062V6.38025C13.5885 6.35623 13.5704 6.35623 13.5523 6.35623Z" fill="white"/>
<path d="M14.9284 5.80344L14.6565 6.885H15.2183L14.9284 5.80344ZM15.4173 7.55831L15.2727 7.05356H14.6021L14.4576 7.55831H14.2224L14.8015 5.58731H15.0915L15.6524 7.55831H15.4173Z" fill="white"/>
<path d="M16.5214 7.55832V7.39022C16.4313 7.51029 16.3225 7.58234 16.178 7.58234C15.9061 7.58234 15.7974 7.41423 15.7974 7.14962V6.18813H16.0148V7.05356C16.0148 7.22212 16.0148 7.41423 16.2323 7.41423C16.4675 7.41423 16.5033 7.19765 16.5033 7.02955V6.18813H16.7208V7.24568C16.7208 7.36621 16.7208 7.46226 16.7389 7.55832H16.5214Z" fill="white"/>
<path d="M17.4811 6.3082C17.2278 6.3082 17.2278 6.62084 17.2278 6.86144C17.2278 7.17363 17.2459 7.41423 17.4634 7.41423C17.7167 7.41423 17.7348 7.14961 17.7348 6.885C17.7348 6.59683 17.7167 6.3082 17.4811 6.3082ZM17.753 7.55831V7.39021C17.6623 7.5343 17.5717 7.58233 17.4272 7.58233C17.0289 7.58233 16.9926 7.19764 16.9926 6.86144C16.9926 6.52433 17.047 6.16366 17.4272 6.16366C17.5717 6.16366 17.6623 6.21214 17.7348 6.33221V5.58731H17.9523V7.2937C17.9523 7.3662 17.9523 7.48627 17.9523 7.55831H17.753Z" fill="white"/>
<path d="M18.2781 6.18815H18.4952V7.55834H18.2781V6.18815ZM18.2781 5.63536H18.5133V5.85149H18.2781V5.63536Z" fill="white"/>
<path d="M19.5092 6.81342C19.5092 6.59683 19.5092 6.3082 19.2559 6.3082C18.9845 6.3082 19.0026 6.62085 19.0026 6.81342V7.00553C19.0026 7.19765 19.0026 7.43825 19.2559 7.43825C19.4911 7.43825 19.5092 7.19765 19.5092 7.00553V6.81342ZM19.2559 7.58234C18.8214 7.58234 18.7851 7.29371 18.7851 6.88501C18.7851 6.50077 18.8214 6.16366 19.2559 6.16366C19.6904 6.16366 19.7267 6.45275 19.7267 6.86145C19.7267 7.31818 19.6542 7.58234 19.2559 7.58234Z" fill="white"/>
</svg>
