<svg width="23" height="10" viewBox="0 0 23 10" fill="none" xmlns="http://www.w3.org/2000/svg">
<path d="M2.81998 9.16442C2.62141 9.14284 2.22026 9.06464 2.17222 9.03815C2.15721 9.02987 2.0806 9.00344 2.00198 8.97941C1.92335 8.95539 1.84958 8.9265 1.83803 8.91523C1.82649 8.90395 1.80752 8.89473 1.79588 8.89473C1.75539 8.89473 1.38969 8.68963 1.31559 8.62537C1.30499 8.61617 1.27277 8.59261 1.24398 8.573C1.13257 8.49709 0.823455 8.1947 0.760217 8.09975C0.735573 8.06275 0.696329 8.00312 0.673009 7.96724C0.649688 7.93136 0.624159 7.89474 0.616277 7.88586C0.590933 7.85729 0.474513 7.60304 0.445483 7.51286C0.430016 7.46481 0.411908 7.41836 0.405243 7.40962C0.398577 7.40088 0.379952 7.33298 0.363854 7.25873C0.322023 7.06578 0.321677 6.53065 0.363257 6.33764C0.379235 6.26348 0.397104 6.19915 0.402966 6.19469C0.408827 6.19023 0.43088 6.13656 0.451972 6.0754C0.473063 6.01425 0.50597 5.9392 0.525098 5.90863C0.544226 5.87805 0.564676 5.8379 0.570543 5.81939C0.57641 5.80089 0.595324 5.77298 0.612572 5.75737C0.629821 5.74176 0.643934 5.72196 0.643934 5.71338C0.643934 5.68664 0.773164 5.53189 0.909205 5.39573C1.06803 5.23675 1.12277 5.18881 1.19768 5.14311C1.22945 5.12372 1.2579 5.10198 1.26091 5.09479C1.26391 5.0876 1.30143 5.06394 1.34429 5.04222C1.38716 5.0205 1.42223 4.99714 1.42223 4.99031C1.42223 4.98347 1.44657 4.96908 1.47632 4.95832C1.50607 4.94756 1.55431 4.9226 1.58353 4.90285C1.61275 4.8831 1.68133 4.85028 1.73593 4.82992C1.79053 4.80956 1.83523 4.78842 1.83528 4.78293C1.83532 4.77744 1.89072 4.75585 1.95837 4.73493C2.02603 4.71402 2.09569 4.68828 2.11316 4.67772C2.13063 4.66717 2.2164 4.64161 2.30376 4.62091C2.39112 4.60022 2.46617 4.57865 2.47054 4.57298C2.48162 4.5586 2.74609 4.5158 2.95499 4.49457C3.05108 4.48481 3.15472 4.46974 3.1853 4.4611C3.25342 4.44183 3.72617 4.45257 3.92388 4.47787C4.09821 4.50018 4.36888 4.55426 4.40539 4.57408C4.42011 4.58206 4.47147 4.60069 4.51951 4.61547C4.56756 4.63025 4.64059 4.65922 4.68179 4.67985C4.723 4.70048 4.76767 4.71736 4.78106 4.71736C4.80279 4.71736 4.80542 4.53351 4.80542 3.00988V1.30241H8.33156V2.88152C8.33156 3.75003 8.3359 4.47193 8.3412 4.48575C8.34975 4.50803 8.41644 4.51088 8.92889 4.51088H9.50694V3.4862L9.59033 3.44819C9.63619 3.42727 9.75234 3.3752 9.84843 3.33246C9.94453 3.28972 10.0553 3.23808 10.0946 3.21769C10.1339 3.1973 10.1947 3.17168 10.2296 3.16075C10.2646 3.14982 10.3044 3.13112 10.3181 3.11919C10.3318 3.10726 10.3838 3.08347 10.4337 3.06631C10.4835 3.04916 10.5354 3.02409 10.5489 3.01059C10.5624 2.9971 10.5844 2.98606 10.5978 2.98606C10.6112 2.98606 10.6661 2.96545 10.7198 2.94025C11.0178 2.80036 11.0709 2.77621 11.1437 2.74752C11.1875 2.73024 11.2392 2.70628 11.2586 2.69427C11.278 2.68227 11.3314 2.6594 11.3772 2.64346C11.4231 2.62751 11.4606 2.60968 11.4606 2.60384C11.4606 2.598 11.5142 2.57367 11.5797 2.54978C11.6453 2.52588 11.6989 2.50068 11.6989 2.49378C11.6989 2.48688 11.7185 2.47633 11.7425 2.47034C11.7666 2.46436 11.8453 2.43142 11.9176 2.39715C11.9898 2.36288 12.0522 2.33483 12.0562 2.33483C12.0629 2.33483 12.208 2.2687 12.4216 2.16836C12.4652 2.14784 12.5278 2.12186 12.5605 2.11063C12.5933 2.09939 12.6201 2.08507 12.6201 2.0788C12.6201 2.07253 12.6667 2.05191 12.7236 2.03297C12.7805 2.01403 12.8359 1.98973 12.8467 1.97898C12.8662 1.95951 12.9604 1.92186 12.9896 1.92186C12.9995 1.92186 13.0007 2.38662 12.9931 3.21637L12.9813 4.51088H13.9226V5.28869L12.9934 5.29711L12.9853 8.12242L13.0257 8.18083C13.048 8.21295 13.0927 8.2527 13.1251 8.26917C13.1575 8.28563 13.1882 8.3048 13.1933 8.31177C13.2094 8.33357 13.371 8.37019 13.452 8.37038C13.5515 8.37063 13.8615 8.32475 13.8835 8.30654C13.8927 8.29887 13.9785 8.28391 14.0742 8.2733C14.282 8.25026 14.6934 8.2737 14.7723 8.31308C14.8294 8.34158 15.1198 8.40234 15.1988 8.40234C15.2296 8.40234 15.2593 8.40949 15.2647 8.41822C15.2768 8.43783 15.7492 8.43996 15.7492 8.42041C15.7492 8.41288 15.7868 8.40229 15.8328 8.39688C16.0069 8.37642 16.1609 8.28994 16.2172 8.18092C16.2587 8.1007 16.2794 7.93045 16.2588 7.83855C16.2353 7.73314 16.1311 7.58827 16.0084 7.49018C15.9575 7.44953 15.8883 7.39334 15.8545 7.3653C15.8208 7.33726 15.785 7.3093 15.7751 7.30317C15.7652 7.29705 15.7428 7.2807 15.7253 7.26684C15.7079 7.25299 15.6257 7.18822 15.5427 7.12291C15.2758 6.91291 15.2499 6.89232 15.1869 6.84082C15.1285 6.79306 14.7921 6.46187 14.7321 6.39307C14.7169 6.3756 14.6927 6.33808 14.6784 6.30969C14.6641 6.28129 14.6463 6.25806 14.6388 6.25806C14.6313 6.25806 14.6213 6.24556 14.6166 6.23027C14.6119 6.21498 14.5861 6.14529 14.5592 6.0754C14.4917 5.89967 14.4909 5.74634 14.5566 5.57031C14.5821 5.50218 14.616 5.42802 14.632 5.40552C14.648 5.38302 14.6722 5.34808 14.6857 5.32789C14.7298 5.26208 14.9145 5.09208 15.0113 5.02822C15.273 4.85559 15.6045 4.71699 15.9795 4.62341C16.0756 4.59944 16.1649 4.57552 16.178 4.57027C16.2156 4.5552 16.4869 4.51405 16.6783 4.49436C16.7744 4.48448 16.8645 4.47047 16.8785 4.46323C16.9313 4.43586 17.6446 4.41093 18.0523 4.42221C18.4477 4.43315 18.5962 4.44394 18.8226 4.47816C18.8838 4.48741 19.0408 4.50984 19.1717 4.52802C19.3025 4.54619 19.4168 4.56586 19.4258 4.57171C19.4347 4.57756 19.5314 4.60158 19.6406 4.62508C19.8214 4.66398 20.1152 4.74121 20.1253 4.75247C20.1275 4.755 20.115 4.83306 20.0975 4.92594L20.0657 5.09482L19.6665 5.10339C19.2303 5.11277 19.0883 5.13254 18.951 5.20297C18.8376 5.26119 18.7685 5.3398 18.7515 5.42992C18.7373 5.50512 18.7578 5.65449 18.7823 5.65449C18.7893 5.65449 18.8036 5.67533 18.8141 5.70081C18.8338 5.7483 19.0151 5.94266 19.1191 6.02778C19.1511 6.05397 19.2011 6.09501 19.2302 6.11896C19.2594 6.14292 19.319 6.19188 19.3627 6.22777C19.4063 6.26366 19.4564 6.30493 19.4738 6.31949C19.4913 6.33405 19.5338 6.36728 19.5682 6.39334C19.6026 6.4194 19.648 6.45606 19.6691 6.47481C19.6902 6.49356 19.7308 6.5284 19.7594 6.55223C19.8371 6.61704 20.1833 6.96067 20.2245 7.01386C20.3623 7.19199 20.4348 7.36725 20.4348 7.5223C20.4348 7.77873 20.2967 8.07825 20.0824 8.28672C19.9973 8.36941 19.9246 8.43411 19.9167 8.43411C19.9079 8.43411 19.8108 8.5014 19.7995 8.51536C19.7951 8.52074 19.7594 8.54133 19.72 8.56112C19.6807 8.5809 19.6294 8.6106 19.6059 8.62712C19.5825 8.64363 19.5327 8.66793 19.4954 8.6811C19.4581 8.69428 19.4236 8.71086 19.4189 8.71794C19.4142 8.72503 19.3548 8.74986 19.2869 8.77313C19.219 8.79639 19.1511 8.82235 19.136 8.8308C19.1005 8.85066 18.8906 8.91061 18.8566 8.91061C18.8423 8.91061 18.8306 8.91658 18.8306 8.92387C18.8306 8.93116 18.7287 8.95664 18.6042 8.98048C18.4797 9.00432 18.3636 9.03017 18.3461 9.03792C18.3286 9.04567 18.225 9.06337 18.1158 9.07725C17.4453 9.1625 16.8651 9.19358 16.4123 9.16853C16.0177 9.1467 15.4825 9.07813 15.3918 9.03778C15.3743 9.03 15.2742 9.00434 15.1694 8.98075C15.0646 8.95716 14.9749 8.93182 14.9701 8.92443C14.9652 8.91705 14.8723 8.89587 14.7636 8.87736C14.5884 8.84756 14.5223 8.84458 14.1846 8.85125C13.8208 8.85844 13.5493 8.8879 13.5025 8.92525C13.4836 8.94037 13.1445 8.99905 12.9815 9.01542C12.9225 9.02134 12.8742 9.03112 12.8742 9.03715C12.8742 9.05326 12.4525 9.08458 12.0063 9.10162C11.5076 9.12066 10.9544 9.09077 10.8332 9.03825C10.8157 9.03067 10.734 9.00915 10.6516 8.99042C10.5691 8.97168 10.4726 8.94345 10.4371 8.92768C10.4016 8.91191 10.3369 8.8859 10.2932 8.86989C10.2495 8.85387 10.2102 8.83683 10.2058 8.83201C10.2014 8.82719 10.1532 8.80228 10.0986 8.77665C10.044 8.75102 9.99933 8.72404 9.99933 8.7167C9.99933 8.70935 9.98325 8.69699 9.96359 8.68922C9.91957 8.67184 9.77008 8.54358 9.69402 8.45793C9.66298 8.42299 9.61188 8.3505 9.58045 8.29684C9.47187 8.11146 9.47517 8.16273 9.47517 6.66146C9.47517 5.44235 9.47269 5.3075 9.45005 5.29881C9.43623 5.29351 9.19022 5.28917 8.90336 5.28917C8.61651 5.28917 8.3705 5.29351 8.35668 5.29881C8.33396 5.30753 8.33156 5.49093 8.33156 7.21277V9.1171H4.80542V8.98209C4.80542 8.85561 4.80331 8.84708 4.77212 8.84708C4.75381 8.84708 4.68768 8.87135 4.62516 8.90102C4.56265 8.93069 4.4579 8.97111 4.39241 8.99084C4.32691 9.01058 4.26974 9.03146 4.26538 9.03723C4.25474 9.0513 4.02812 9.09644 3.8127 9.1274C3.49034 9.17374 3.05509 9.18996 2.81998 9.16442ZM4.80542 5.47977H4.77213C4.75382 5.47977 4.71987 5.48988 4.69668 5.50224C4.67349 5.5146 4.61342 5.54045 4.56319 5.55968C4.51296 5.57891 4.47186 5.60096 4.47186 5.60868C4.47186 5.61641 4.46422 5.62272 4.45487 5.62272C4.42589 5.62272 4.30748 5.71121 4.20683 5.80809C4.10906 5.90221 3.97577 6.083 3.95491 6.14981C3.94859 6.17004 3.93768 6.19031 3.93067 6.19486C3.91871 6.20261 3.85295 6.40985 3.81736 6.55191C3.7966 6.6348 3.79681 7.02614 3.81766 7.10783C3.86163 7.28007 3.91572 7.45539 3.92749 7.46378C3.93472 7.46893 3.95445 7.50532 3.97132 7.54463C3.98819 7.58394 4.01658 7.6363 4.03441 7.66099C4.09604 7.74631 4.27354 7.92967 4.33486 7.97136C4.51657 8.09488 4.68685 8.17612 4.76968 8.17881L4.80542 8.17997L4.80542 5.47977Z" fill="white" fill-opacity="0.996078"/>
<path d="M22.2629 1.07199C22.2245 1.05999 22.1887 1.0435 22.1835 1.03534C22.1783 1.02718 22.1521 1.00709 22.1252 0.990705C22.0383 0.937678 21.9279 0.778493 21.9279 0.706235C21.9279 0.693427 21.9207 0.682949 21.912 0.682949C21.8927 0.682949 21.8903 0.457614 21.9093 0.43596C21.9166 0.427661 21.9356 0.385133 21.9515 0.341453C21.9924 0.229304 22.1389 0.0886967 22.2489 0.0560052C22.2939 0.0426506 22.3509 0.0317241 22.3755 0.0317241C22.4006 0.0317241 22.4203 0.0229995 22.4205 0.0118697C22.4207 -0.00182413 22.4243 -0.00257734 22.4324 0.00944227C22.4388 0.0190271 22.4816 0.0311978 22.5274 0.0364882C22.5733 0.0417787 22.6412 0.0599748 22.6783 0.0769241C22.7615 0.114904 22.868 0.218572 22.9053 0.297905C22.9206 0.330592 22.9411 0.362432 22.9507 0.368659C22.9616 0.375708 22.9682 0.442122 22.9682 0.544614C22.9682 0.695735 22.9645 0.716314 22.9223 0.795369C22.897 0.842737 22.8613 0.898287 22.8429 0.918813C22.7919 0.975587 22.6582 1.05903 22.587 1.07843C22.5015 1.10173 22.3486 1.09869 22.2629 1.07199ZM22.608 0.976178C22.6532 0.962736 22.6903 0.946014 22.6903 0.939019C22.6903 0.932024 22.7073 0.91856 22.728 0.9091C22.7711 0.889476 22.8508 0.778316 22.8782 0.699577C22.9103 0.607698 22.8888 0.349395 22.8491 0.349395C22.8425 0.349395 22.8285 0.3287 22.818 0.303408C22.7742 0.197584 22.6062 0.111142 22.4444 0.111142C22.2553 0.111142 22.112 0.197615 22.0493 0.349525C22.0331 0.388765 22.0135 0.433282 22.0056 0.448451C21.988 0.482497 21.9866 0.667065 22.004 0.667065C22.0109 0.667065 22.025 0.698728 22.0354 0.737428C22.0536 0.805556 22.1259 0.893072 22.2102 0.949034C22.2908 1.00259 22.4764 1.01525 22.608 0.976178Z" fill="white" fill-opacity="0.996078"/>
<path d="M22.2455 0.301744H22.405C22.5644 0.301744 22.5716 0.303776 22.6438 0.369248C22.6859 0.407531 22.6821 0.470185 22.6347 0.517615C22.5868 0.565486 22.5865 0.568677 22.6266 0.611347C22.644 0.629877 22.6629 0.678584 22.6685 0.719585C22.6787 0.794131 22.6787 0.794133 22.6309 0.794133C22.5858 0.794133 22.5826 0.789936 22.5729 0.71639C22.5601 0.620098 22.5367 0.599958 22.4272 0.590878L22.3408 0.583713V0.794133H22.2455V0.301744ZM22.5761 0.465369C22.5788 0.446164 22.5732 0.415787 22.5636 0.397864C22.5488 0.370163 22.5308 0.365278 22.4435 0.365278H22.3408V0.509621L22.456 0.504954C22.5608 0.500706 22.5716 0.497156 22.5761 0.465369Z" fill="white" fill-opacity="0.996078"/>
</svg>
