<svg width="24" height="14" viewBox="0 0 24 14" fill="none" xmlns="http://www.w3.org/2000/svg">
<path fill-rule="evenodd" clip-rule="evenodd" d="M16.614 8.7C16.214 9.1 15.6473 9.3 14.914 9.3H13.924V4.69H14.914C15.6473 4.69 16.214 4.89667 16.614 5.31C17.014 5.71667 17.214 6.28333 17.214 7.01C17.214 7.73667 17.014 8.3 16.614 8.7Z" fill="white"/>
<path fill-rule="evenodd" clip-rule="evenodd" d="M4 0H20C22.2091 0 24 1.79086 24 4V10C24 12.2091 22.2091 14 20 14H4C1.79086 14 0 12.2091 0 10V4C0 1.79086 1.79086 0 4 0ZM11.146 10.49V3.51H9.74602V6.38H6.75602V3.51H5.35602V10.49H6.75602V7.52H9.74602V10.49H11.146ZM16.894 3.94C16.3407 3.65333 15.6973 3.51 14.964 3.51H12.524V10.49H14.964C15.6973 10.49 16.3407 10.3467 16.894 10.06C17.454 9.77333 17.884 9.37 18.184 8.85C18.4907 8.32333 18.644 7.71 18.644 7.01C18.644 6.31 18.4907 5.69667 18.184 5.17C17.884 4.63667 17.454 4.22667 16.894 3.94Z" fill="white"/>
</svg>
