<svg width="24" height="18" viewBox="0 0 24 18" fill="none" xmlns="http://www.w3.org/2000/svg">
<path d="M15.795 5.952H14.5305V12.042H15.795C17.4705 12.042 18.228 11.0415 18.228 9.012C18.228 6.981 17.463 5.952 15.795 5.952Z" fill="white"/>
<path d="M3 0C2.20435 0 1.44129 0.31607 0.87868 0.87868C0.316071 1.44129 0 2.20435 0 3V15C0 15.7956 0.316071 16.5587 0.87868 17.1213C1.44129 17.6839 2.20435 18 3 18H21C21.7956 18 22.5587 17.6839 23.1213 17.1213C23.6839 16.5587 24 15.7956 24 15V3C24 2.20435 23.6839 1.44129 23.1213 0.87868C22.5587 0.31607 21.7956 0 21 0H3ZM11.094 4.5015V13.5H9.3135V9.645H5.5305V13.5H3.75V4.5015H5.5305V8.1615H9.3135V4.5L11.094 4.5015ZM12.75 13.5V4.5015H16.032C18.768 4.5015 20.0595 6.1365 20.0595 8.9775C20.0595 11.8395 18.75 13.5 16.035 13.5H12.75Z" fill="white"/>
</svg>
