<svg width="24" height="16" viewBox="0 0 24 16" fill="none" xmlns="http://www.w3.org/2000/svg">
<path fill-rule="evenodd" clip-rule="evenodd" d="M0 2.79981C0 1.69524 0.895431 0.799805 2 0.799805H22C23.1046 0.799805 24 1.69524 24 2.7998V13.1998C24 14.3044 23.1046 15.1998 22 15.1998H2C0.89543 15.1998 0 14.3044 0 13.1998V2.79981ZM10.464 3.9998H8.904V7.4678H4.56V3.9998H3V12.3998H4.56V8.7998H8.904V12.3998H10.464V3.9998ZM12.7148 3.9998V12.3998H16.3868C17.2988 12.3998 18.0988 12.2238 18.7868 11.8718C19.4748 11.5198 20.0108 11.0318 20.3948 10.4078C20.7788 9.7758 20.9708 9.0398 20.9708 8.1998C20.9708 7.3518 20.7788 6.6158 20.3948 5.9918C20.0108 5.3678 19.4748 4.8798 18.7868 4.5278C18.0988 4.1758 17.2988 3.9998 16.3868 3.9998H12.7148ZM14.2748 11.0798H16.3148C16.9468 11.0798 17.4908 10.9598 17.9468 10.7198C18.4108 10.4798 18.7668 10.1438 19.0148 9.71181C19.2708 9.27981 19.3988 8.7758 19.3988 8.1998C19.3988 7.6158 19.2708 7.11181 19.0148 6.68781C18.7668 6.25581 18.4108 5.9198 17.9468 5.6798C17.4908 5.4398 16.9468 5.3198 16.3148 5.3198H14.2748V11.0798Z" fill="white"/>
</svg>
