<svg width="40" height="14" viewBox="0 0 40 14" fill="none" xmlns="http://www.w3.org/2000/svg">
<path fill-rule="evenodd" clip-rule="evenodd" d="M4 0C1.79086 0 0 1.79086 0 4V10C0 12.2091 1.79086 14 4 14H36C38.2091 14 40 12.2091 40 10V4C40 1.79086 38.2091 0 36 0H4ZM21.76 3.94C21.2067 3.65333 20.5633 3.51 19.83 3.51H17.39V10.49H19.83C20.5633 10.49 21.2067 10.3467 21.76 10.06C22.32 9.77333 22.75 9.37 23.05 8.85C23.3567 8.32333 23.51 7.71 23.51 7.01C23.51 6.31 23.3567 5.69667 23.05 5.17C22.75 4.63667 22.32 4.22667 21.76 3.94ZM19.78 9.3C20.5133 9.3 21.08 9.1 21.48 8.7C21.88 8.3 22.08 7.73667 22.08 7.01C22.08 6.28333 21.88 5.71667 21.48 5.31C21.08 4.89667 20.5133 4.69 19.78 4.69H18.79V9.3H19.78ZM28.158 10.49L26.618 7.77H25.958V10.49H24.558V3.51H27.178C27.718 3.51 28.178 3.60667 28.558 3.8C28.938 3.98667 29.2213 4.24333 29.408 4.57C29.6013 4.89 29.698 5.25 29.698 5.65C29.698 6.11 29.5646 6.52667 29.298 6.9C29.0313 7.26667 28.6346 7.52 28.108 7.66L29.778 10.49H28.158ZM27.128 6.72H25.958V4.67H27.128C27.508 4.67 27.7913 4.76 27.978 4.94C28.1646 5.11333 28.258 5.36 28.258 5.68C28.258 6.00667 28.1646 6.26333 27.978 6.45C27.7913 6.63 27.508 6.72 27.128 6.72ZM16.012 10.49V3.51H14.612V6.38H11.622V3.51H10.222V10.49H11.622V7.52H14.612V10.49H16.012Z" fill="white"/>
</svg>
