<svg width="38" height="14" viewBox="0 0 38 14" fill="none" xmlns="http://www.w3.org/2000/svg">
<path fill-rule="evenodd" clip-rule="evenodd" d="M4 0C1.79086 0 0 1.79086 0 4V10C0 12.2091 1.79086 14 4 14H34C36.2091 14 38 12.2091 38 10V4C38 1.79086 36.2091 0 34 0H4ZM8.79216 10.7164V3.73378H7.39164V6.60485H4.40052V3.73378H3V10.7164H4.40052V7.74528H7.39164V10.7164H8.79216ZM12.6116 3.73378C13.3452 3.73378 13.9887 3.87717 14.5423 4.16394C15.1025 4.45071 15.5327 4.86087 15.8328 5.3944C16.1395 5.92126 16.2929 6.53483 16.2929 7.23509C16.2929 7.93535 16.1395 8.54891 15.8328 9.07577C15.5327 9.59597 15.1025 9.99945 14.5423 10.2862C13.9887 10.573 13.3452 10.7164 12.6116 10.7164H10.1706V3.73378H12.6116ZM14.2622 8.92572C13.862 9.32587 13.2951 9.52594 12.5615 9.52594H11.5712V4.91422H12.5615C13.2951 4.91422 13.862 5.12096 14.2622 5.53445C14.6623 5.94127 14.8624 6.50815 14.8624 7.23509C14.8624 7.96203 14.6623 8.52557 14.2622 8.92572ZM19.4021 7.99537L20.9426 10.7164H22.5632L20.8926 7.88533C21.4195 7.74528 21.8163 7.49185 22.0831 7.12505C22.3498 6.75157 22.4832 6.33475 22.4832 5.87458C22.4832 5.47443 22.3865 5.11429 22.1931 4.79418C22.0064 4.46739 21.7229 4.21062 21.3428 4.02389C20.9626 3.83048 20.5025 3.73378 19.9623 3.73378H17.3413V10.7164H18.7418V7.99537H19.4021ZM18.7418 6.94498H19.9123C20.2924 6.94498 20.5758 6.85495 20.7626 6.67488C20.9493 6.48814 21.0427 6.23138 21.0427 5.90459C21.0427 5.58447 20.9493 5.33771 20.7626 5.16431C20.5758 4.98425 20.2924 4.89421 19.9123 4.89421H18.7418V6.94498ZM25.8035 4.71415V3.42366H28.2144V10.7164H26.7739V4.71415H25.8035ZM30.2182 4.26398C29.8047 4.91755 29.598 5.82123 29.598 6.97499C29.598 8.13542 29.8047 9.04576 30.2182 9.70601C30.6384 10.3663 31.332 10.6964 32.299 10.6964C33.266 10.6964 33.9563 10.3663 34.3698 9.70601C34.7899 9.04576 35 8.13542 35 6.97499C35 5.82123 34.7899 4.91755 34.3698 4.26398C33.9563 3.6104 33.266 3.28361 32.299 3.28361C31.332 3.28361 30.6384 3.6104 30.2182 4.26398ZM33.6195 6.97499C33.6195 6.48147 33.5861 6.06798 33.5194 5.73453C33.4594 5.3944 33.3327 5.11763 33.1393 4.90422C32.9526 4.6908 32.6725 4.5841 32.299 4.5841C31.9255 4.5841 31.6421 4.6908 31.4487 4.90422C31.2619 5.11763 31.1352 5.3944 31.0685 5.73453C31.0085 6.06798 30.9785 6.48147 30.9785 6.97499C30.9785 7.48185 31.0085 7.90867 31.0685 8.25547C31.1286 8.5956 31.2553 8.87237 31.4487 9.08578C31.6421 9.29252 31.9255 9.3959 32.299 9.3959C32.6725 9.3959 32.9559 9.29252 33.1493 9.08578C33.3427 8.87237 33.4694 8.5956 33.5295 8.25547C33.5895 7.90867 33.6195 7.48185 33.6195 6.97499Z" fill="white"/>
</svg>
