<svg width="24" height="8" viewBox="0 0 24 8" fill="none" xmlns="http://www.w3.org/2000/svg">
<path fill-rule="evenodd" clip-rule="evenodd" d="M21.9696 7.34018H2.03044C0.985487 7.34018 0.484248 6.84743 0.246372 6.43965C0 6.00637 0 5.5731 0 5.55611V1.78407C0 0.0169911 2.01345 0 2.03044 0H21.9696C23.0145 0 23.5158 0.492743 23.7536 0.900531C24 1.33381 24 1.76708 24 1.78407V5.5646C24 6.48212 23.4393 6.92389 22.972 7.12779C22.4793 7.34018 21.9865 7.34018 21.9696 7.34018ZM2.57416 1.5292V3.16885H4.30726V1.5292H5.05487V5.62407H4.30726V3.81451H2.57416V5.61557H1.82655V1.5292H2.57416ZM6.97487 1.49522C6.5331 1.49522 6.11681 1.5292 5.78549 1.58018V5.61557C6.03186 5.64106 6.36319 5.66655 6.79646 5.66655C7.59504 5.66655 8.24071 5.47965 8.6485 5.10584C9.03929 4.74903 9.28566 4.20531 9.28566 3.47469C9.28566 2.77805 9.03929 2.29381 8.6485 1.97097C8.26619 1.65664 7.73947 1.49522 6.97487 1.49522ZM6.94938 5.07186C7.91788 5.08035 8.49557 4.54513 8.49557 3.50867C8.49557 2.59965 7.97735 2.08142 7.04283 2.08142C6.80496 2.08142 6.63504 2.09841 6.5331 2.12389V5.05487C6.63504 5.07186 6.79646 5.07186 6.94938 5.07186ZM9.82088 1.58018C10.1012 1.5292 10.5175 1.49522 10.9508 1.49522C11.537 1.49522 11.9448 1.58867 12.2166 1.82655C12.4375 2.01345 12.565 2.3023 12.565 2.65062C12.565 3.17734 12.2081 3.53416 11.8258 3.67858V3.69558C12.1147 3.80602 12.2931 4.08637 12.395 4.48566C12.4124 4.55496 12.4294 4.62362 12.4461 4.69094C12.552 5.11878 12.6445 5.49194 12.7179 5.62407H11.9448C11.8853 5.50513 11.7834 5.16531 11.6729 4.65558C11.554 4.12035 11.3671 3.95044 10.9338 3.94195H10.56V5.62407H9.82088V1.58018ZM11.0018 3.38973H10.5685V2.09841C10.6365 2.08142 10.7894 2.06442 11.0273 2.06442C11.5115 2.06442 11.8258 2.26832 11.8258 2.71858C11.8258 3.12637 11.503 3.38973 11.0018 3.38973ZM15.1646 2.34478H15.1731L15.1816 5.62407H15.9037V1.67363H15.275L14.315 2.14938L14.4425 2.71009L15.1646 2.34478ZM19.4464 3.62761C19.4464 4.89345 18.9451 5.69204 18.0106 5.69204C17.1016 5.69204 16.6173 4.86796 16.6088 3.66159C16.6088 2.43823 17.1271 1.60566 18.0531 1.60566C18.9961 1.60566 19.4464 2.45522 19.4464 3.62761ZM18.0276 5.12283C17.6198 5.12283 17.348 4.62159 17.3565 3.66159C17.348 2.66761 17.6283 2.17487 18.0276 2.18336C18.4779 2.18336 18.6988 2.72708 18.6988 3.6446C18.6988 4.58761 18.4609 5.12283 18.0276 5.12283ZM21.4428 3.43221V2.40425H20.9841V3.43221H19.9986V3.87398H20.9841V4.91044H21.4428V3.87398H22.4283V3.43221H21.4428Z" fill="white"/>
</svg>
