<svg width="40" height="14" viewBox="0 0 40 14" fill="none" xmlns="http://www.w3.org/2000/svg">
<path fill-rule="evenodd" clip-rule="evenodd" d="M4 0C1.79086 0 0 1.79086 0 4V10C0 12.2091 1.79086 14 4 14H36C38.2091 14 40 12.2091 40 10V4C40 1.79086 38.2091 0 36 0H4ZM9.79216 10.7164V3.73378H8.39164V6.60485H5.40052V3.73378H4V10.7164H5.40052V7.74528H8.39164V10.7164H9.79216ZM13.6116 3.73378C14.3452 3.73378 14.9887 3.87717 15.5423 4.16394C16.1025 4.45071 16.5327 4.86087 16.8328 5.3944C17.1395 5.92126 17.2929 6.53483 17.2929 7.23509C17.2929 7.93535 17.1395 8.54891 16.8328 9.07578C16.5327 9.59597 16.1025 9.99945 15.5423 10.2862C14.9887 10.573 14.3452 10.7164 13.6116 10.7164H11.1706V3.73378H13.6116ZM15.2622 8.92572C14.862 9.32587 14.2951 9.52594 13.5615 9.52594H12.5712V4.91422H13.5615C14.2951 4.91422 14.862 5.12096 15.2622 5.53445C15.6623 5.94127 15.8624 6.50815 15.8624 7.23509C15.8624 7.96203 15.6623 8.52557 15.2622 8.92572ZM20.4021 7.99537L21.9426 10.7164H23.5632L21.8926 7.88533C22.4195 7.74528 22.8163 7.49185 23.0831 7.12505C23.3498 6.75157 23.4832 6.33475 23.4832 5.87458C23.4832 5.47443 23.3865 5.1143 23.1931 4.79418C23.0064 4.46739 22.7229 4.21062 22.3428 4.02389C21.9626 3.83048 21.5025 3.73378 20.9623 3.73378H18.3413V10.7164H19.7418V7.99537H20.4021ZM19.7418 6.94498H20.9123C21.2924 6.94498 21.5758 6.85495 21.7626 6.67488C21.9493 6.48814 22.0427 6.23138 22.0427 5.90459C22.0427 5.58447 21.9493 5.33771 21.7626 5.16431C21.5758 4.98425 21.2924 4.89421 20.9123 4.89421H19.7418V6.94498ZM26.8035 4.71415V3.42366H29.2144V10.7164H27.7739V4.71415H26.8035ZM31.2182 4.26398C30.8047 4.91755 30.598 5.82123 30.598 6.97499C30.598 8.13542 30.8047 9.04576 31.2182 9.70601C31.6384 10.3663 32.332 10.6964 33.299 10.6964C34.266 10.6964 34.9563 10.3663 35.3698 9.70601C35.7899 9.04576 36 8.13542 36 6.97499C36 5.82123 35.7899 4.91755 35.3698 4.26398C34.9563 3.6104 34.266 3.28361 33.299 3.28361C32.332 3.28361 31.6384 3.6104 31.2182 4.26398ZM34.6195 6.97499C34.6195 6.48147 34.5861 6.06799 34.5194 5.73453C34.4594 5.3944 34.3327 5.11763 34.1393 4.90422C33.9526 4.6908 33.6725 4.5841 33.299 4.5841C32.9255 4.5841 32.6421 4.6908 32.4487 4.90422C32.2619 5.11763 32.1352 5.3944 32.0685 5.73453C32.0085 6.06799 31.9785 6.48147 31.9785 6.97499C31.9785 7.48185 32.0085 7.90867 32.0685 8.25547C32.1286 8.5956 32.2553 8.87237 32.4487 9.08578C32.6421 9.29252 32.9255 9.3959 33.299 9.3959C33.6725 9.3959 33.9559 9.29252 34.1493 9.08578C34.3427 8.87237 34.4694 8.5956 34.5295 8.25547C34.5895 7.90867 34.6195 7.48185 34.6195 6.97499Z" fill="white"/>
</svg>
