<svg width="24" height="9" viewBox="0 0 24 9" fill="none" xmlns="http://www.w3.org/2000/svg">
<path d="M7.44068 5.74576C7.55932 5.76271 7.73729 5.76271 7.91525 5.76271C9.02542 5.77119 9.67797 5.16102 9.67797 3.97458C9.68644 2.94068 9.09322 2.35593 8.02542 2.35593C7.75424 2.35593 7.55932 2.37288 7.44068 2.40678V5.74576Z" fill="white"/>
<path d="M12.0339 3.85593H12.5424C13.1186 3.85593 13.4746 3.55085 13.4746 3.08475C13.4746 2.57627 13.1186 2.33898 12.5593 2.33898C12.2881 2.33898 12.1186 2.35593 12.0339 2.38136V3.85593Z" fill="white"/>
<path d="M19.7797 4.16102C19.7712 5.25424 20.0763 5.82203 20.5508 5.82203C21.0508 5.82203 21.3136 5.21186 21.3136 4.13559C21.3136 3.09322 21.0678 2.47458 20.5508 2.47458C20.0932 2.47458 19.7712 3.0339 19.7797 4.16102Z" fill="white"/>
<path fill-rule="evenodd" clip-rule="evenodd" d="M2.02542 8.36441H21.9661C21.9915 8.36441 22.4746 8.36441 22.9746 8.11017C23.4407 7.88136 24 7.38136 24 6.33051V2.0339C24 2.00847 23.9746 0 21.9661 0H2.0339C2.00847 0 1.51695 -1.49012e-08 1.02542 0.245763C0.559322 0.474576 0 0.974577 0 2.02542V6.33051C0 6.35593 -1.49012e-08 6.83898 0.245763 7.33898C0.474576 7.80508 0.974576 8.36441 2.02542 8.36441ZM2.9322 3.61017V1.73729H2.08475V6.40678H2.9322V4.34746H4.90678V6.40678H5.75424V1.73729H4.90678V3.61017H2.9322ZM6.59322 1.79661C6.9661 1.73729 7.44068 1.70339 7.94915 1.70339C8.82203 1.70339 9.42373 1.88136 9.85593 2.24576C10.3051 2.61017 10.5847 3.16949 10.5847 3.9661C10.5847 4.79661 10.3051 5.42373 9.85593 5.82203C9.38983 6.24576 8.65254 6.45763 7.74576 6.45763C7.24576 6.45763 6.87288 6.4322 6.59322 6.3983V1.79661ZM7.91525 5.76271C7.73729 5.76271 7.55932 5.76271 7.44068 5.74576V2.40678C7.55932 2.37288 7.75424 2.35593 8.02542 2.35593C9.09322 2.35593 9.68644 2.94068 9.67797 3.97458C9.67797 5.16102 9.02542 5.77119 7.91525 5.76271ZM12.4746 1.70339C11.983 1.70339 11.5085 1.73729 11.1864 1.79661H11.1695V6.3983H12.0169V4.48305H12.4492C12.9322 4.49153 13.1525 4.68644 13.2881 5.29661C13.4237 5.88136 13.5339 6.26271 13.6017 6.3983H14.483C14.3972 6.2267 14.2827 5.76075 14.1527 5.23172L14.1186 5.09322C14 4.64407 13.7966 4.32203 13.4661 4.19491V4.17797C13.9068 4.01695 14.3136 3.61017 14.3136 3.00847C14.3136 2.61864 14.1695 2.28814 13.9153 2.07627C13.6017 1.81356 13.1441 1.70339 12.4746 1.70339ZM12.0339 3.85593H12.5424C13.1186 3.85593 13.4746 3.55085 13.4746 3.08475C13.4746 2.57627 13.1186 2.33898 12.5593 2.33898C12.2881 2.33898 12.1186 2.35593 12.0339 2.38136V3.85593ZM17.2966 2.66949H17.2797L16.4576 3.08475L16.3136 2.44068L17.4068 1.89831H18.1186V6.39831H17.2966V2.66949ZM20.5169 6.48305C21.5932 6.48305 22.161 5.57627 22.161 4.12712C22.161 2.79661 21.6525 1.82203 20.5593 1.83051C19.5085 1.83051 18.9153 2.77119 18.9153 4.16949C18.9237 5.54237 19.4746 6.48305 20.5169 6.48305ZM19.7797 4.16102C19.7712 5.25424 20.0763 5.82203 20.5508 5.82203C21.0508 5.82203 21.3136 5.21186 21.3136 4.13559C21.3136 3.09322 21.0678 2.47458 20.5508 2.47458C20.0932 2.47458 19.7712 3.0339 19.7797 4.16102Z" fill="white"/>
</svg>
