<svg width="24" height="10" viewBox="0 0 24 10" fill="none" xmlns="http://www.w3.org/2000/svg">
<path fill-rule="evenodd" clip-rule="evenodd" d="M2.52632 0.579102C1.13107 0.579102 0 1.71017 0 3.10542V6.89489C0 8.29014 1.13107 9.42121 2.52632 9.42121H21.4737C22.8689 9.42121 24 8.29014 24 6.89489V3.10542C24 1.71017 22.8689 0.579102 21.4737 0.579102H2.52632ZM5.55295 7.34735V2.93728H4.6684V4.75059H2.77928V2.93728H1.89474V7.34735H2.77928V5.47086H4.6684V7.34735H5.55295ZM7.9652 2.93728C8.42853 2.93728 8.83499 3.02784 9.1846 3.20896C9.53841 3.39008 9.81009 3.64912 9.99964 3.98609C10.1934 4.31885 10.2903 4.70636 10.2903 5.14863C10.2903 5.5909 10.1934 5.97841 9.99964 6.31117C9.81009 6.63971 9.53841 6.89455 9.1846 7.07567C8.83499 7.25679 8.42853 7.34735 7.9652 7.34735H6.42357V2.93728H7.9652ZM9.00769 6.2164C8.75496 6.46912 8.39694 6.59549 7.9336 6.59549H7.30811V3.68282H7.9336C8.39694 3.68282 8.75496 3.81339 9.00769 4.07455C9.26042 4.33148 9.38678 4.68951 9.38678 5.14863C9.38678 5.60775 9.26042 5.96367 9.00769 6.2164ZM12.2539 5.62881L13.2269 7.34735H14.2505L13.1953 5.55931C13.5281 5.47086 13.7787 5.3108 13.9472 5.07913C14.1157 4.84325 14.1999 4.58 14.1999 4.28936C14.1999 4.03664 14.1388 3.80918 14.0167 3.607C13.8988 3.40061 13.7197 3.23844 13.4797 3.1205C13.2396 2.99835 12.9489 2.93728 12.6078 2.93728H10.9524V7.34735H11.8369V5.62881H12.2539ZM11.8369 4.9654H12.5762C12.8163 4.9654 12.9953 4.90854 13.1132 4.79481C13.2311 4.67688 13.2901 4.51471 13.2901 4.30832C13.2901 4.10614 13.2311 3.95029 13.1132 3.84077C12.9953 3.72705 12.8163 3.67018 12.5762 3.67018H11.8369V4.9654ZM16.297 3.55646V2.74142H17.8196V7.34735H16.9098V3.55646H16.297ZM19.0852 3.27214C18.824 3.68493 18.6935 4.25566 18.6935 4.98436C18.6935 5.71726 18.824 6.29222 19.0852 6.70921C19.3506 7.12621 19.7886 7.33471 20.3994 7.33471C21.0101 7.33471 21.4461 7.12621 21.7072 6.70921C21.9726 6.29222 22.1053 5.71726 22.1053 4.98436C22.1053 4.25566 21.9726 3.68493 21.7072 3.27214C21.4461 2.85935 21.0101 2.65296 20.3994 2.65296C19.7886 2.65296 19.3506 2.85935 19.0852 3.27214ZM21.2334 4.98436C21.2334 4.67266 21.2123 4.41151 21.1702 4.20091C21.1323 3.98609 21.0522 3.81129 20.9301 3.6765C20.8121 3.54171 20.6352 3.47432 20.3994 3.47432C20.1635 3.47432 19.9845 3.54171 19.8623 3.6765C19.7444 3.81129 19.6644 3.98609 19.6222 4.20091C19.5843 4.41151 19.5654 4.67266 19.5654 4.98436C19.5654 5.30448 19.5843 5.57405 19.6222 5.79308C19.6601 6.0079 19.7402 6.1827 19.8623 6.31749C19.9845 6.44806 20.1635 6.51335 20.3994 6.51335C20.6352 6.51335 20.8143 6.44806 20.9364 6.31749C21.0586 6.1827 21.1386 6.0079 21.1765 5.79308C21.2144 5.57405 21.2334 5.30448 21.2334 4.98436Z" fill="white"/>
</svg>
