<svg width="24" height="8" viewBox="0 0 24 8" fill="none" xmlns="http://www.w3.org/2000/svg">
<path fill-rule="evenodd" clip-rule="evenodd" d="M0.96 0.543945H23.04C23.5702 0.543945 24 0.973752 24 1.50395V6.49594C24 7.02614 23.5702 7.45595 23.04 7.45595H0.96C0.429807 7.45595 0 7.02614 0 6.49594V1.50395C0 0.973752 0.429807 0.543945 0.96 0.543945ZM4.35931 1.8272H5.13068V5.98069H4.35931V4.20062H2.21136V5.98069H1.44V1.8272H2.21136V3.542H4.35931V1.8272ZM6.24364 1.8272V5.98069H8.0593C8.51025 5.98069 8.90583 5.89367 9.24602 5.71962C9.58621 5.54556 9.85124 5.30427 10.0411 4.99572C10.231 4.68322 10.3259 4.31929 10.3259 3.90395C10.3259 3.48464 10.231 3.12072 10.0411 2.81217C9.85124 2.50362 9.58621 2.26233 9.24602 2.08828C8.90583 1.91422 8.51025 1.8272 8.0593 1.8272H6.24364ZM11.1458 5.98069V1.8272H12.8546C13.2225 1.8272 13.537 1.88653 13.7981 2.00521C14.0631 2.12388 14.2668 2.29397 14.4092 2.51549C14.5516 2.73701 14.6228 3.00007 14.6228 3.30466C14.6228 3.60925 14.5516 3.8723 14.4092 4.09382C14.2668 4.31138 14.0631 4.4795 13.7981 4.59817C13.7796 4.60631 13.7608 4.61416 13.7417 4.62172L14.694 5.98069H13.8633L13.0171 4.76635C12.9642 4.76895 12.91 4.77025 12.8546 4.77025H11.9171V5.98069H11.1458ZM16.6154 2.47396V1.8272H18.2649V5.98069H17.4936V2.47396H16.6154ZM19.9314 5.79082C20.1965 5.95696 20.4931 6.04003 20.8215 6.04003C21.1537 6.04003 21.4504 5.95696 21.7115 5.79082C21.9726 5.62468 22.1783 5.38338 22.3286 5.06692C22.4829 4.74651 22.56 4.35885 22.56 3.90395C22.56 3.44904 22.4829 3.06336 22.3286 2.7469C22.1783 2.42649 21.9726 2.18321 21.7115 2.01707C21.4504 1.85093 21.1537 1.76786 20.8215 1.76786C20.4931 1.76786 20.1965 1.85093 19.9314 2.01707C19.6704 2.18321 19.4647 2.42649 19.3143 2.7469C19.164 3.06336 19.0889 3.44904 19.0889 3.90395C19.0889 4.35885 19.164 4.74651 19.3143 5.06692C19.4647 5.38338 19.6704 5.62468 19.9314 5.79082Z" fill="white"/>
<path fill-rule="evenodd" clip-rule="evenodd" d="M11.9171 2.47989H12.819C13.1592 2.47989 13.4144 2.55109 13.5845 2.6935C13.7585 2.8359 13.8455 3.03962 13.8455 3.30466C13.8455 3.56573 13.7585 3.76945 13.5845 3.91581C13.4144 4.06217 13.1592 4.13535 12.819 4.13535H11.9171V2.47989ZM20.8215 5.36953C21.0153 5.36953 21.1834 5.31811 21.3258 5.21526C21.4682 5.10846 21.579 4.94627 21.6581 4.72871C21.7412 4.51115 21.7827 4.23622 21.7827 3.90395C21.7827 3.56771 21.7412 3.29279 21.6581 3.07918C21.579 2.86162 21.4682 2.70141 21.3258 2.59856C21.1834 2.49176 21.0153 2.43836 20.8215 2.43836C20.6356 2.43836 20.4694 2.49176 20.323 2.59856C20.1806 2.70141 20.0679 2.86162 19.9848 3.07918C19.9057 3.29279 19.8662 3.56771 19.8662 3.90395C19.8662 4.23622 19.9057 4.51115 19.9848 4.72871C20.0679 4.94627 20.1806 5.10846 20.323 5.21526C20.4694 5.31811 20.6356 5.36953 20.8215 5.36953Z" fill="white"/>
<path d="M7.015 5.328H8.0237C8.3362 5.328 8.60519 5.26866 8.83067 5.14999C9.0601 5.03132 9.23613 4.86518 9.35875 4.65157C9.48534 4.43797 9.54863 4.18876 9.54863 3.90395C9.54863 3.61518 9.48534 3.36597 9.35875 3.15632C9.23613 2.94271 9.0601 2.77657 8.83067 2.6579C8.60519 2.53923 8.3362 2.47989 8.0237 2.47989H7.015V5.328Z" fill="white"/>
</svg>
