<svg width="24" height="5" viewBox="0 0 24 5" fill="none" xmlns="http://www.w3.org/2000/svg">
<path fill-rule="evenodd" clip-rule="evenodd" d="M6.64824 4.54296L8.25216 1.26806H8.51304L8.5128 4.5468H9.79344V0.013752H7.48656L6.11952 2.72424L4.73952 0.017352L2.44296 0.024504L2.4396 4.5468H3.7176L3.71928 1.26806H3.9756L5.5788 4.54296H6.64824Z" fill="white"/>
<path fill-rule="evenodd" clip-rule="evenodd" d="M0 4.54656H1.43422V0.013752H0V4.54656Z" fill="white"/>
<path fill-rule="evenodd" clip-rule="evenodd" d="M12.3494 0.013752L10.0456 4.54687H11.5778L11.9787 3.77592H14.8417L15.2322 4.54687H16.7682L14.4631 0.013752H12.3494ZM13.4796 1.04419H13.3386L12.4664 2.76098H14.342L13.4796 1.04419Z" fill="white"/>
<path fill-rule="evenodd" clip-rule="evenodd" d="M18.7198 4.5468L20.1634 2.9088L21.5909 4.5468H23.4823L21.3492 2.13919L23.1355 0.013752H21.3871L20.1514 1.48651L18.9511 0.013752H17.171L18.9677 2.14123L16.8223 4.5468H18.7198Z" fill="white"/>
<path fill-rule="evenodd" clip-rule="evenodd" d="M24 0.345072C24 0.535608 23.8455 0.690288 23.655 0.690288C23.4644 0.690288 23.3098 0.535608 23.3098 0.345072C23.3098 0.1548 23.4646 0 23.655 0C23.8454 0 24 0.1548 24 0.345072ZM23.9407 0.345072C23.9407 0.187224 23.8128 0.05952 23.655 0.05952C23.4973 0.05952 23.3691 0.187344 23.3691 0.345072C23.3691 0.502968 23.4973 0.630768 23.655 0.630768C23.8128 0.630792 23.9407 0.502992 23.9407 0.345072ZM23.6812 0.215232H23.5803V0.34188H23.683C23.6956 0.34188 23.7053 0.340872 23.712 0.338808C23.7187 0.33684 23.7254 0.333336 23.7301 0.327528C23.7376 0.31896 23.7407 0.302112 23.7407 0.2766C23.7407 0.253032 23.738 0.236808 23.7322 0.228648C23.7278 0.222648 23.721 0.21924 23.713 0.217656C23.7049 0.216048 23.6942 0.215232 23.6812 0.215232ZM23.6938 0.153864C23.7423 0.153864 23.775 0.163344 23.7921 0.182256C23.8074 0.19908 23.8149 0.2268 23.8149 0.265008C23.8149 0.306648 23.8091 0.33372 23.7984 0.346848C23.7882 0.358848 23.7754 0.367104 23.7518 0.371352V0.372816C23.774 0.374976 23.788 0.38148 23.7984 0.395232C23.8083 0.408696 23.8118 0.430776 23.8118 0.458688V0.525216H23.7376V0.473256C23.7376 0.46032 23.737 0.449376 23.7358 0.440904C23.7345 0.432432 23.7312 0.425208 23.7262 0.419496C23.7211 0.413832 23.7149 0.410016 23.708 0.408336C23.701 0.406704 23.6917 0.405888 23.6802 0.405888H23.5803V0.525216H23.5084L23.5092 0.153888L23.6938 0.153864Z" fill="white"/>
</svg>
