<svg width="24" height="24" viewBox="0 0 24 24" fill="none" xmlns="http://www.w3.org/2000/svg">
<g clip-path="url(#clip0_1029_240)">
<path d="M13.7635 9.78027C13.9704 9.78027 14.1127 9.79963 14.1871 9.83982C14.2631 9.88002 14.31 9.94254 14.331 10.0289C14.352 10.1152 14.3633 10.3103 14.3633 10.6155V13.2327C14.3633 13.6823 14.331 13.9562 14.2679 14.0575C14.2049 14.1602 14.0367 14.2093 13.7635 14.2093V9.78027Z" fill="#F5C518"/>
<path d="M19.2771 13.6066V12.0072C19.2771 11.7429 19.2601 11.5694 19.2248 11.4896C19.1894 11.4098 19.0483 11.3585 18.9494 11.3585C18.8504 11.3585 18.6978 11.4002 18.6681 11.4704V14.1778C18.702 14.2549 18.8476 14.2978 18.9494 14.2978C19.0512 14.2978 19.1993 14.2563 19.2304 14.1778C19.2615 14.0993 19.2771 13.908 19.2771 13.6066Z" fill="#F5C518"/>
<path fill-rule="evenodd" clip-rule="evenodd" d="M1.5 0H22.5C23.3284 0 24 0.671573 24 1.5V22.5C24 23.3284 23.3284 24 22.5 24H1.5C0.671573 24 0 23.3284 0 22.5V1.5C0 0.671573 0.671573 0 1.5 0ZM3 8.625V15.375H4.875V8.625H3ZM8.87719 8.625L8.45756 11.7782L8.19683 10.0631C8.12123 9.51378 8.04872 9.03441 7.97929 8.625H5.625V15.375H7.21561L7.22178 10.9177L7.89135 15.375H9.02376L9.65939 10.8194L9.66402 15.375H11.25V8.625H8.87719ZM12 8.625V15.375H14.9267C15.5894 15.375 16.125 14.8417 16.125 14.1838V9.81623C16.125 9.15748 15.5885 8.625 14.9267 8.625H12ZM19.6612 10.3151H19.7811C20.4543 10.3151 21 10.8423 21 11.4918V14.1982C21 14.8481 20.4544 15.375 19.7811 15.375H19.6612C19.2493 15.375 18.8851 15.1776 18.6645 14.8756L18.5565 15.2883H16.875V8.625H18.6691V10.7927C18.9009 10.5038 19.2582 10.3151 19.6612 10.3151Z" fill="#F5C518"/>
<path d="M3 8.625V15.375H4.875V8.625H3Z" fill="black"/>
<path d="M8.87719 8.625L8.45756 11.7782L8.19683 10.0631C8.12123 9.51378 8.04872 9.03441 7.97929 8.625H5.625V15.375H7.21561L7.22178 10.9177L7.89135 15.375H9.02376L9.65939 10.8194L9.66402 15.375H11.25V8.625H8.87719Z" fill="black"/>
<path d="M12 15.375V8.625H14.9267C15.5885 8.625 16.125 9.15748 16.125 9.81623V14.1838C16.125 14.8417 15.5894 15.375 14.9267 15.375H12ZM14.1871 9.83982C14.1127 9.79963 13.9704 9.78027 13.7635 9.78027V14.2093C14.0367 14.2093 14.2049 14.1602 14.2679 14.0575C14.331 13.9562 14.3633 13.6823 14.3633 13.2327V10.6155C14.3633 10.3103 14.352 10.1152 14.331 10.0289C14.31 9.94255 14.2631 9.88002 14.1871 9.83982Z" fill="black"/>
<path d="M19.6612 10.3151H19.7811C20.4543 10.3151 21 10.8423 21 11.4918V14.1982C21 14.8481 20.4544 15.375 19.7811 15.375H19.6612C19.2493 15.375 18.8851 15.1776 18.6645 14.8756L18.5565 15.2883H16.875V8.625H18.6691V10.7927C18.9009 10.5038 19.2582 10.3151 19.6612 10.3151ZM19.2771 13.6066V12.0072C19.2771 11.7429 19.2601 11.5694 19.2248 11.4896C19.1894 11.4098 19.0483 11.3585 18.9494 11.3585C18.8504 11.3585 18.6978 11.4002 18.6681 11.4704V14.1778C18.702 14.2549 18.8476 14.2978 18.9494 14.2978C19.0512 14.2978 19.1993 14.2563 19.2304 14.1778C19.2615 14.0993 19.2771 13.908 19.2771 13.6066Z" fill="black"/>
</g>
<defs>
<clipPath id="clip0_1029_240">
<rect width="24" height="24" fill="white"/>
</clipPath>
</defs>
</svg>
