<svg width="39" height="14" viewBox="0 0 39 14" fill="none" xmlns="http://www.w3.org/2000/svg">
<path fill-rule="evenodd" clip-rule="evenodd" d="M4 0H34.69C36.8991 0 38.69 1.79086 38.69 4V10C38.69 12.2091 36.8991 14 34.69 14H4.00001C1.79087 14 0 12.2091 0 10V4C0 1.79086 1.79086 0 4 0ZM6.7 9.395H4.4V3.525H3V10.505H6.7V9.395ZM10.7798 8.075L13.1398 3.525H11.5798L10.0898 6.715L8.58984 3.525H7.00984L9.37984 8.075V10.505H10.7798V8.075ZM16.0073 7.785L17.5473 10.505H19.1673L17.4973 7.675C18.0239 7.535 18.4206 7.28167 18.6873 6.915C18.9539 6.54167 19.0873 6.125 19.0873 5.665C19.0873 5.265 18.9906 4.905 18.7973 4.585C18.6106 4.25833 18.3273 4.00167 17.9473 3.815C17.5673 3.62167 17.1073 3.525 16.5673 3.525H13.9473V10.505H15.3473V7.785H16.0073ZM21.7535 10.505V3.525H20.3535V10.505H21.7535ZM23.2567 5.165C22.9501 5.705 22.7967 6.31833 22.7967 7.005C22.7967 7.69167 22.9501 8.305 23.2567 8.845C23.5701 9.385 23.9934 9.80833 24.5267 10.115C25.0667 10.415 25.6701 10.565 26.3367 10.565C27.1234 10.565 27.8067 10.3683 28.3867 9.975C28.9734 9.575 29.3834 9.01833 29.6167 8.305H28.0067C27.8467 8.63833 27.6201 8.89167 27.3267 9.065C27.0401 9.23167 26.7067 9.315 26.3267 9.315C25.9201 9.315 25.5567 9.22167 25.2367 9.035C24.9234 8.84167 24.6767 8.57167 24.4967 8.225C24.3234 7.87167 24.2367 7.465 24.2367 7.005C24.2367 6.53833 24.3234 6.13167 24.4967 5.785C24.6767 5.43833 24.9234 5.17167 25.2367 4.985C25.5567 4.79167 25.9201 4.695 26.3267 4.695C26.7067 4.695 27.0401 4.77833 27.3267 4.945C27.6201 5.11167 27.8467 5.36167 28.0067 5.695H29.6167C29.3834 4.98833 28.9734 4.435 28.3867 4.035C27.8001 3.635 27.1167 3.435 26.3367 3.435C25.6701 3.435 25.0667 3.58833 24.5267 3.895C23.9934 4.195 23.5701 4.61833 23.2567 5.165ZM31.9025 10.325C32.2958 10.4917 32.7358 10.575 33.2225 10.575C33.7358 10.575 34.1792 10.4817 34.5525 10.295C34.9258 10.1017 35.2092 9.845 35.4025 9.525C35.5958 9.205 35.6925 8.85833 35.6925 8.485C35.6925 8.05167 35.5892 7.70167 35.3825 7.435C35.1758 7.16833 34.9292 6.96833 34.6425 6.835C34.3558 6.70167 33.9858 6.56833 33.5325 6.435C33.1992 6.335 32.9392 6.24833 32.7525 6.175C32.5725 6.095 32.4192 5.995 32.2925 5.875C32.1725 5.74833 32.1125 5.59167 32.1125 5.405C32.1125 5.13833 32.1925 4.935 32.3525 4.795C32.5192 4.655 32.7392 4.585 33.0125 4.585C33.3258 4.585 33.5758 4.665 33.7625 4.825C33.9558 4.97833 34.0592 5.175 34.0725 5.415H35.6125C35.5658 4.78833 35.3158 4.30167 34.8625 3.955C34.4158 3.60167 33.8325 3.425 33.1125 3.425C32.6325 3.425 32.2058 3.50833 31.8325 3.675C31.4592 3.835 31.1692 4.06833 30.9625 4.375C30.7558 4.68167 30.6525 5.04167 30.6525 5.455C30.6525 5.895 30.7525 6.24833 30.9525 6.515C31.1592 6.775 31.4025 6.97167 31.6825 7.105C31.9692 7.23167 32.3392 7.36167 32.7925 7.495C33.1258 7.58833 33.3858 7.675 33.5725 7.755C33.7658 7.82833 33.9258 7.93167 34.0525 8.065C34.1792 8.19833 34.2425 8.36833 34.2425 8.575C34.2425 8.82833 34.1492 9.035 33.9625 9.195C33.7758 9.34833 33.5192 9.425 33.1925 9.425C32.8725 9.425 32.6192 9.34167 32.4325 9.175C32.2525 9.00833 32.1525 8.78167 32.1325 8.495H30.6325C30.6392 8.92167 30.7558 9.29167 30.9825 9.605C31.2092 9.91833 31.5158 10.1583 31.9025 10.325Z" fill="white"/>
<path d="M15.3473 6.735H16.5173C16.8973 6.735 17.1806 6.645 17.3673 6.465C17.5539 6.27833 17.6473 6.02167 17.6473 5.695C17.6473 5.375 17.5539 5.12833 17.3673 4.955C17.1806 4.775 16.8973 4.685 16.5173 4.685H15.3473V6.735Z" fill="white"/>
</svg>
