<svg width="24" height="24" viewBox="0 0 24 24" fill="none" xmlns="http://www.w3.org/2000/svg">
<path d="M11.582 0L1.418 5.832V18.168L11.582 24V10.01L7.1 12.668V16.332C7.11 16.443 7.11 16.557 7.1 16.668C6.997 17.103 6.56 17.472 6.1 17.779C5.298 18.316 4.348 18.288 3.934 17.668C3.521 17.048 3.793 16.037 4.6 15.5C4.984 15.22 5.463 15.101 5.934 15.168V6.619C5.934 6.465 6.068 6.367 6.16 6.311L11.582 3V0ZM12.418 0V6.162C12.992 6.192 13.558 6.322 14.086 6.549C14.3968 6.55178 14.7047 6.48941 14.99 6.36592C15.2752 6.24243 15.5314 6.06055 15.742 5.832C15.6554 5.70835 15.5974 5.56704 15.572 5.41824C15.5467 5.26944 15.5547 5.11688 15.5955 4.97155C15.6362 4.82622 15.7087 4.69175 15.8078 4.57783C15.9068 4.46391 16.0298 4.37339 16.1681 4.3128C16.3063 4.25221 16.4563 4.22305 16.6072 4.22743C16.758 4.23181 16.9061 4.26962 17.0406 4.33813C17.1751 4.40665 17.2927 4.50416 17.3849 4.62363C17.4772 4.7431 17.5417 4.88155 17.574 5.029L17.578 5.035C17.6162 5.20913 17.6082 5.39022 17.5548 5.5603C17.5014 5.73038 17.4044 5.88353 17.2735 6.00453C17.1425 6.12554 16.9823 6.2102 16.8085 6.2501C16.6348 6.29 16.4536 6.28376 16.283 6.232C15.943 6.635 15.491 6.93 14.986 7.082C15.326 7.345 15.627 7.658 15.877 8.01C16.1424 7.94828 16.4214 7.99316 16.654 8.135C17.422 8.621 17.222 9.792 16.336 9.992C15.45 10.192 14.762 9.222 15.246 8.453C15.266 8.423 15.288 8.393 15.311 8.363C14.9421 7.85583 14.4471 7.45388 13.875 7.197C13.4159 6.98618 12.9221 6.86112 12.418 6.828V10.838C13.273 10.898 13.674 11.331 13.973 11.672C14.2 11.928 14.329 12.062 14.551 12.074C14.874 12.092 15.119 12.082 15.357 12.074C15.6554 12.0567 15.9548 12.0641 16.252 12.096C17.192 12.079 17.524 11.87 17.857 11.65C18.1906 11.4057 18.5789 11.2467 18.988 11.187C19.0154 11.0941 19.0558 11.0056 19.108 10.924C19.1391 10.8755 19.1743 10.8297 19.213 10.787C19.236 10.762 19.26 10.743 19.283 10.721C19.0778 9.93246 19.0778 9.10454 19.283 8.316L19.271 8.306C19.0967 8.14439 18.9843 7.92698 18.9532 7.69132C18.9221 7.45566 18.9744 7.21655 19.1008 7.01528C19.2273 6.81402 19.4201 6.66325 19.6459 6.58902C19.8717 6.51478 20.1164 6.52175 20.3376 6.6087C20.5588 6.69566 20.7427 6.85715 20.8576 7.06527C20.9724 7.2734 21.0109 7.5151 20.9665 7.74861C20.9221 7.98212 20.7975 8.19279 20.6143 8.34422C20.4311 8.49566 20.2007 8.57834 19.963 8.578H19.906C19.7674 9.19599 19.7674 9.83701 19.906 10.455H19.969C20.1271 10.4552 20.2829 10.4921 20.4243 10.5629C20.5656 10.6336 20.6886 10.7363 20.7835 10.8627C20.8784 10.9891 20.9426 11.1358 20.971 11.2913C20.9995 11.4468 20.9914 11.6067 20.9475 11.7586C20.9036 11.9104 20.8249 12.05 20.7178 12.1662C20.6107 12.2824 20.478 12.3722 20.3303 12.4284C20.1826 12.4846 20.0238 12.5056 19.8665 12.49C19.7092 12.4743 19.5577 12.4223 19.424 12.338L19.377 12.305C19.2196 12.1946 19.0974 12.0411 19.025 11.863C18.7294 11.9145 18.4503 12.0359 18.211 12.217C17.9936 12.3689 17.7573 12.4916 17.508 12.582C18.265 13.137 19.28 14.182 19.707 14.881C19.7906 14.8593 19.8766 14.8482 19.963 14.848C20.1215 14.8475 20.2779 14.8839 20.4199 14.9543C20.5619 15.0248 20.6855 15.1274 20.7809 15.254C20.8763 15.3805 20.9409 15.5276 20.9696 15.6835C20.9983 15.8393 20.9902 15.9998 20.9461 16.152C20.902 16.3042 20.823 16.4441 20.7154 16.5605C20.6078 16.6768 20.4745 16.7665 20.3262 16.8224C20.1779 16.8783 20.0186 16.8989 19.8609 16.8825C19.7033 16.8661 19.5516 16.8132 19.418 16.728L19.371 16.698C19.158 16.5471 19.0112 16.3201 18.9609 16.064C18.9107 15.8078 18.9608 15.5422 19.101 15.322C19.1165 15.297 19.1335 15.2729 19.152 15.25C18.707 14.475 17.126 12.97 16.692 12.863C16.2647 12.7527 15.8221 12.7131 15.382 12.746C15.142 12.754 14.869 12.764 14.516 12.746C14.001 12.719 13.733 12.413 13.473 12.117C13.213 11.821 12.963 11.557 12.418 11.506V18.5C12.5649 18.4721 12.7079 18.4268 12.844 18.365C12.8624 18.3542 12.8818 18.3451 12.902 18.338C13.462 18.071 14.323 17.428 14.998 15.891C14.7941 15.7405 14.6535 15.5196 14.6036 15.2711C14.5536 15.0227 14.598 14.7645 14.728 14.547C14.8183 14.3949 14.9466 14.2689 15.1004 14.1813C15.2541 14.0938 15.428 14.0477 15.6049 14.0477C15.7818 14.0477 15.9557 14.0937 16.1095 14.1811C16.2632 14.2686 16.3916 14.3946 16.482 14.5467C16.5723 14.6988 16.6216 14.8718 16.6249 15.0487C16.6282 15.2255 16.5854 15.4002 16.5008 15.5556C16.4162 15.711 16.2926 15.8416 16.1422 15.9348C15.9918 16.028 15.8198 16.0804 15.643 16.087C15.3183 16.8903 14.8307 17.6175 14.211 18.223C14.4605 18.2745 14.6961 18.3789 14.902 18.529C15.0049 18.6221 15.1342 18.6808 15.272 18.697C15.5769 18.6645 15.8757 18.5898 16.16 18.475C16.1327 18.2574 16.1764 18.0368 16.2844 17.8459C16.3924 17.655 16.5591 17.504 16.7597 17.4154C16.9603 17.3267 17.1841 17.305 17.398 17.3536C17.6119 17.4022 17.8044 17.5184 17.947 17.685V17.68C18.0736 17.828 18.1552 18.0092 18.1821 18.2022C18.209 18.3951 18.1801 18.5917 18.0988 18.7687C18.0175 18.9458 17.8872 19.0958 17.7233 19.2011C17.5594 19.3064 17.3688 19.3626 17.174 19.363C16.906 19.3653 16.6478 19.2623 16.455 19.076C16.0827 19.231 15.6887 19.3278 15.287 19.363H15.237C14.9784 19.3435 14.7313 19.2478 14.527 19.088C14.265 18.911 14.017 18.743 13.125 18.968C12.9029 19.0757 12.6636 19.1434 12.418 19.168V24L22.582 18.168V5.832L12.418 0ZM16.572 4.904C16.4979 4.90541 16.4262 4.93017 16.367 4.97474C16.3078 5.01931 16.2642 5.08142 16.2423 5.15223C16.2205 5.22304 16.2216 5.29893 16.2454 5.3691C16.2692 5.43926 16.3146 5.50012 16.375 5.543L16.393 5.553C16.556 5.653 16.771 5.606 16.877 5.445V5.443C16.9106 5.38938 16.9292 5.32769 16.9307 5.26442C16.9322 5.20115 16.9167 5.13865 16.8856 5.08348C16.8546 5.02831 16.8093 4.98252 16.7545 4.95094C16.6996 4.91935 16.6373 4.90314 16.574 4.904H16.572ZM11.582 6.832L7.082 9.5V11.5L11.582 8.832V6.832ZM19.967 7.212C19.9079 7.21254 19.85 7.22794 19.7984 7.25677C19.7468 7.28561 19.7034 7.32695 19.672 7.377V7.379C19.6242 7.4551 19.6076 7.54664 19.6254 7.63469C19.6433 7.72274 19.6943 7.80055 19.768 7.852L19.781 7.862C19.8602 7.91114 19.9555 7.92735 20.0465 7.90717C20.1375 7.88699 20.217 7.83202 20.268 7.754C20.3021 7.7005 20.321 7.63878 20.3229 7.57539C20.3248 7.51199 20.3095 7.44926 20.2787 7.39384C20.2478 7.33841 20.2026 7.29235 20.1477 7.26052C20.0929 7.22869 20.0304 7.21127 19.967 7.212ZM16.09 8.647C16.0342 8.65023 15.98 8.6667 15.9318 8.69504C15.8836 8.72338 15.8429 8.76279 15.813 8.81C15.7804 8.86331 15.7625 8.92427 15.761 8.98673C15.7596 9.04919 15.7746 9.11092 15.8046 9.16571C15.8347 9.22049 15.8786 9.26638 15.9321 9.29874C15.9855 9.33109 16.0465 9.34878 16.109 9.35C16.591 9.35 16.573 8.62 16.09 8.647ZM19.967 11.124C19.908 11.1244 19.8501 11.1397 19.7986 11.1683C19.747 11.197 19.7035 11.2381 19.672 11.288C19.6234 11.364 19.6061 11.4559 19.6236 11.5444C19.6411 11.6329 19.6921 11.7112 19.766 11.763L19.781 11.773C19.8603 11.8213 19.9553 11.8369 20.0458 11.8163C20.1364 11.7958 20.2153 11.7408 20.266 11.663C20.2995 11.6096 20.318 11.5482 20.3197 11.4852C20.3213 11.4222 20.306 11.3599 20.2754 11.3048C20.2447 11.2497 20.1998 11.2039 20.1454 11.1721C20.091 11.1403 20.03 11.1237 19.967 11.124ZM15.592 14.718C15.533 14.7199 15.4754 14.7367 15.4245 14.7668C15.3736 14.7968 15.3312 14.8392 15.301 14.89C15.2772 14.9294 15.2615 14.973 15.2546 15.0185C15.2478 15.064 15.2499 15.1104 15.261 15.155C15.2771 15.2195 15.3111 15.2781 15.3591 15.324C15.4071 15.37 15.4671 15.4014 15.5322 15.4147C15.5973 15.428 15.6648 15.4226 15.727 15.3991C15.7892 15.3756 15.8434 15.335 15.8834 15.2819C15.9235 15.2289 15.9477 15.1656 15.9533 15.0994C15.9589 15.0332 15.9456 14.9668 15.915 14.9078C15.8844 14.8488 15.8378 14.7997 15.7804 14.7661C15.7231 14.7325 15.6574 14.7158 15.591 14.718H15.592ZM19.967 15.507C19.908 15.5074 19.8501 15.5227 19.7986 15.5513C19.747 15.58 19.7035 15.6211 19.672 15.671V15.673C19.6245 15.749 19.6078 15.8402 19.6253 15.9281C19.6427 16.016 19.6931 16.0939 19.766 16.146L19.781 16.156C19.86 16.2045 19.9548 16.2204 20.0454 16.2002C20.1359 16.1801 20.215 16.1255 20.266 16.048C20.2997 15.9946 20.3185 15.9331 20.3203 15.8699C20.3221 15.8068 20.3068 15.7443 20.2761 15.689C20.2454 15.6338 20.2004 15.5879 20.1459 15.556C20.0913 15.5241 20.0292 15.5076 19.966 15.508L19.967 15.507ZM17.164 17.997C17.0821 17.9978 17.0031 18.0276 16.941 18.081C16.886 18.1278 16.8468 18.1903 16.8286 18.2602C16.8104 18.33 16.8141 18.4038 16.8392 18.4714C16.8643 18.5391 16.9096 18.5974 16.9689 18.6385C17.0283 18.6795 17.0988 18.7014 17.171 18.701C17.2555 18.7016 17.3372 18.6714 17.401 18.616C17.4359 18.5859 17.4645 18.5492 17.4851 18.508C17.5057 18.4668 17.5179 18.422 17.521 18.376C17.5247 18.3277 17.5184 18.2791 17.5025 18.2333C17.4867 18.1875 17.4615 18.1455 17.4287 18.1098C17.3958 18.0742 17.356 18.0457 17.3117 18.0261C17.2674 18.0065 17.2195 17.9963 17.171 17.996C17.1687 17.996 17.1663 17.997 17.164 17.997Z" fill="#BA478F"/>
</svg>
