<svg width="24" height="16" viewBox="0 0 24 16" fill="none" xmlns="http://www.w3.org/2000/svg">
<path fill-rule="evenodd" clip-rule="evenodd" d="M2 0.799805H22C23.1046 0.799805 24 1.69524 24 2.7998V13.1998C24 14.3044 23.1046 15.1998 22 15.1998H2C0.89543 15.1998 0 14.3044 0 13.1998V2.79981C0 1.69524 0.895431 0.799805 2 0.799805ZM5.17256 12.0438C5.77256 12.2278 6.40056 12.3198 7.05656 12.3198C7.82456 12.3198 8.46056 12.2078 8.96456 11.9838C9.46856 11.7518 9.84056 11.4478 10.0806 11.0718C10.3286 10.6878 10.4526 10.2718 10.4526 9.8238C10.4526 9.3838 10.3606 9.01981 10.1766 8.73181C10.0006 8.44381 9.76456 8.21581 9.46856 8.04781C9.18056 7.87981 8.85656 7.74381 8.49656 7.63981C8.14456 7.53581 7.78856 7.44381 7.42856 7.36381C7.06856 7.27581 6.74056 7.18781 6.44456 7.09981C6.15656 7.01181 5.92056 6.89181 5.73656 6.73981C5.56056 6.57981 5.47256 6.37181 5.47256 6.11581C5.47256 5.89981 5.53256 5.70781 5.65256 5.53981C5.78056 5.37181 5.97656 5.23581 6.24056 5.13181C6.51256 5.02781 6.86456 4.97581 7.29656 4.97581C7.66456 4.97581 8.04856 5.03181 8.44856 5.14381C8.84856 5.24781 9.23656 5.41181 9.61256 5.63581L10.1046 4.42381C9.73656 4.18381 9.30456 3.99981 8.80856 3.87181C8.31256 3.74381 7.81256 3.67981 7.30856 3.67981C6.54056 3.67981 5.90456 3.79581 5.40056 4.02781C4.90456 4.25181 4.53256 4.55581 4.28456 4.93981C4.04456 5.31581 3.92456 5.73181 3.92456 6.18781C3.92456 6.63581 4.01656 7.00381 4.20056 7.29181C4.38456 7.57981 4.62056 7.81181 4.90856 7.98781C5.20456 8.15581 5.52856 8.29581 5.88056 8.40781C6.24056 8.51181 6.59656 8.60381 6.94856 8.68381C7.30856 8.76381 7.63256 8.85181 7.92056 8.94781C8.21656 9.03581 8.45656 9.15981 8.64056 9.31981C8.82456 9.47181 8.91656 9.67581 8.91656 9.93181C8.91656 10.1398 8.85256 10.3278 8.72456 10.4958C8.59656 10.6558 8.39656 10.7838 8.12456 10.8798C7.85256 10.9758 7.49656 11.0238 7.05656 11.0238C6.53656 11.0238 6.02856 10.9358 5.53256 10.7598C5.03656 10.5838 4.62056 10.3638 4.28456 10.0998L3.74456 11.3118C4.09656 11.6078 4.57256 11.8518 5.17256 12.0438ZM11.9994 3.79981V12.1998H15.6714C16.5834 12.1998 17.3834 12.0238 18.0714 11.6718C18.7594 11.3198 19.2954 10.8318 19.6794 10.2078C20.0634 9.57581 20.2554 8.83981 20.2554 7.99981C20.2554 7.15181 20.0634 6.41581 19.6794 5.79181C19.2954 5.16781 18.7594 4.67981 18.0714 4.32781C17.3834 3.97581 16.5834 3.79981 15.6714 3.79981H11.9994Z" fill="white"/>
<path d="M13.5594 10.8798H15.5994C16.2314 10.8798 16.7754 10.7598 17.2314 10.5198C17.6954 10.2798 18.0514 9.94381 18.2994 9.51181C18.5554 9.07981 18.6834 8.57581 18.6834 7.99981C18.6834 7.41581 18.5554 6.91181 18.2994 6.48781C18.0514 6.05581 17.6954 5.71981 17.2314 5.47981C16.7754 5.23981 16.2314 5.11981 15.5994 5.11981H13.5594V10.8798Z" fill="white"/>
</svg>
