<svg width="24" height="18" viewBox="0 0 24 18" fill="none" xmlns="http://www.w3.org/2000/svg">
<path d="M15.507 5.952H14.241V12.042H15.507C17.181 12.042 17.94 11.0415 17.94 9.012C17.94 6.981 17.175 5.952 15.507 5.952Z" fill="white"/>
<path d="M0 3C0 2.20435 0.316071 1.44129 0.87868 0.87868C1.44129 0.31607 2.20435 0 3 0H21C21.7956 0 22.5587 0.31607 23.1213 0.87868C23.6839 1.44129 24 2.20435 24 3V15C24 15.7956 23.6839 16.5587 23.1213 17.1213C22.5587 17.6839 21.7956 18 21 18H3C2.20435 18 1.44129 17.6839 0.87868 17.1213C0.316071 16.5587 0 15.7956 0 15V3ZM7.6155 13.671C9.897 13.671 11.1825 12.525 11.1825 10.851C11.1825 9.3405 10.2195 8.6415 8.763 8.313L7.365 7.989C6.5745 7.818 6.1335 7.4625 6.1335 6.921C6.1335 6.222 6.7185 5.715 7.7025 5.715C8.658 5.715 9.2445 6.21 9.357 6.855H11.0445C10.9575 5.4705 9.771 4.317 7.7145 4.317C5.7315 4.317 4.3545 5.3925 4.3545 7.0395C4.3545 8.4045 5.2365 9.2085 6.6345 9.525L8.025 9.8475C8.961 10.065 9.4095 10.3875 9.4095 11.0145C9.4095 11.7525 8.823 12.2595 7.7145 12.2595C6.654 12.2595 5.982 11.7465 5.8635 11.0475H4.143C4.221 12.4725 5.328 13.671 7.6155 13.671ZM12.4605 13.5H15.7455C18.4605 13.5 19.7715 11.8395 19.7715 8.9775C19.7715 6.1365 18.48 4.5015 15.744 4.5015H12.462L12.4605 13.5Z" fill="white"/>
</svg>
