<svg width="24" height="14" viewBox="0 0 24 14" fill="none" xmlns="http://www.w3.org/2000/svg">
<path fill-rule="evenodd" clip-rule="evenodd" d="M0 4C0 1.79086 1.79086 0 4 0H20C22.2091 0 24 1.79086 24 4V10C24 12.2091 22.2091 14 20 14H4C1.79086 14 0 12.2091 0 10V4ZM8.39312 10.575C7.90646 10.575 7.46646 10.4917 7.07312 10.325C6.68646 10.1583 6.37979 9.91833 6.15312 9.605C5.92646 9.29167 5.80979 8.92167 5.80312 8.495H7.30312C7.32312 8.78167 7.42313 9.00833 7.60313 9.175C7.78979 9.34167 8.04312 9.425 8.36312 9.425C8.68979 9.425 8.94646 9.34833 9.13313 9.195C9.31979 9.035 9.41313 8.82833 9.41313 8.575C9.41313 8.36833 9.34979 8.19833 9.22313 8.065C9.09646 7.93167 8.93646 7.82833 8.74312 7.755C8.55646 7.675 8.29646 7.58833 7.96313 7.495C7.50979 7.36167 7.13979 7.23167 6.85312 7.105C6.57312 6.97167 6.32979 6.775 6.12313 6.515C5.92313 6.24833 5.82312 5.895 5.82312 5.455C5.82312 5.04167 5.92646 4.68167 6.13312 4.375C6.33979 4.06833 6.62979 3.835 7.00313 3.675C7.37646 3.50833 7.80312 3.425 8.28312 3.425C9.00312 3.425 9.58646 3.60167 10.0331 3.955C10.4865 4.30167 10.7365 4.78833 10.7831 5.415H9.24312C9.22979 5.175 9.12646 4.97833 8.93312 4.825C8.74646 4.665 8.49646 4.585 8.18312 4.585C7.90979 4.585 7.68979 4.655 7.52312 4.795C7.36312 4.935 7.28312 5.13833 7.28312 5.405C7.28312 5.59167 7.34313 5.74833 7.46313 5.875C7.58979 5.995 7.74313 6.095 7.92313 6.175C8.10979 6.24833 8.36979 6.335 8.70312 6.435C9.15646 6.56833 9.52646 6.70167 9.81313 6.835C10.0998 6.96833 10.3465 7.16833 10.5531 7.435C10.7598 7.70167 10.8631 8.05167 10.8631 8.485C10.8631 8.85833 10.7665 9.205 10.5731 9.525C10.3798 9.845 10.0965 10.1017 9.72313 10.295C9.34979 10.4817 8.90646 10.575 8.39312 10.575ZM16.4469 3.955C15.8935 3.66833 15.2502 3.525 14.5169 3.525H12.0769V10.505H14.5169C15.2502 10.505 15.8935 10.3617 16.4469 10.075C17.0069 9.78833 17.4369 9.385 17.7369 8.865C18.0435 8.33833 18.1969 7.725 18.1969 7.025C18.1969 6.325 18.0435 5.71167 17.7369 5.185C17.4369 4.65167 17.0069 4.24167 16.4469 3.955ZM14.4669 9.315C15.2002 9.315 15.7669 9.115 16.1669 8.715C16.5669 8.315 16.7669 7.75167 16.7669 7.025C16.7669 6.29833 16.5669 5.73167 16.1669 5.325C15.7669 4.91167 15.2002 4.705 14.4669 4.705H13.4769V9.315H14.4669Z" fill="white"/>
</svg>
