<svg width="40" height="14" viewBox="0 0 40 14" fill="none" xmlns="http://www.w3.org/2000/svg">
<path fill-rule="evenodd" clip-rule="evenodd" d="M4 0C1.79086 0 0 1.79086 0 4V10C0 12.2091 1.79086 14 4 14H36C38.2091 14 40 12.2091 40 10V4C40 1.79086 38.2091 0 36 0H4ZM11.4391 10.325C11.8325 10.4917 12.2725 10.575 12.7591 10.575C13.2725 10.575 13.7158 10.4817 14.0891 10.295C14.4625 10.1017 14.7458 9.845 14.9391 9.525C15.1325 9.205 15.2291 8.85833 15.2291 8.485C15.2291 8.05167 15.1258 7.70167 14.9191 7.435C14.7125 7.16833 14.4658 6.96833 14.1791 6.835C13.8925 6.70167 13.5225 6.56833 13.0691 6.435C12.7358 6.335 12.4758 6.24833 12.2891 6.175C12.1091 6.095 11.9558 5.995 11.8291 5.875C11.7091 5.74833 11.6491 5.59167 11.6491 5.405C11.6491 5.13833 11.7291 4.935 11.8891 4.795C12.0558 4.655 12.2758 4.585 12.5491 4.585C12.8625 4.585 13.1125 4.665 13.2991 4.825C13.4925 4.97833 13.5958 5.175 13.6091 5.415H15.1491C15.1025 4.78833 14.8525 4.30167 14.3991 3.955C13.9525 3.60167 13.3691 3.425 12.6491 3.425C12.1691 3.425 11.7425 3.50833 11.3691 3.675C10.9958 3.835 10.7058 4.06833 10.4991 4.375C10.2925 4.68167 10.1891 5.04167 10.1891 5.455C10.1891 5.895 10.2891 6.24833 10.4891 6.515C10.6958 6.775 10.9391 6.97167 11.2191 7.105C11.5058 7.23167 11.8758 7.36167 12.3291 7.495C12.6625 7.58833 12.9225 7.675 13.1091 7.755C13.3025 7.82833 13.4625 7.93167 13.5891 8.065C13.7158 8.19833 13.7791 8.36833 13.7791 8.575C13.7791 8.82833 13.6858 9.035 13.4991 9.195C13.3125 9.34833 13.0558 9.425 12.7291 9.425C12.4091 9.425 12.1558 9.34167 11.9691 9.175C11.7891 9.00833 11.6891 8.78167 11.6691 8.495H10.1691C10.1758 8.92167 10.2925 9.29167 10.5191 9.605C10.7458 9.91833 11.0525 10.1583 11.4391 10.325ZM19.3829 3.525C20.1162 3.525 20.7596 3.66833 21.3129 3.955C21.8729 4.24167 22.3029 4.65167 22.6029 5.185C22.9096 5.71167 23.0629 6.325 23.0629 7.025C23.0629 7.725 22.9096 8.33833 22.6029 8.865C22.3029 9.385 21.8729 9.78833 21.3129 10.075C20.7596 10.3617 20.1162 10.505 19.3829 10.505H16.9429V3.525H19.3829ZM21.0329 8.715C20.6329 9.115 20.0662 9.315 19.3329 9.315H18.3429V4.705H19.3329C20.0662 4.705 20.6329 4.91167 21.0329 5.325C21.4329 5.73167 21.6329 6.29833 21.6329 7.025C21.6329 7.75167 21.4329 8.315 21.0329 8.715ZM26.6709 7.785L28.2109 10.505H29.8309L28.1609 7.675C28.6875 7.535 29.0842 7.28167 29.3509 6.915C29.6175 6.54167 29.7509 6.125 29.7509 5.665C29.7509 5.265 29.6542 4.905 29.4609 4.585C29.2742 4.25833 28.9909 4.00167 28.6109 3.815C28.2309 3.62167 27.7709 3.525 27.2309 3.525H24.6109V10.505H26.0109V7.785H26.6709ZM26.0109 6.735H27.1809C27.5609 6.735 27.8442 6.645 28.0309 6.465C28.2175 6.27833 28.3109 6.02167 28.3109 5.695C28.3109 5.375 28.2175 5.12833 28.0309 4.955C27.8442 4.775 27.5609 4.685 27.1809 4.685H26.0109V6.735Z" fill="white"/>
</svg>
