<svg width="24" height="24" viewBox="0 0 24 24" fill="none" xmlns="http://www.w3.org/2000/svg">
<path d="M0 6.72048C0 5.92852 0.71433 5.38577 1.55763 5.50986L12.5582 6.94676C13.0526 7.01951 13.4467 7.55223 13.4467 8.13239L13.4465 9.63401C12.5196 10.2552 11.912 11.2948 11.912 12.4725C11.912 13.6614 12.5048 14.692 13.4467 15.311V15.9713C13.4467 16.5515 13.0526 17.0842 12.5582 17.1569L2.79676 18.4904C1.95345 18.6145 1.23912 18.0717 1.23912 17.2798L0 6.72048ZM4.74367 8.10062H3.29281V10.0011H2.37237V11.0992H3.29281V13.2108C3.25026 14.5376 3.77141 15.1317 4.96891 15.1429L6.08645 15.1429V14.0448H5.51262C4.86284 14.0132 4.72219 13.8231 4.74374 12.9679V11.0991H6.52725L8.17933 15.1428H9.73851L12.0124 10.001H10.4747L9.00215 13.5381L7.65934 10.0011H4.74367V8.10062Z" fill="#6CD591"/>
<path d="M4.74367 8.10062H3.29281V10.0011H2.37237V11.0992H3.29281V13.2108C3.25026 14.5376 3.77141 15.1317 4.96891 15.1429L6.08645 15.1429V14.0448H5.51262C4.86284 14.0132 4.72219 13.8231 4.74374 12.9679V11.0991H6.52725L8.17933 15.1428H9.73851L12.0124 10.001H10.4747L9.00215 13.5381L7.65934 10.0011H4.74367V8.10062Z" fill="white"/>
<path d="M21.358 9.89753C22.3 9.89753 22.928 10.1298 23.4045 10.6577C23.7943 11.08 24 11.703 24 12.3998C24 13.4133 23.5886 14.2052 22.8415 14.6592C22.3541 14.9549 21.9319 15.0394 20.979 15.0394H18.6185V7.99707H20.0695V9.89753H21.358ZM20.0695 13.9413H21.1414C21.9968 13.9413 22.5166 13.3712 22.5166 12.442C22.5166 11.4706 22.0618 10.9955 21.1414 10.9955H20.0695V13.9413Z" fill="white"/>
<path d="M16.3936 7.99707H17.8446V15.0394H15.3433C14.3255 15.0394 13.8382 14.8916 13.3184 14.4375C12.7878 13.9625 12.5172 13.2868 12.5172 12.4315C12.5172 11.5445 12.8096 10.8689 13.4268 10.3726C13.8166 10.0559 14.3473 9.89753 15.0294 9.89753H16.3937L16.3936 7.99707ZM16.3936 10.9956H15.3433C14.4988 10.9956 13.9898 11.5341 13.9898 12.4315C13.9898 13.3712 14.5095 13.9413 15.3433 13.9413H16.3936V10.9956Z" fill="white"/>
</svg>
