<svg width="24" height="24" viewBox="0 0 24 24" fill="none" xmlns="http://www.w3.org/2000/svg">
<path d="M6.62257 11.9997C6.62206 11.6984 6.68096 11.4 6.79591 11.1215C6.91085 10.843 7.07959 10.5899 7.29245 10.3767C7.50532 10.1634 7.75814 9.99426 8.03645 9.87884C8.31476 9.76342 8.6131 9.70402 8.9144 9.70402H8.90143C9.20272 9.70402 9.50106 9.76342 9.77937 9.87884C10.0577 9.99426 10.3105 10.1634 10.5234 10.3767C10.7362 10.5899 10.905 10.843 11.0199 11.1215C11.1349 11.4 11.1938 11.6984 11.1933 11.9997C11.1933 12.6076 10.9518 13.1905 10.522 13.6203C10.0922 14.0501 9.50926 14.2916 8.90143 14.2916H8.9144C8.30657 14.2916 7.72363 14.0501 7.29383 13.6203C6.86403 13.1905 6.62257 12.6076 6.62257 11.9997ZM17.345 7.93618H21.6122C22.22 7.93618 22.803 7.69472 23.2328 7.26492C23.6626 6.83512 23.904 6.25218 23.904 5.64435C23.9045 5.34306 23.8456 5.04462 23.7307 4.76611C23.6157 4.48761 23.447 4.2345 23.2341 4.02127C23.0213 3.80804 22.7684 3.63888 22.4901 3.52346C22.2118 3.40804 21.9135 3.34863 21.6122 3.34863L17.345 3.34863C17.0437 3.34863 16.7454 3.40804 16.4671 3.52346C16.1888 3.63888 15.9359 3.80804 15.7231 4.02127C15.5102 4.2345 15.3415 4.48761 15.2265 4.76611C15.1116 5.04462 15.0527 5.34306 15.0532 5.64435C15.0532 6.25218 15.2946 6.83512 15.7244 7.26492C16.1542 7.69472 16.7372 7.93618 17.345 7.93618ZM2.68872 20.6469H10.9767C11.5845 20.6469 12.1674 20.4055 12.5972 19.9757C13.027 19.5459 13.2685 18.9629 13.2685 18.3551C13.269 18.0538 13.2101 17.7554 13.0951 17.4769C12.9802 17.1984 12.8115 16.9453 12.5986 16.732C12.3857 16.5188 12.1329 16.3496 11.8546 16.2342C11.5763 16.1188 11.2779 16.0594 10.9767 16.0594H2.68872C2.38742 16.0594 2.08908 16.1188 1.81077 16.2342C1.53246 16.3496 1.27964 16.5188 1.06677 16.732C0.853904 16.9453 0.68517 17.1984 0.570224 17.4769C0.455278 17.7554 0.396376 18.0538 0.396887 18.3551C0.396887 18.9629 0.638347 19.5459 1.06815 19.9757C1.49795 20.4055 2.08089 20.6469 2.68872 20.6469ZM13.5733 14.2916H14.3839L16.2776 9.70402H15.1946L14.0402 12.7131H14.0272L12.8923 9.70402H11.738L13.5733 14.2916ZM17.7821 14.2916H18.7938V9.70402H17.7821V14.2916ZM20.6615 14.2916H23.8975V13.3616H21.6732V12.4278H23.6641V11.4939H21.6732V10.6379H23.7808V9.70402H20.668L20.6615 14.2916ZM1.30999 7.94007H2.32166V4.24357H3.63165V3.34863H0V4.24357H1.30999V7.94007ZM5.05837 7.94007H6.07004V5.95564H8.02853V7.94007H9.04021V3.34863H8.02853V5.0607H6.06355V3.34863H5.05837V7.94007ZM10.4086 7.94007H13.6511V7.00622H11.4137V6.07237H13.4047V5.13852H11.4137V4.28248H13.5214V3.34863H10.4086V7.94007ZM0.162127 14.2955H1.16732V10.7741H1.18029L2.3476 14.2955H3.11284L4.31907 10.7741H4.33204V14.2955H5.34371V9.70402H3.81971L2.75616 12.7001H2.74319L1.68612 9.70402H0.155642L0.162127 14.2955ZM14.7004 20.6508H16.3424C16.675 20.6526 17.0059 20.6022 17.323 20.5017C17.6222 20.4082 17.9015 20.26 18.1466 20.0646C18.3849 19.8706 18.5783 19.6272 18.7134 19.3512C18.8631 19.0453 18.9394 18.7087 18.9364 18.3681C18.947 17.9994 18.8725 17.6332 18.7185 17.298C18.5833 17.0155 18.3823 16.7696 18.1323 16.5808C17.8705 16.3931 17.5737 16.2599 17.2594 16.1891C16.9171 16.1036 16.5656 16.06 16.2127 16.0594H14.6939L14.7004 20.6508ZM15.7134 16.9933H16.31C16.5146 16.9925 16.7184 17.0196 16.9157 17.0737C17.0971 17.123 17.2678 17.2057 17.4189 17.3175C17.5626 17.4269 17.6789 17.568 17.7588 17.73C17.8479 17.9123 17.8923 18.1133 17.8885 18.3162C17.894 18.5427 17.8497 18.7676 17.7588 18.9751C17.6812 19.1461 17.5622 19.295 17.4125 19.4083C17.2575 19.5219 17.0809 19.6027 16.8936 19.6457C16.681 19.6946 16.4633 19.7186 16.2451 19.717H15.7069L15.7134 16.9933ZM20.4008 20.6508H22.2815C22.4876 20.6504 22.6932 20.6286 22.8949 20.586C23.0905 20.547 23.2778 20.4746 23.4488 20.372C23.6111 20.2751 23.7487 20.1419 23.8508 19.9829C23.9602 19.7998 24.0143 19.589 24.0065 19.3759C24.0076 19.2344 23.9835 19.0938 23.9351 18.9608C23.8904 18.8352 23.8212 18.7197 23.7315 18.621C23.6413 18.5221 23.5335 18.4408 23.4137 18.3811C23.2845 18.3151 23.1451 18.2712 23.0013 18.2514V18.2384C23.224 18.1743 23.4236 18.0473 23.5759 17.8726C23.725 17.6903 23.8021 17.4595 23.7925 17.2241C23.8028 17.0128 23.7509 16.8031 23.6433 16.621C23.5467 16.471 23.4126 16.349 23.2542 16.2669C23.0848 16.1804 22.9019 16.1234 22.7134 16.0983C22.5143 16.071 22.3137 16.0571 22.1128 16.0568H20.4008V20.6508ZM21.4125 16.9154H22.0999C22.1803 16.9159 22.2606 16.9232 22.3398 16.9375C22.4168 16.9509 22.4912 16.9763 22.5603 17.0127C22.6251 17.0472 22.68 17.0977 22.7198 17.1593C22.7632 17.2301 22.7844 17.3123 22.7808 17.3953C22.7831 17.4765 22.7643 17.557 22.7263 17.6288C22.6912 17.6921 22.6409 17.7456 22.5798 17.7844C22.5175 17.8245 22.4485 17.853 22.3761 17.8687C22.3004 17.8858 22.2229 17.8945 22.1453 17.8947H21.4008L21.4125 16.9154ZM21.4125 18.7507H22.1777C22.2667 18.7512 22.3555 18.7577 22.4436 18.7702C22.5328 18.7823 22.6201 18.8063 22.703 18.8415C22.7829 18.8742 22.8533 18.9264 22.9079 18.9933C22.9637 19.0679 22.9921 19.1595 22.9883 19.2527C22.9916 19.341 22.9705 19.4285 22.9274 19.5056C22.8876 19.5731 22.8331 19.6308 22.7678 19.6742C22.7021 19.718 22.6286 19.7488 22.5512 19.765C22.4732 19.7818 22.3937 19.7905 22.3139 19.7909H21.406L21.4125 18.7507Z" fill="url(#paint0_linear_1120_445)"/>
<defs>
<linearGradient id="paint0_linear_1120_445" x1="0" y1="11.9997" x2="24" y2="11.9997" gradientUnits="userSpaceOnUse">
<stop stop-color="#90CEA1"/>
<stop offset="0.56" stop-color="#3CBEC9"/>
<stop offset="1" stop-color="#00B3E5"/>
</linearGradient>
</defs>
</svg>
