<svg width="24" height="24" viewBox="0 0 24 24" fill="none" xmlns="http://www.w3.org/2000/svg">
<path d="M6.62 11.9996C6.61947 11.6983 6.67838 11.3999 6.79334 11.1214C6.9083 10.8429 7.07706 10.5898 7.28996 10.3767C7.50285 10.1635 7.75571 9.9944 8.03404 9.87907C8.31237 9.76375 8.61072 9.70445 8.912 9.70459H8.899C9.20011 9.70472 9.49824 9.7642 9.77635 9.87965C10.0544 9.99509 10.3071 10.1642 10.5198 10.3774C10.7324 10.5905 10.901 10.8435 11.0159 11.1219C11.1307 11.4002 11.1895 11.6985 11.189 11.9996C11.189 12.607 10.9478 13.1896 10.5183 13.6192C10.0889 14.0488 9.50644 14.2903 8.899 14.2906H8.912C8.61106 14.2907 8.31304 14.2316 8.03497 14.1165C7.75689 14.0014 7.50422 13.8327 7.29137 13.6199C7.07853 13.4072 6.90968 13.1546 6.79449 12.8765C6.67929 12.5985 6.62 12.3005 6.62 11.9996ZM17.34 7.93759H21.606C22.2134 7.93732 22.7959 7.69583 23.2253 7.26621C23.6548 6.8366 23.896 6.25402 23.896 5.64659C23.8967 5.34539 23.8379 5.04702 23.7231 4.76855C23.6084 4.49008 23.4398 4.23698 23.2271 4.02372C23.0144 3.81047 22.7617 3.64125 22.4836 3.52574C22.2054 3.41024 21.9072 3.35072 21.606 3.35059H17.34C17.0387 3.35059 16.7404 3.41001 16.4621 3.52545C16.1838 3.6409 15.9311 3.8101 15.7182 4.02337C15.5054 4.23664 15.3368 4.48979 15.222 4.76832C15.1071 5.04686 15.0483 5.34531 15.049 5.64659C15.0493 6.25385 15.2906 6.83617 15.72 7.26557C16.1494 7.69497 16.7317 7.93632 17.339 7.93659L17.34 7.93759ZM2.688 20.6446H10.973C11.2739 20.6446 11.5719 20.5853 11.85 20.4701C12.128 20.3549 12.3806 20.1861 12.5933 19.9732C12.8061 19.7604 12.9748 19.5077 13.0899 19.2296C13.205 18.9515 13.2641 18.6535 13.264 18.3526C13.2645 18.0515 13.2057 17.7532 13.0909 17.4749C12.976 17.1965 12.8074 16.9435 12.5948 16.7304C12.3821 16.5172 12.1294 16.3481 11.8513 16.2326C11.5732 16.1172 11.2751 16.0577 10.974 16.0576H2.687C2.3858 16.0576 2.08757 16.117 1.80935 16.2324C1.53113 16.3477 1.27839 16.5169 1.0656 16.73C0.852811 16.9432 0.684141 17.1962 0.569243 17.4746C0.454345 17.753 0.395474 18.0514 0.396 18.3526C0.395869 18.6534 0.454997 18.9514 0.570009 19.2294C0.685021 19.5074 0.853665 19.76 1.06631 19.9729C1.27896 20.1857 1.53144 20.3546 1.80935 20.4698C2.08726 20.5851 2.38514 20.6445 2.686 20.6446H2.688ZM13.569 14.2906H14.379L16.273 9.70459H15.19L14.036 12.7126H14.023L12.888 9.70459H11.734L13.569 14.2906ZM17.777 14.2906H18.788V9.70459H17.777V14.2906ZM20.655 14.2906H23.89V13.3606H21.667V12.4276H23.657V11.4936H21.667V10.6386H23.774V9.70459H20.662L20.655 14.2906ZM1.31 7.94059H2.32V4.24659H3.63V3.35159H0V4.24659H1.31V7.94059ZM5.057 7.94059H6.068V5.95859H8.026V7.94259H9.037V3.35259H8.027V5.06359H6.061V3.35059H5.057V7.94059ZM10.405 7.94059H13.647V7.00759H11.41V6.07359H13.4V5.14059H11.41V4.28459H13.517V3.35059H10.405V7.94059ZM0.162 14.2956H1.167V10.7756H1.18L2.347 14.2956H3.112L4.318 10.7756H4.331V14.2956H5.342V9.70559H3.82L2.755 12.6996H2.742L1.686 9.70459H0.156L0.162 14.2956ZM14.696 20.6486H16.337C16.6694 20.6503 17.0001 20.6 17.317 20.4996C17.6164 20.4062 17.8958 20.258 18.141 20.0626C18.3794 19.8687 18.5728 19.6255 18.708 19.3496C18.8577 19.0437 18.934 18.7071 18.931 18.3666C18.9416 17.9979 18.867 17.6318 18.713 17.2966C18.5777 17.0145 18.3767 16.769 18.127 16.5806C17.8652 16.3928 17.5683 16.2595 17.254 16.1886C16.9119 16.103 16.5606 16.0594 16.208 16.0586H14.689L14.696 20.6486ZM15.709 16.9926H16.305C16.5097 16.9917 16.7136 17.0186 16.911 17.0726C17.0924 17.122 17.2629 17.2047 17.414 17.3166C17.5577 17.4258 17.674 17.5668 17.754 17.7286C17.8433 17.9112 17.8879 18.1124 17.884 18.3156C17.8893 18.5418 17.845 18.7664 17.754 18.9736C17.6762 19.1446 17.5569 19.2934 17.407 19.4066C17.2523 19.5204 17.0761 19.6013 16.889 19.6446C16.6761 19.6932 16.4583 19.7167 16.24 19.7146H15.702L15.709 16.9926ZM20.395 20.6486H22.275C22.481 20.6484 22.6864 20.6269 22.888 20.5846C23.0836 20.5456 23.271 20.4732 23.442 20.3706C23.6044 20.2735 23.742 20.14 23.844 19.9806C23.953 19.7977 24.0068 19.5873 23.999 19.3746C24.0002 19.2331 23.9762 19.0926 23.928 18.9596C23.8831 18.8339 23.8138 18.7183 23.724 18.6196C23.634 18.5208 23.5265 18.4394 23.407 18.3796C23.2776 18.3134 23.138 18.2695 22.994 18.2496V18.2376C23.2169 18.1736 23.4166 18.0465 23.569 17.8716C23.7178 17.6893 23.7947 17.4587 23.785 17.2236C23.7954 17.0123 23.7436 16.8027 23.636 16.6206C23.5394 16.4707 23.4053 16.3486 23.247 16.2666C23.0779 16.18 22.8953 16.1229 22.707 16.0976C22.5082 16.0704 22.3077 16.0567 22.107 16.0566H20.395V20.6486ZM21.406 16.9146H22.093C22.1735 16.915 22.2538 16.9224 22.333 16.9366C22.4098 16.95 22.484 16.9753 22.553 17.0116C22.618 17.0462 22.6731 17.0968 22.713 17.1586C22.7563 17.2294 22.7776 17.3116 22.774 17.3946C22.7761 17.4757 22.7571 17.556 22.719 17.6276C22.6841 17.691 22.6339 17.7446 22.573 17.7836C22.5106 17.8236 22.4415 17.852 22.369 17.8676C22.2935 17.8846 22.2164 17.8934 22.139 17.8936H21.394L21.406 16.9146ZM21.406 18.7496H22.171C22.26 18.7502 22.3489 18.7569 22.437 18.7696C22.5264 18.7813 22.6138 18.8048 22.697 18.8396C22.7766 18.8725 22.8467 18.9248 22.901 18.9916C22.9568 19.0665 22.985 19.1583 22.981 19.2516C22.9846 19.3398 22.9638 19.4274 22.921 19.5046C22.881 19.5719 22.8263 19.6294 22.761 19.6726C22.6951 19.7161 22.6214 19.7467 22.544 19.7626C22.4661 19.7797 22.3867 19.7888 22.307 19.7896H21.4L21.406 18.7496Z" fill="#01B4E4"/>
</svg>
