<svg width="24" height="24" viewBox="0 0 24 24" fill="none" xmlns="http://www.w3.org/2000/svg">
<g clip-path="url(#clip0_1029_262)">
<path fill-rule="evenodd" clip-rule="evenodd" d="M23.5024 12.9928C23.271 9.28227 21.3839 6.50613 18.5446 4.9541C18.5607 5.04452 18.4802 5.15755 18.3886 5.11752C16.5315 4.30511 13.3809 6.93435 11.1793 5.55749C11.1958 6.05163 11.0993 8.46208 7.70374 8.6019C7.62358 8.60519 7.57946 8.52333 7.63015 8.46537C8.08426 7.94743 8.54275 6.63609 7.88349 5.93701C6.47168 7.20213 5.65179 7.67825 2.94477 7.04997C1.21159 8.86222 0.229486 11.3426 0.422283 14.4324C0.815644 20.7399 6.72373 24.3454 12.6732 23.9741C18.6223 23.6032 23.8959 19.3003 23.5024 12.9928Z" fill="#FA320A"/>
<path fill-rule="evenodd" clip-rule="evenodd" d="M12.6598 3.43995C13.8824 3.14856 17.3987 3.41156 18.5253 4.90604C18.5929 4.99566 18.4977 5.16526 18.3887 5.11766C16.5315 4.30524 13.3809 6.93449 11.1793 5.55762C11.1958 6.05176 11.0993 8.46222 7.7038 8.60204C7.62363 8.60532 7.57952 8.52347 7.6302 8.46551C8.08431 7.94756 8.5427 6.63623 7.88355 5.93714C6.34566 7.3153 5.51193 7.75815 2.17404 6.85591C2.06479 6.82644 2.10204 6.65087 2.21825 6.60655C2.84913 6.36546 4.27837 5.30946 5.63054 4.844C5.88796 4.75547 6.14459 4.68675 6.39505 4.64682C4.90625 4.51377 4.23515 4.30674 3.2882 4.44954C3.18443 4.46517 3.11392 4.34438 3.17825 4.26152C4.45414 2.61807 6.80454 2.12174 8.2547 2.9948C7.36083 1.88722 6.66064 1.0039 6.66064 1.0039L8.31973 0.0615234C8.31973 0.0615234 9.00518 1.59294 9.5039 2.7075C10.7381 0.883996 13.0343 0.715698 14.0044 2.00951C14.062 2.08639 14.0019 2.19573 13.9058 2.19344C13.1161 2.17422 12.6814 2.89243 12.6484 3.43865L12.6598 3.43995Z" fill="#00912D"/>
</g>
<defs>
<clipPath id="clip0_1029_262">
<rect width="24" height="24" fill="white"/>
</clipPath>
</defs>
</svg>
