<svg width="24" height="24" viewBox="0 0 24 24" fill="none" xmlns="http://www.w3.org/2000/svg">
<path fill-rule="evenodd" clip-rule="evenodd" d="M18.3256 20.447C17.9817 20.9692 17.3136 21.51 16.6142 21.8705L17.8097 9.74531C18.5703 9.50094 19.3125 9.17716 19.8592 8.71287L18.3256 20.447ZM15.4246 22.3763C14.267 22.7594 13.5939 22.8781 12.6303 22.9727L12.7805 10.5127C13.845 10.4822 15.2225 10.3379 16.3963 10.0874L15.4246 22.3763ZM8.52295 22.3763L7.55135 10.0874C8.72503 10.3379 10.1026 10.4822 11.1671 10.5127L11.3172 22.9727C10.3536 22.8781 9.68066 22.7594 8.52295 22.3763ZM5.62207 20.447L4.0883 8.71287C4.63504 9.17716 5.37725 9.50094 6.13785 9.74531L7.3333 21.8705C6.634 21.51 5.96583 20.9692 5.62207 20.447ZM18.2398 4.08301C18.255 4.15706 18.2635 4.23361 18.2639 4.31221C18.2644 4.39171 18.2567 4.46942 18.242 4.54454C18.7973 4.63367 19.2234 5.11206 19.2267 5.69306C19.2269 5.72946 19.2249 5.76551 19.2219 5.8011C19.5049 5.83867 19.7561 5.97731 19.938 6.17948C19.1398 7.3918 15.8806 8.3145 11.9738 8.3369C7.50032 8.3625 3.86204 7.19828 3.79281 5.72928C3.80262 5.71867 3.81163 5.70725 3.82189 5.69699C3.75284 5.57922 3.70519 5.44797 3.68057 5.3087C3.25223 5.71528 2.99304 6.04307 3.03864 6.52039C3.04301 6.58418 4.93365 20.121 4.93365 20.121C5.1518 22.2649 8.2651 23.9785 11.9738 23.9997C15.6824 23.9785 18.7958 22.2649 19.0139 20.121C19.0139 20.121 20.9045 6.58418 20.9089 6.52039C20.9995 5.56565 19.8824 4.69898 18.2398 4.08301Z" fill="#BCBDBE"/>
<path fill-rule="evenodd" clip-rule="evenodd" d="M3.79281 5.72934C3.86196 7.19825 7.50023 8.36256 11.9737 8.33704C15.8806 8.31474 19.1397 7.39203 19.938 6.17981C19.7561 5.97764 19.5049 5.83899 19.2219 5.80143C19.2249 5.76574 19.2269 5.72979 19.2267 5.6933C19.2234 5.11239 18.7973 4.63399 18.2421 4.54478C18.2567 4.46965 18.2644 4.39194 18.2639 4.31245C18.2603 3.66552 17.7328 3.14412 17.0859 3.14778C17.0712 3.14787 17.057 3.14965 17.0424 3.15028C17.0838 3.0293 17.107 2.90002 17.1063 2.76503C17.1025 2.1181 16.5752 1.5967 15.9282 1.60036C15.7798 1.60125 15.6385 1.63078 15.5081 1.68191C15.3231 1.33359 14.9678 1.09083 14.5536 1.06281C14.4814 0.481906 13.9851 0.033757 13.3853 0.0371283C13.0078 0.0392886 12.674 0.220582 12.4614 0.499036C12.2457 0.264389 11.9367 0.117177 11.5929 0.11914C10.946 0.122798 10.4246 0.650263 10.4282 1.2971C10.4289 1.42067 10.449 1.53942 10.4851 1.65104C10.2211 1.70002 9.98891 1.83724 9.81922 2.03111C9.6845 1.52934 9.22636 1.1606 8.68239 1.16363C8.17419 1.16657 7.74469 1.4933 7.58517 1.94662C7.15343 2.12122 6.84955 2.54475 6.85241 3.03875C6.85303 3.14849 6.86981 3.25413 6.89862 3.35477C6.75302 3.29107 6.59251 3.25538 6.42335 3.25636C5.91329 3.2593 5.48245 3.58834 5.32426 4.04434C5.17259 3.97386 5.00396 3.9338 4.82561 3.93487C4.17868 3.93853 3.6572 4.46591 3.66092 5.11284C3.6621 5.32616 3.72126 5.5253 3.8219 5.69695C3.81164 5.7073 3.80262 5.71863 3.79281 5.72934Z" fill="#DEDEDF"/>
</svg>
