<svg width="24" height="24" viewBox="0 0 24 24" fill="none" xmlns="http://www.w3.org/2000/svg">
<g clip-path="url(#clip0_1029_259)">
<path fill-rule="evenodd" clip-rule="evenodd" d="M21.4392 21.4361C16.9038 21.6742 15.9771 16.4845 14.1977 16.5215C13.4395 16.5374 12.8419 17.3301 13.1043 18.254C13.2487 18.7619 13.649 19.5067 13.9012 19.9689C14.7909 21.6 13.4756 23.4458 11.9364 23.6019C9.37865 23.8614 8.31171 22.3776 8.37771 20.8586C8.45192 19.1535 9.89771 17.4111 8.41486 16.6698C6.86086 15.8928 5.5976 18.931 4.11055 19.6091C2.76465 20.2229 0.896337 19.747 0.232126 18.2525C-0.2344 17.2023 -0.149558 15.1801 1.9276 14.4085C3.22507 13.9266 6.11644 15.0387 6.26476 13.6301C6.43571 12.0063 3.22728 11.8694 2.26128 11.48C0.552021 10.7911 -0.456821 9.31714 0.3336 7.73588C0.926653 6.54978 2.6716 6.06714 4.00349 6.58672C5.59907 7.20914 5.85518 8.86409 6.67265 9.5523C7.37686 10.1455 8.34065 10.2197 8.97097 9.81188C9.43581 9.51104 9.59055 8.8503 9.41518 8.24672C9.18255 7.44546 8.56518 6.94546 7.96286 6.45556C6.89097 5.5842 5.37771 4.83493 6.29307 2.45651C7.04339 0.507354 9.24402 0.437144 9.24402 0.437144C10.1183 0.338828 10.9013 0.602828 11.5393 1.17283C12.3922 1.93483 12.5583 2.95335 12.4156 4.03999C12.2852 5.03188 11.9341 5.90062 11.7511 6.88335C11.5387 8.0243 12.1484 9.17399 13.3081 9.21872C14.8335 9.27767 15.2909 8.10525 15.4775 7.36209C15.7508 6.27472 16.1094 5.26525 17.1185 4.62946C18.5669 3.71693 20.5787 3.91693 21.512 5.67072C22.2503 7.05841 22.0133 8.96872 20.8808 10.0119C20.3727 10.4798 19.7617 10.6447 19.1009 10.6494C18.1532 10.6561 17.2059 10.6328 16.3262 11.0763C15.7274 11.3781 15.4664 11.8699 15.4665 12.529C15.4665 13.1715 15.801 13.591 16.3429 13.8641C17.3635 14.3785 18.4901 14.4837 19.5927 14.6767C21.1915 14.9567 22.5973 15.5199 23.4998 17.0036C23.5079 17.0166 23.5158 17.0298 23.5235 17.043C24.56 18.7997 23.476 21.329 21.4392 21.4361Z" fill="#0AC855"/>
</g>
<defs>
<clipPath id="clip0_1029_259">
<rect width="24" height="24" fill="white"/>
</clipPath>
</defs>
</svg>
