<svg width="24" height="24" viewBox="0 0 24 24" fill="none" xmlns="http://www.w3.org/2000/svg">
<path d="M12 24C5.385 24 0 18.615 0 12C0 5.385 5.385 0 12 0C18.615 0 24 5.385 24 12C24 18.615 18.615 24 12 24ZM12 1.211C6.05 1.211 1.211 6.05 1.211 12C1.211 17.95 6.05 22.79 12 22.79C17.95 22.79 22.79 17.95 22.79 12C22.79 6.05 17.95 1.211 12 1.211ZM4.89 18.531C5.79317 19.5162 6.89208 20.302 8.1164 20.838C9.34072 21.3741 10.6635 21.6486 12 21.644C13.3899 21.6464 14.7637 21.3475 16.027 20.768L9.33 14.088L4.89 18.531ZM19.178 18.464C20.7773 16.6901 21.6624 14.3864 21.662 11.998C21.662 8.113 19.375 4.783 16.094 3.238L10.005 9.314L19.169 18.464H19.178ZM9.301 10.035L4.227 15.09L3.548 14.41L8.885 9.074L15.115 2.849C14.1112 2.51138 13.0591 2.33946 12 2.34C6.663 2.337 2.337 6.663 2.337 12C2.337 14.172 3.05 16.178 4.276 17.801L9.332 12.746L9.691 13.075L16.936 20.32C17.0825 20.242 17.2229 20.1531 17.356 20.054L9.33 12.05L4.476 16.905L3.797 16.226L9.332 10.691L9.691 11.022L18.151 19.459C18.286 19.359 18.406 19.244 18.526 19.143L9.39 10.027L9.307 10.042L9.301 10.035ZM12.348 11.063L11.67 10.387L16.458 5.597L17.137 6.286L12.348 11.071V11.063ZM16.89 4.485L11.37 10.005L10.69 9.326L16.211 3.806L16.89 4.49V4.485Z" fill="#ED1C24"/>
</svg>
