<svg width="23" height="4" viewBox="0 0 23 4" fill="none" xmlns="http://www.w3.org/2000/svg">
<path d="M1.47211 3.30645C1.01082 3.30645 0.650145 3.17797 0.390087 2.92101C0.130029 2.66405 0 2.29718 0 1.82041V0H0.752311V1.79254C0.752311 2.10214 0.815777 2.32504 0.94271 2.46126C1.06964 2.59748 1.24766 2.66559 1.47676 2.66559C1.70586 2.66559 1.88387 2.59748 2.01081 2.46126C2.13774 2.32504 2.2012 2.10214 2.2012 1.79254V0H2.94423V1.82041C2.94423 2.29718 2.8142 2.66405 2.55414 2.92101C2.29408 3.17797 1.93341 3.30645 1.47211 3.30645Z" fill="white"/>
<path d="M3.68765 3.25072V0H4.43996V2.63773H6.06997V3.25072H3.68765Z" fill="white"/>
<path d="M6.85983 3.25072V0.612994H5.8196V0H8.65237V0.612994H7.61214V3.25072H6.85983Z" fill="white"/>
<path d="M18.6745 0H18.8324V3.25072H18.6745V0ZM16.3944 3.25072H16.2365V0H16.3944V3.25072ZM18.7024 1.6718H16.3665V1.52784H18.7024V1.6718Z" fill="white"/>
<path d="M20.0233 3.25072V0H21.2771C21.6239 0 21.9257 0.0712064 22.1827 0.213619C22.4396 0.352936 22.6393 0.544883 22.7817 0.789462C22.9272 1.03094 23 1.30958 23 1.62536C23 1.94115 22.9272 2.22133 22.7817 2.46591C22.6393 2.70739 22.4396 2.89934 22.1827 3.04175C21.9257 3.18107 21.6239 3.25072 21.2771 3.25072H20.0233ZM20.1812 3.10676H21.2678C21.5867 3.10676 21.8638 3.0433 22.0991 2.91636C22.3375 2.78943 22.5201 2.61451 22.6471 2.3916C22.7771 2.1687 22.8421 1.91328 22.8421 1.62536C22.8421 1.33744 22.7771 1.08203 22.6471 0.85912C22.5201 0.636213 22.3375 0.461293 22.0991 0.33436C21.8638 0.207427 21.5867 0.143961 21.2678 0.143961H20.1812V3.10676Z" fill="white"/>
<path fill-rule="evenodd" clip-rule="evenodd" d="M9.05715 3.25072V0H10.4642C10.7553 0 11.006 0.0479869 11.2166 0.143961C11.4271 0.236839 11.5896 0.371511 11.7042 0.547979C11.8187 0.724447 11.876 0.93497 11.876 1.17955C11.876 1.42103 11.8187 1.63001 11.7042 1.80647C11.5896 1.97985 11.4271 2.11297 11.2166 2.20585L11.9364 3.25072H11.1237L10.4996 2.34493L10.4642 2.34517H9.80946V3.25072H9.05715ZM10.9426 1.5975C10.828 1.69657 10.6546 1.7461 10.4225 1.7461H9.80946V0.612994H10.4225C10.6546 0.612994 10.828 0.662529 10.9426 0.761598C11.0571 0.860668 11.1144 0.999985 11.1144 1.17955C11.1144 1.35602 11.0571 1.49533 10.9426 1.5975Z" fill="white"/>
<path fill-rule="evenodd" clip-rule="evenodd" d="M12.0448 3.25072L13.4937 0H14.2367L15.6903 3.25072H14.9008L14.6122 2.55414H13.1054L12.8157 3.25072H12.0448ZM13.338 1.99478L13.8603 0.738841L14.3756 1.98294L13.338 1.99478Z" fill="white"/>
</svg>
