<svg width="512" height="512" viewBox="0 0 512 512" fill="none" xmlns="http://www.w3.org/2000/svg">
<rect width="512" height="512" rx="40" fill="url(#paint0_linear_33_14)"/>
<path d="M328.828 242.026C331.311 243.448 333.374 245.501 334.809 247.977C336.244 250.452 337 253.263 337 256.125C337 258.987 336.244 261.798 334.809 264.273C333.374 266.749 331.311 268.802 328.828 270.224L199.97 345.012C189.439 351.13 175 344.141 175 330.913V181.337C175 168.109 189.439 161.121 199.97 167.238L328.828 242.026Z" fill="url(#paint1_angular_33_14)"/>
<path d="M345.191 241.935C342.702 237.643 339.127 234.082 334.825 231.611C334.814 231.604 334.802 231.598 334.791 231.591L205.996 156.861C205.995 156.86 205.994 156.859 205.993 156.858C188.333 146.605 163 157.87 163 181.332V330.867C163 354.331 188.336 365.596 205.996 355.339L334.791 280.609C334.802 280.602 334.814 280.595 334.825 280.589C339.127 278.118 342.702 274.557 345.191 270.265C347.686 265.961 349 261.075 349 256.1C349 251.125 347.686 246.239 345.191 241.935Z" stroke="white" stroke-width="24"/>
<defs>
<linearGradient id="paint0_linear_33_14" x1="256" y1="0" x2="256" y2="512" gradientUnits="userSpaceOnUse">
<stop stop-color="#784289"/>
<stop offset="1" stop-color="#004760"/>
</linearGradient>
<radialGradient id="paint1_angular_33_14" cx="0" cy="0" r="1" gradientUnits="userSpaceOnUse" gradientTransform="translate(256 256.125) rotate(-179.912) scale(81.0001 90.8751)">
<stop stop-color="#00A4DC"/>
<stop offset="0.0001" stop-color="#AA5CC3"/>
</radialGradient>
</defs>
</svg>
