<svg width="1168" height="1324" viewBox="0 0 1168 1324" fill="none" xmlns="http://www.w3.org/2000/svg">
<g filter="url(#filter0_d_31_4)">
<path d="M268.523 614.23C230.295 614.23 194.759 605.615 161.915 588.386C129.071 570.618 102.15 546.388 81.1513 515.698C60.1527 485.008 47.769 451.087 44 413.936H73.8826C77.6515 445.703 88.6892 474.778 106.996 501.161C125.302 527.005 148.454 547.465 176.452 562.541C204.989 577.079 235.679 584.347 268.523 584.347C304.598 584.347 337.711 575.463 367.862 557.695C398.014 539.927 421.974 515.429 439.742 484.2C457.51 452.972 466.394 417.974 466.394 379.208V69.8826H214.411V40H495.469V379.208C495.469 423.358 485.239 463.471 464.779 499.546C444.857 535.082 417.398 563.08 382.4 583.54C347.941 604 309.982 614.23 268.523 614.23Z" fill="white"/>
<path d="M702.413 602.115V40H732.296V572.233H1124V602.115H702.413Z" fill="white"/>
<path d="M73.8826 1275.15H44V713.031H270.138C307.828 713.031 342.556 721.107 374.324 737.26C406.629 753.413 432.204 776.296 451.049 805.909C469.894 835.522 479.316 869.712 479.316 908.479C479.316 945.63 469.625 979.82 450.241 1011.05C431.397 1042.28 405.552 1066.24 372.708 1082.93C344.172 1097.47 309.982 1104.73 270.138 1104.73H73.8826V1275.15ZM73.8826 1074.85H270.138C304.598 1074.85 332.865 1069.47 354.94 1058.7C383.477 1045.24 406.36 1025.05 423.589 998.127C440.819 971.206 449.434 941.323 449.434 908.479C449.434 876.174 440.819 846.56 423.589 819.639C406.36 792.718 383.208 772.527 354.133 759.066C332.057 748.298 304.059 742.913 270.138 742.913H73.8826V1074.85Z" fill="white"/>
<path d="M895.439 713.031H676.569L965.703 1075.66C1005.01 1064.89 1037.58 1043.09 1063.43 1010.24C1089.27 976.859 1102.19 939.169 1102.19 897.172C1102.19 863.251 1094.12 832.292 1077.96 804.294C1061.81 776.296 1039.2 754.22 1010.12 738.068C980.51 721.376 942.282 713.031 895.439 713.031Z" fill="url(#paint0_linear_31_4)"/>
<path d="M676.569 1275.15H1108.65L965.703 1075.66L676.569 1082.93V1275.15Z" fill="url(#paint1_linear_31_4)"/>
</g>
<defs>
<filter id="filter0_d_31_4" x="0" y="0" width="1168" height="1323.15" filterUnits="userSpaceOnUse" color-interpolation-filters="sRGB">
<feFlood flood-opacity="0" result="BackgroundImageFix"/>
<feColorMatrix in="SourceAlpha" type="matrix" values="0 0 0 0 0 0 0 0 0 0 0 0 0 0 0 0 0 0 127 0" result="hardAlpha"/>
<feOffset dy="4"/>
<feGaussianBlur stdDeviation="22"/>
<feComposite in2="hardAlpha" operator="out"/>
<feColorMatrix type="matrix" values="0 0 0 0 0 0 0 0 0 0 0 0 0 0 0 0 0 0 0.26 0"/>
<feBlend mode="normal" in2="BackgroundImageFix" result="effect1_dropShadow_31_4"/>
<feBlend mode="normal" in="SourceGraphic" in2="effect1_dropShadow_31_4" result="shape"/>
</filter>
<linearGradient id="paint0_linear_31_4" x1="1074" y1="798" x2="674" y2="1275" gradientUnits="userSpaceOnUse">
<stop stop-color="#AA5CC3"/>
<stop offset="1" stop-color="#00A4DC"/>
</linearGradient>
<linearGradient id="paint1_linear_31_4" x1="1074" y1="798" x2="674" y2="1275" gradientUnits="userSpaceOnUse">
<stop stop-color="#AA5CC3"/>
<stop offset="1" stop-color="#00A4DC"/>
</linearGradient>
</defs>
</svg>
