<svg width="1536" height="140" viewBox="0 0 1536 140" fill="none" xmlns="http://www.w3.org/2000/svg">
<path d="M53.5075 139.735C44.3971 139.735 35.9283 137.682 28.101 133.576C20.2738 129.342 13.858 123.568 8.85375 116.254C3.84946 108.94 0.898207 100.856 0 92.0021H7.1215C8.0197 99.5727 10.6502 106.502 15.0129 112.789C19.3756 118.948 24.8932 123.824 31.5656 127.417C38.3663 130.882 45.6802 132.614 53.5075 132.614C62.1046 132.614 69.996 130.497 77.1816 126.262C84.3673 122.028 90.0773 116.19 94.3117 108.747C98.5461 101.305 100.663 92.9644 100.663 83.7257V10.0086H40.6118V2.88709H107.592V83.7257C107.592 94.2476 105.154 103.807 100.278 112.404C95.5307 120.873 88.9866 127.545 80.6461 132.421C72.434 137.297 63.3877 139.735 53.5075 139.735Z" fill="white"/>
<path d="M152.099 2.88709H246.41V10.0086H159.22V64.286H235.055V71.4075H159.22V129.727H246.41V136.848H152.099V2.88709Z" fill="white"/>
<path d="M299.386 136.848V2.88709H306.507V129.727H399.856V136.848H299.386Z" fill="white"/>
<path d="M441.861 136.848V2.88709H448.982V129.727H542.332V136.848H441.861Z" fill="white"/>
<path d="M578.369 2.88709L625.91 74.487L673.066 2.88709H681.535L629.374 81.9935V136.848H622.253V81.9935L569.9 2.88709H578.369Z" fill="white"/>
<path d="M730.853 136.848H723.731V2.88709H777.624C786.606 2.88709 794.882 4.81182 802.453 8.66128C810.152 12.5107 816.247 17.9641 820.738 25.0215C825.229 32.0788 827.474 40.2268 827.474 49.4655C827.474 58.3193 825.164 66.4673 820.545 73.9096C816.054 81.3519 809.895 87.0619 802.068 91.0397C795.267 94.5042 787.119 96.2365 777.624 96.2365H730.853V136.848ZM730.853 89.115H777.624C785.836 89.115 792.572 87.8318 797.833 85.2655C804.634 82.0576 810.087 77.2458 814.193 70.83C818.3 64.4143 820.353 57.2928 820.353 49.4655C820.353 41.7666 818.3 34.7093 814.193 28.2935C810.087 21.8778 804.57 17.0659 797.641 13.858C792.38 11.2917 785.708 10.0086 777.624 10.0086H730.853V89.115Z" fill="white"/>
<path d="M869.286 136.848V2.88709H876.407V129.727H969.757V136.848H869.286Z" fill="white"/>
<path d="M1148.27 2.88709L1195.81 74.487L1242.97 2.88709H1251.43L1199.27 81.9935V136.848H1192.15V81.9935L1139.8 2.88709H1148.27Z" fill="white"/>
<path d="M1291.9 2.88709H1386.21V10.0086H1299.02V64.286H1374.86V71.4075H1299.02V129.727H1386.21V136.848H1291.9V2.88709Z" fill="white"/>
<path d="M1116.27 136.848H990.011L1053.14 0L1116.27 136.848Z" fill="url(#paint0_linear_22_4)"/>
<path d="M1485.19 2.88709H1433.03L1500.5 90.5C1509.87 87.9337 1519.06 81.5444 1525.22 73.7171C1531.38 65.7616 1534.46 56.7795 1534.46 46.7709C1534.46 38.687 1532.54 31.3089 1528.69 24.6365C1524.84 17.9641 1519.45 12.7032 1512.52 8.85375C1505.46 4.87598 1496.35 2.88709 1485.19 2.88709Z" fill="url(#paint1_linear_22_4)"/>
<path d="M1433.03 136.848H1536L1500.5 90.5H1433.03V136.848Z" fill="url(#paint2_linear_22_4)"/>
<defs>
<linearGradient id="paint0_linear_22_4" x1="1092.5" y1="84.5001" x2="989.5" y2="136.5" gradientUnits="userSpaceOnUse">
<stop stop-color="#AA5CC3"/>
<stop offset="1" stop-color="#00A4DC"/>
</linearGradient>
<linearGradient id="paint1_linear_22_4" x1="1520.5" y1="21.5" x2="1433" y2="137" gradientUnits="userSpaceOnUse">
<stop stop-color="#AA5CC3"/>
<stop offset="1" stop-color="#00A4DC"/>
</linearGradient>
<linearGradient id="paint2_linear_22_4" x1="1520.5" y1="21.5" x2="1433" y2="137" gradientUnits="userSpaceOnUse">
<stop stop-color="#AA5CC3"/>
<stop offset="1" stop-color="#00A4DC"/>
</linearGradient>
</defs>
</svg>
