<svg width="4087" height="373" viewBox="0 0 4087 373" fill="none" xmlns="http://www.w3.org/2000/svg">
<path d="M143.296 372.68C119.061 372.68 96.5333 367.219 75.712 356.296C54.8907 345.032 37.824 329.672 24.512 310.216C11.2 290.76 3.34934 269.256 0.960003 245.704H19.904C22.2933 265.843 29.2907 284.275 40.896 301C52.5013 317.384 67.1787 330.355 84.928 339.912C103.019 349.128 122.475 353.736 143.296 353.736C166.165 353.736 187.157 348.104 206.272 336.84C225.387 325.576 240.576 310.045 251.84 290.248C263.104 270.451 268.736 248.264 268.736 223.688V27.592H108.992V8.64801H287.168V223.688C287.168 251.677 280.683 277.107 267.712 299.976C255.083 322.504 237.675 340.253 215.488 353.224C193.643 366.195 169.579 372.68 143.296 372.68Z" fill="white"/>
<path d="M405.56 8.64801H656.44V27.592H424.504V171.976H626.232V190.92H424.504V346.056H656.44V365H405.56V8.64801Z" fill="white"/>
<path d="M797.36 365V8.64801H816.304V346.056H1064.62V365H797.36Z" fill="white"/>
<path d="M1176.36 365V8.64801H1195.3V346.056H1443.62V365H1176.36Z" fill="white"/>
<path d="M1539.49 8.64801L1665.95 199.112L1791.39 8.64801H1813.92L1675.17 219.08V365H1656.22V219.08L1516.96 8.64801H1539.49Z" fill="white"/>
<path d="M1945.11 365H1926.17V8.64801H2069.53C2093.42 8.64801 2115.44 13.768 2135.58 24.008C2156.06 34.248 2172.27 48.7547 2184.22 67.528C2196.16 86.3014 2202.14 107.976 2202.14 132.552C2202.14 156.104 2195.99 177.779 2183.7 197.576C2171.76 217.373 2155.37 232.563 2134.55 243.144C2116.46 252.36 2094.79 256.968 2069.53 256.968H1945.11V365ZM1945.11 238.024H2069.53C2091.37 238.024 2109.29 234.611 2123.29 227.784C2141.38 219.251 2155.89 206.451 2166.81 189.384C2177.73 172.317 2183.19 153.373 2183.19 132.552C2183.19 112.072 2177.73 93.2987 2166.81 76.232C2155.89 59.1654 2141.21 46.3653 2122.78 37.832C2108.78 31.0053 2091.03 27.592 2069.53 27.592H1945.11V238.024Z" fill="white"/>
<path d="M2313.36 365V8.64801H2332.3V346.056H2580.62V365H2313.36Z" fill="white"/>
<path d="M2970.38 365H2634.5L2802.44 0.968018L2970.38 365Z" fill="url(#paint0_linear_128_10)"/>
<path d="M3055.49 8.64801L3181.95 199.112L3307.39 8.64801H3329.92L3191.17 219.08V365H3172.22V219.08L3032.96 8.64801H3055.49Z" fill="white"/>
<path d="M3437.56 8.64801H3688.44V27.592H3456.5V171.976H3658.23V190.92H3456.5V346.056H3688.44V365H3437.56V8.64801Z" fill="white"/>
<path d="M3951.73 8.64801H3812.98L3992.44 242.12C4017.36 235.293 4041.84 217.885 4058.22 197.064C4074.61 175.901 4082.8 152.008 4082.8 125.384C4082.8 103.88 4077.68 84.2534 4067.44 66.504C4057.2 48.7547 4042.86 34.76 4024.43 24.52C4005.66 13.9387 3981.42 8.64801 3951.73 8.64801Z" fill="url(#paint1_linear_128_10)"/>
<path d="M3812.98 365H4086.9L3992.44 242.12H3812.98V365Z" fill="url(#paint2_linear_128_10)"/>
<defs>
<linearGradient id="paint0_linear_128_10" x1="2911" y1="237.5" x2="2635.5" y2="364.5" gradientUnits="userSpaceOnUse">
<stop stop-color="#41B883"/>
<stop offset="1" stop-color="#34495E"/>
</linearGradient>
<linearGradient id="paint1_linear_128_10" x1="4059.5" y1="57.4999" x2="3813.5" y2="364.5" gradientUnits="userSpaceOnUse">
<stop stop-color="#41B883"/>
<stop offset="1" stop-color="#34495E"/>
</linearGradient>
<linearGradient id="paint2_linear_128_10" x1="4059.5" y1="57.4999" x2="3813.5" y2="364.5" gradientUnits="userSpaceOnUse">
<stop stop-color="#41B883"/>
<stop offset="1" stop-color="#34495E"/>
</linearGradient>
</defs>
</svg>
