<svg width="512" height="512" viewBox="0 0 512 512" fill="none" xmlns="http://www.w3.org/2000/svg">
<path d="M32 160V144C32 139.757 33.6857 135.687 36.6863 132.686C39.6869 129.686 43.7565 128 48 128C52.2435 128 56.3131 129.686 59.3137 132.686C62.3143 135.687 64 139.757 64 144V160H80C84.2435 160 88.3131 161.686 91.3137 164.686C94.3143 167.687 96 171.757 96 176C96 180.243 94.3143 184.313 91.3137 187.314C88.3131 190.314 84.2435 192 80 192H16C11.7565 192 7.68687 190.314 4.68629 187.314C1.68571 184.313 0 180.243 0 176C0 171.757 1.68571 167.687 4.68629 164.686C7.68687 161.686 11.7565 160 16 160H32ZM32 256V240C32 235.757 33.6857 231.687 36.6863 228.686C39.6869 225.686 43.7565 224 48 224C52.2435 224 56.3131 225.686 59.3137 228.686C62.3143 231.687 64 235.757 64 240V256H80C84.2435 256 88.3131 257.686 91.3137 260.686C94.3143 263.687 96 267.757 96 272C96 276.243 94.3143 280.313 91.3137 283.314C88.3131 286.314 84.2435 288 80 288H16C11.7565 288 7.68687 286.314 4.68629 283.314C1.68571 280.313 0 276.243 0 272C0 267.757 1.68571 263.687 4.68629 260.686C7.68687 257.686 11.7565 256 16 256H32ZM32 352V336C32 331.757 33.6857 327.687 36.6863 324.686C39.6869 321.686 43.7565 320 48 320C52.2435 320 56.3131 321.686 59.3137 324.686C62.3143 327.687 64 331.757 64 336V352H80C84.2435 352 88.3131 353.686 91.3137 356.686C94.3143 359.687 96 363.757 96 368C96 372.243 94.3143 376.313 91.3137 379.314C88.3131 382.314 84.2435 384 80 384H16C11.7565 384 7.68687 382.314 4.68629 379.314C1.68571 376.313 0 372.243 0 368C0 363.757 1.68571 359.687 4.68629 356.686C7.68687 353.686 11.7565 352 16 352H32Z" fill="white"/>
<path fill-rule="evenodd" clip-rule="evenodd" d="M192 0H96C79.0261 0 62.7475 6.74284 50.7452 18.7452C38.7428 30.7475 32 47.0261 32 64V96H64V64C64 55.5131 67.3714 47.3737 73.3726 41.3726C79.3737 35.3714 87.5131 32 96 32H192V0ZM384 32H416C424.487 32 432.626 35.3714 438.627 41.3726C444.629 47.3737 448 55.5131 448 64V448C448 456.487 444.629 464.626 438.627 470.627C432.626 476.629 424.487 480 416 480H96C87.5131 480 79.3737 476.629 73.3726 470.627C67.3714 464.626 64 456.487 64 448V416H32V448C32 464.974 38.7428 481.253 50.7452 493.255C62.7475 505.257 79.0261 512 96 512H416C432.974 512 449.253 505.257 461.255 493.255C473.257 481.253 480 464.974 480 448V64C480 47.0261 473.257 30.7475 461.255 18.7452C449.253 6.74284 432.974 0 416 0H384V32Z" fill="white"/>
<path d="M384 256V32V0H192V32V256C191.994 258.834 192.74 261.618 194.163 264.069C195.586 266.519 197.634 268.548 200.097 269.948C202.561 271.347 205.353 272.067 208.186 272.034C211.019 272.001 213.793 271.216 216.224 269.76L288 226.656L359.776 269.728C362.204 271.183 364.975 271.968 367.806 272.002C370.637 272.036 373.426 271.319 375.889 269.923C378.352 268.528 380.4 266.503 381.825 264.057C383.25 261.611 384.001 258.831 384 256Z" fill="url(#paint0_radial_101_14)"/>
<defs>
<radialGradient id="paint0_radial_101_14" cx="0" cy="0" r="1" gradientUnits="userSpaceOnUse" gradientTransform="translate(374 256) rotate(-125.927) scale(316.143 296.384)">
<stop stop-color="#B62FB9"/>
<stop offset="1" stop-color="#00A4DC"/>
</radialGradient>
</defs>
</svg>
