<svg width="512" height="512" viewBox="0 0 512 512" fill="none" xmlns="http://www.w3.org/2000/svg">
<path d="M80 128C75.7565 128 71.6869 126.314 68.6863 123.314C65.6857 120.313 64 116.243 64 112C64 107.757 65.6857 103.687 68.6863 100.686C71.6869 97.6857 75.7565 96 80 96H432C436.243 96 440.313 97.6857 443.314 100.686C446.314 103.687 448 107.757 448 112C448 116.243 446.314 120.313 443.314 123.314C440.313 126.314 436.243 128 432 128H80ZM144 64C139.757 64 135.687 62.3143 132.686 59.3137C129.686 56.3131 128 52.2435 128 48C128 43.7565 129.686 39.6869 132.686 36.6863C135.687 33.6857 139.757 32 144 32H368C372.243 32 376.313 33.6857 379.314 36.6863C382.314 39.6869 384 43.7565 384 48C384 52.2435 382.314 56.3131 379.314 59.3137C376.313 62.3143 372.243 64 368 64H144ZM0 432C0 444.73 5.05713 456.939 14.0589 465.941C23.0606 474.943 35.2696 480 48 480H464C476.73 480 488.939 474.943 497.941 465.941C506.943 456.939 512 444.73 512 432V208C512 195.27 506.943 183.061 497.941 174.059C488.939 165.057 476.73 160 464 160H48C35.2696 160 23.0606 165.057 14.0589 174.059C5.05713 183.061 0 195.27 0 208L0 432ZM200.256 226.016C202.752 224.632 205.572 223.941 208.425 224.014C211.277 224.087 214.059 224.922 216.48 226.432L344.48 306.432C346.781 307.87 348.679 309.87 349.994 312.244C351.31 314.617 352 317.286 352 320C352 322.714 351.31 325.383 349.994 327.756C348.679 330.13 346.781 332.13 344.48 333.568L216.48 413.568C214.058 415.082 211.275 415.92 208.42 415.995C205.565 416.07 202.742 415.379 200.244 413.994C197.746 412.61 195.664 410.582 194.214 408.121C192.764 405.66 192 402.856 192 400V240C192.003 237.144 192.77 234.342 194.222 231.883C195.674 229.424 197.757 227.398 200.256 226.016Z" fill="white"/>
<path d="M200.256 226.016C202.752 224.632 205.572 223.941 208.425 224.014C211.277 224.087 214.059 224.922 216.48 226.432L344.48 306.432C346.781 307.87 348.679 309.87 349.994 312.244C351.31 314.617 352 317.286 352 320C352 322.714 351.31 325.383 349.994 327.756C348.679 330.13 346.781 332.13 344.48 333.568L216.48 413.568C214.058 415.082 211.275 415.92 208.42 415.995C205.565 416.07 202.742 415.379 200.244 413.994C197.746 412.61 195.664 410.582 194.214 408.121C192.764 405.66 192 402.856 192 400V240C192.003 237.144 192.77 234.342 194.222 231.883C195.674 229.424 197.757 227.398 200.256 226.016Z" fill="url(#paint0_linear_101_11)"/>
<defs>
<linearGradient id="paint0_linear_101_11" x1="201" y1="226" x2="293" y2="366" gradientUnits="userSpaceOnUse">
<stop stop-color="#B62FB9"/>
<stop offset="1" stop-color="#00A4DC"/>
</linearGradient>
</defs>
</svg>
