<svg width="512" height="512" viewBox="0 0 512 512" fill="none" xmlns="http://www.w3.org/2000/svg">
<path d="M0 32C0 23.5131 3.37142 15.3737 9.37258 9.37258C15.3737 3.37142 23.5131 0 32 0L480 0C488.487 0 496.626 3.37142 502.627 9.37258C508.629 15.3737 512 23.5131 512 32V480C512 488.487 508.629 496.626 502.627 502.627C496.626 508.629 488.487 512 480 512H32C23.5131 512 15.3737 508.629 9.37258 502.627C3.37142 496.626 0 488.487 0 480V32ZM133 32C130.239 32 128 34.2386 128 37V219C128 221.761 130.239 224 133 224H379C381.761 224 384 221.761 384 219V37C384 34.2386 381.761 32 379 32H133ZM384 293C384 290.239 381.761 288 379 288H133C130.239 288 128 290.239 128 293V475C128 477.761 130.239 480 133 480H379C381.761 480 384 477.761 384 475V293ZM37 32C34.2386 32 32 34.2386 32 37V91C32 93.7614 34.2386 96 37 96H91C93.7614 96 96 93.7614 96 91V37C96 34.2386 93.7614 32 91 32H37ZM96 133C96 130.239 93.7614 128 91 128H37C34.2386 128 32 130.239 32 133V187C32 189.761 34.2386 192 37 192H91C93.7614 192 96 189.761 96 187V133ZM37 224C34.2386 224 32 226.239 32 229V283C32 285.761 34.2386 288 37 288H91C93.7614 288 96 285.761 96 283V229C96 226.239 93.7614 224 91 224H37ZM96 325C96 322.239 93.7614 320 91 320H37C34.2386 320 32 322.239 32 325V379C32 381.761 34.2386 384 37 384H91C93.7614 384 96 381.761 96 379V325ZM37 416C34.2386 416 32 418.239 32 421V475C32 477.761 34.2386 480 37 480H91C93.7614 480 96 477.761 96 475V421C96 418.239 93.7614 416 91 416H37ZM480 37C480 34.2386 477.761 32 475 32H421C418.239 32 416 34.2386 416 37V91C416 93.7614 418.239 96 421 96H475C477.761 96 480 93.7614 480 91V37ZM421 128C418.239 128 416 130.239 416 133V187C416 189.761 418.239 192 421 192H475C477.761 192 480 189.761 480 187V133C480 130.239 477.761 128 475 128H421ZM480 229C480 226.239 477.761 224 475 224H421C418.239 224 416 226.239 416 229V283C416 285.761 418.239 288 421 288H475C477.761 288 480 285.761 480 283V229ZM421 320C418.239 320 416 322.239 416 325V379C416 381.761 418.239 384 421 384H475C477.761 384 480 381.761 480 379V325C480 322.239 477.761 320 475 320H421ZM480 421C480 418.239 477.761 416 475 416H421C418.239 416 416 418.239 416 421V475C416 477.761 418.239 480 421 480H475C477.761 480 480 477.761 480 475V421Z" fill="white"/>
<path d="M133 32C130.239 32 128 34.2386 128 37V219C128 221.761 130.239 224 133 224H379C381.761 224 384 221.761 384 219V37C384 34.2386 381.761 32 379 32H133Z" fill="url(#paint0_linear_101_3)"/>
<path d="M384 293C384 290.239 381.761 288 379 288H133C130.239 288 128 290.239 128 293V475C128 477.761 130.239 480 133 480H379C381.761 480 384 477.761 384 475V293Z" fill="url(#paint1_linear_101_3)"/>
<defs>
<linearGradient id="paint0_linear_101_3" x1="128" y1="32" x2="384" y2="480" gradientUnits="userSpaceOnUse">
<stop stop-color="#B62FB9"/>
<stop offset="1" stop-color="#00A4DC"/>
</linearGradient>
<linearGradient id="paint1_linear_101_3" x1="128" y1="32" x2="384" y2="480" gradientUnits="userSpaceOnUse">
<stop stop-color="#B62FB9"/>
<stop offset="1" stop-color="#00A4DC"/>
</linearGradient>
</defs>
</svg>
