<svg width="512" height="512" viewBox="0 0 512 512" fill="none" xmlns="http://www.w3.org/2000/svg">
<path d="M384 0H128C111.026 0 94.7475 6.74284 82.7452 18.7452C70.7428 30.7475 64 47.0261 64 64V448C64 464.974 70.7428 481.252 82.7452 493.255C94.7475 505.257 111.026 512 128 512H384C400.974 512 417.252 505.257 429.255 493.255C441.257 481.252 448 464.974 448 448V64C448 47.0261 441.257 30.7475 429.255 18.7452C417.252 6.74284 400.974 0 384 0ZM368 131.52V189.12L288 205.12V368C288 383.84 278.368 396.256 266.816 403.936C255.168 411.712 239.968 416 224 416C208 416 192.832 411.712 181.184 403.936C169.664 396.256 160 383.84 160 368C160 352.16 169.632 339.744 181.184 332.064C192.832 324.288 208.032 320 224 320C235.392 320 246.4 322.176 256 326.272V141.12C256.004 133.725 258.57 126.56 263.26 120.843C267.951 115.126 274.476 111.209 281.728 109.76L329.728 100.16C334.369 99.2324 339.157 99.3457 343.749 100.492C348.341 101.638 352.621 103.788 356.282 106.787C359.942 109.787 362.892 113.561 364.918 117.838C366.945 122.115 367.997 126.787 368 131.52Z" fill="white"/>
<path d="M368 131.52V189.12L288 205.12V368C288 383.84 278.368 396.256 266.816 403.936C255.168 411.712 239.968 416 224 416C208 416 192.832 411.712 181.184 403.936C169.664 396.256 160 383.84 160 368C160 352.16 169.632 339.744 181.184 332.064C192.832 324.288 208.032 320 224 320C235.392 320 246.4 322.176 256 326.272V141.12C256.004 133.725 258.57 126.56 263.26 120.843C267.951 115.126 274.476 111.209 281.728 109.76L329.728 100.16C334.369 99.2324 339.157 99.3457 343.749 100.492C348.341 101.638 352.621 103.788 356.282 106.787C359.942 109.787 362.892 113.561 364.918 117.838C366.945 122.115 367.997 126.787 368 131.52Z" fill="url(#paint0_radial_114_8)"/>
<defs>
<radialGradient id="paint0_radial_114_8" cx="0" cy="0" r="1" gradientUnits="userSpaceOnUse" gradientTransform="translate(197.5 374) rotate(-61.0462) scale(193.141 277.759)">
<stop offset="0.0923678" stop-color="#B62FB9"/>
<stop offset="1" stop-color="#00A4DC"/>
</radialGradient>
</defs>
</svg>
