<svg width="512" height="512" viewBox="0 0 512 512" fill="none" xmlns="http://www.w3.org/2000/svg">
<path d="M384 416C384 451.36 348.16 480 304 480C259.84 480 224 451.36 224 416C224 380.64 259.84 352 304 352C348.16 352 384 380.64 384 416Z" fill="white"/>
<path fill-rule="evenodd" clip-rule="evenodd" d="M384 96V416H352V96H384Z" fill="white"/>
<path d="M352 90.24C352.004 82.845 354.57 75.6799 359.26 69.9627C363.951 64.2456 370.476 60.3294 377.728 58.88L473.728 39.68C478.369 38.7524 483.157 38.8657 487.749 40.0117C492.341 41.1578 496.621 43.308 500.282 46.3074C503.942 49.3069 506.892 53.081 508.918 57.3578C510.945 61.6345 511.997 66.3075 512 71.04V128L352 160V90.24Z" fill="white"/>
<path fill-rule="evenodd" clip-rule="evenodd" d="M0 368C0 363.757 1.68571 359.687 4.68629 356.686C7.68687 353.686 11.7565 352 16 352H128C132.243 352 136.313 353.686 139.314 356.686C142.314 359.687 144 363.757 144 368C144 372.243 142.314 376.313 139.314 379.314C136.313 382.314 132.243 384 128 384H16C11.7565 384 7.68687 382.314 4.68629 379.314C1.68571 376.313 0 372.243 0 368ZM0 240C0 235.757 1.68571 231.687 4.68629 228.686C7.68687 225.686 11.7565 224 16 224H256C260.243 224 264.313 225.686 267.314 228.686C270.314 231.687 272 235.757 272 240C272 244.243 270.314 248.313 267.314 251.314C264.313 254.314 260.243 256 256 256H16C11.7565 256 7.68687 254.314 4.68629 251.314C1.68571 248.313 0 244.243 0 240ZM0 112C0 107.757 1.68571 103.687 4.68629 100.686C7.68687 97.6857 11.7565 96 16 96H256C260.243 96 264.313 97.6857 267.314 100.686C270.314 103.687 272 107.757 272 112C272 116.243 270.314 120.313 267.314 123.314C264.313 126.314 260.243 128 256 128H16C11.7565 128 7.68687 126.314 4.68629 123.314C1.68571 120.313 0 116.243 0 112Z" fill="url(#paint0_radial_114_10)"/>
<defs>
<radialGradient id="paint0_radial_114_10" cx="0" cy="0" r="1" gradientUnits="userSpaceOnUse" gradientTransform="translate(1.0621e-05 240) scale(365 660.59)">
<stop offset="0.215844" stop-color="#B62FB9"/>
<stop offset="1" stop-color="#00A4DC"/>
</radialGradient>
</defs>
</svg>
