<svg width="48" height="54" viewBox="0 0 48 54" fill="none" xmlns="http://www.w3.org/2000/svg">
<path d="M39.3358 27.865C39.9999 27.4796 39.9999 26.5204 39.3358 26.135L7.50174 7.66241C6.83526 7.27567 6.00036 7.75668 6.00036 8.5274V45.4726C6.00036 46.2433 6.83526 46.7243 7.50174 46.3376L39.3358 27.865ZM45.5787 22.8226C46.3144 23.2439 46.9257 23.8521 47.3509 24.5856C47.7761 25.3192 48 26.1521 48 27C48 27.8479 47.7761 28.6808 47.3509 29.4144C46.9257 30.1479 46.3144 30.7561 45.5787 31.1774L7.39845 53.3369C4.27826 55.1495 0 53.0788 0 49.1595V4.84054C0 0.921218 4.27826 -1.14948 7.39845 0.66313L45.5787 22.8226Z" fill="url(#paint0_linear_8_15)"/>
<path d="M28.6594 27.5457C29.1135 27.3026 29.1135 26.6974 28.6594 26.4543L13.0268 18.0861C12.571 17.8421 12 18.1456 12 18.6318V35.3682C12 35.8544 12.571 36.1579 13.0268 35.9139L28.6594 27.5457Z" fill="url(#paint1_linear_8_15)"/>
<defs>
<linearGradient id="paint0_linear_8_15" x1="0" y1="0" x2="48" y2="54" gradientUnits="userSpaceOnUse">
<stop stop-color="#AA5CC3"/>
<stop offset="1" stop-color="#00A4DC"/>
</linearGradient>
<linearGradient id="paint1_linear_8_15" x1="0" y1="0" x2="48" y2="54" gradientUnits="userSpaceOnUse">
<stop stop-color="#AA5CC3"/>
<stop offset="1" stop-color="#00A4DC"/>
</linearGradient>
</defs>
</svg>
