<svg width="1536" height="140" viewBox="0 0 1536 140" fill="none" xmlns="http://www.w3.org/2000/svg">
<path d="M53.5075 139.735C44.3971 139.735 35.9283 137.682 28.1011 133.576C20.2739 129.342 13.8581 123.568 8.85381 116.254C3.84952 108.94 0.898268 100.856 6.10352e-05 92.0021H7.12156C8.01977 99.5727 10.6502 106.502 15.0129 112.789C19.3757 118.948 24.8932 123.824 31.5656 127.417C38.3663 130.882 45.6803 132.614 53.5075 132.614C62.1047 132.614 69.996 130.497 77.1817 126.262C84.3674 122.028 90.0774 116.189 94.3118 108.747C98.5462 101.305 100.663 92.9644 100.663 83.7257V10.0086H40.6118V2.88709H107.592V83.7257C107.592 94.2476 105.154 103.807 100.278 112.404C95.5308 120.873 88.9867 127.545 80.6462 132.421C72.434 137.297 63.3878 139.735 53.5075 139.735Z" fill="white"/>
<path d="M152.099 2.88709H246.41V10.0086H159.22V64.286H235.055V71.4075H159.22V129.727H246.41V136.848H152.099V2.88709Z" fill="white"/>
<path d="M299.386 136.848V2.88709H306.507V129.727H399.857V136.848H299.386Z" fill="white"/>
<path d="M441.861 136.848V2.88709H448.982V129.727H542.332V136.848H441.861Z" fill="white"/>
<path d="M578.369 2.88709L625.91 74.487L673.066 2.88709H681.535L629.374 81.9935V136.848H622.253V81.9935L569.9 2.88709H578.369Z" fill="white"/>
<path d="M730.853 136.848H723.731V2.88709H777.624C786.606 2.88709 794.882 4.81182 802.453 8.66128C810.152 12.5107 816.247 17.9641 820.738 25.0215C825.229 32.0788 827.474 40.2268 827.474 49.4655C827.474 58.3193 825.164 66.4673 820.545 73.9096C816.054 81.3519 809.895 87.0619 802.068 91.0397C795.267 94.5042 787.119 96.2365 777.624 96.2365H730.853V136.848ZM730.853 89.115H777.624C785.836 89.115 792.572 87.8318 797.833 85.2655C804.634 82.0576 810.087 77.2458 814.194 70.83C818.3 64.4143 820.353 57.2928 820.353 49.4655C820.353 41.7666 818.3 34.7093 814.194 28.2935C810.087 21.8778 804.57 17.0659 797.641 13.858C792.38 11.2917 785.708 10.0086 777.624 10.0086H730.853V89.115Z" fill="white"/>
<path d="M869.286 136.848V2.88709H876.407V129.727H969.757V136.848H869.286Z" fill="white"/>
<path d="M1116.27 136.848H990.012L1053.14 0L1116.27 136.848ZM1001.18 129.727H1105.11L1053.14 16.9376L1001.18 129.727Z" fill="url(#paint0_linear_4_2)"/>
<path d="M1148.27 2.88709L1195.81 74.487L1242.97 2.88709H1251.43L1199.27 81.9935V136.848H1192.15V81.9935L1139.8 2.88709H1148.27Z" fill="white"/>
<path d="M1291.9 2.88709H1386.21V10.0086H1299.02V64.286H1374.86V71.4075H1299.02V129.727H1386.21V136.848H1291.9V2.88709Z" fill="white"/>
<path d="M1536 136.848H1433.03C1433.03 84.5332 1433.03 55.2022 1433.03 2.88709H1485.19C1496.35 2.88709 1505.46 4.87598 1512.52 8.85375C1519.45 12.7032 1524.84 17.9641 1528.69 24.6365C1532.54 31.3089 1534.46 38.6871 1534.46 46.7709C1534.46 56.7795 1531.38 65.7616 1525.22 73.7171C1519.06 81.5444 1511.3 86.7411 1501.93 89.3074L1536 136.848ZM1445.15 10.0086L1497.51 83.1483C1506.1 81.3519 1513.22 77.0533 1518.87 70.2526C1524.52 63.4519 1527.34 55.6247 1527.34 46.7709C1527.34 39.7136 1525.61 33.2978 1522.14 27.5236C1518.68 21.7494 1513.8 17.3226 1507.51 14.243C1501.87 11.4201 1494.49 10.0086 1485.38 10.0086H1445.15ZM1440.15 14.6279V83.7257H1489.61L1440.15 14.6279ZM1440.15 129.727H1522.53L1494.43 90.6547L1488.46 90.8472H1440.15V129.727Z" fill="url(#paint1_linear_4_2)"/>
<defs>
<linearGradient id="paint0_linear_4_2" x1="1087" y1="72.9999" x2="990" y2="137" gradientUnits="userSpaceOnUse">
<stop stop-color="#00A4DC"/>
<stop offset="1" stop-color="#AA5CC3"/>
</linearGradient>
<linearGradient id="paint1_linear_4_2" x1="1536" y1="6.74843e-05" x2="1433" y2="137" gradientUnits="userSpaceOnUse">
<stop stop-color="#00A4DC"/>
<stop offset="1" stop-color="#AA5CC3"/>
</linearGradient>
</defs>
</svg>
