<svg width="5000" height="455" viewBox="0 0 5000 455" fill="none" xmlns="http://www.w3.org/2000/svg">
<path d="M174.178 454.868C144.522 454.868 116.954 448.185 91.4748 434.818C65.9955 421.035 45.1108 402.238 28.8208 378.43C12.5308 354.621 2.92385 328.307 0 299.486H23.182C26.1058 324.13 34.6685 346.685 48.8701 367.152C63.0716 387.201 81.0324 403.074 102.752 414.769C124.89 426.047 148.699 431.686 174.178 431.686C202.163 431.686 227.852 424.794 251.242 411.01C274.633 397.226 293.22 378.221 307.004 353.995C320.788 329.769 327.68 302.619 327.68 272.545V32.58H132.2V9.39808H350.236V272.545C350.236 306.796 342.299 337.914 326.427 365.899C310.972 393.467 289.67 415.187 262.52 431.059C235.788 446.931 206.34 454.868 174.178 454.868Z" fill="white"/>
<path d="M495.113 9.39808H802.117V32.58H518.295V209.264H765.152V232.446H518.295V422.288H802.117V445.47H495.113V9.39808Z" fill="white"/>
<path d="M974.562 445.47V9.39808H997.744V422.288H1301.62V445.47H974.562Z" fill="white"/>
<path d="M1438.35 445.47V9.39808H1461.53V422.288H1765.4V445.47H1438.35Z" fill="white"/>
<path d="M1882.71 9.39808L2037.47 242.471L2190.97 9.39808H2218.54L2048.74 266.906V445.47H2025.56V266.906L1855.14 9.39808H1882.71Z" fill="white"/>
<path d="M2379.08 445.47H2355.9V9.39808H2531.33C2560.57 9.39808 2587.51 15.6635 2612.15 28.1943C2637.21 40.7251 2657.05 58.477 2671.67 81.4501C2686.29 104.423 2693.6 130.947 2693.6 161.021C2693.6 189.841 2686.08 216.365 2671.05 240.591C2656.43 264.817 2636.38 283.405 2610.9 296.353C2588.76 307.631 2562.24 313.27 2531.33 313.27H2379.08V445.47ZM2379.08 290.088H2531.33C2558.06 290.088 2579.99 285.911 2597.11 277.557C2619.25 267.115 2637 251.451 2650.37 230.566C2663.74 209.682 2670.42 186.5 2670.42 161.021C2670.42 135.959 2663.74 112.986 2650.37 92.1013C2637 71.2167 2619.04 55.5532 2596.49 45.1108C2579.36 36.757 2557.64 32.58 2531.33 32.58H2379.08V290.088Z" fill="white"/>
<path d="M2829.71 445.47V9.39808H2852.89V422.288H3156.76V445.47H2829.71Z" fill="white"/>
<path d="M3633.7 445.47H3222.69L3428.2 0L3633.7 445.47Z" fill="url(#paint0_linear_303_3)"/>
<path d="M3737.86 9.39808L3892.61 242.471L4046.11 9.39808H4073.68L3903.89 266.906V445.47H3880.71V266.906L3710.29 9.39808H3737.86Z" fill="white"/>
<path d="M4205.4 9.39808H4512.41V32.58H4228.58V209.264H4475.44V232.446H4228.58V422.288H4512.41V445.47H4205.4V9.39808Z" fill="white"/>
<path d="M4914.16 23.8085C4939.23 35.5039 4958.86 52.8382 4973.06 75.8113C4987.68 98.7844 4994.99 124.264 4994.99 152.249C4994.99 184.829 4984.96 214.068 4964.91 239.965C4945.28 265.444 4914.58 285.776 4883.67 294.13L4664.8 9.39808H4830.83C4849.21 9.39808 4864.88 10.6512 4877.83 13.1573C4891.19 15.2458 4903.3 18.7962 4914.16 23.8085Z" fill="url(#paint1_linear_303_3)"/>
<path d="M5000 445.47L4883.67 294.13H4664.8V445.47H5000Z" fill="url(#paint2_linear_303_3)"/>
<defs>
<linearGradient id="paint0_linear_303_3" x1="3532.59" y1="229.314" x2="3227.04" y2="442.278" gradientUnits="userSpaceOnUse">
<stop stop-color="#FB2576"/>
<stop offset="1" stop-color="#150050"/>
</linearGradient>
<linearGradient id="paint1_linear_303_3" x1="4953.89" y1="53.3888" x2="4666.85" y2="442.278" gradientUnits="userSpaceOnUse">
<stop stop-color="#FB2576"/>
<stop offset="1" stop-color="#150050"/>
</linearGradient>
<linearGradient id="paint2_linear_303_3" x1="4953.89" y1="53.3888" x2="4666.85" y2="442.278" gradientUnits="userSpaceOnUse">
<stop stop-color="#FB2576"/>
<stop offset="1" stop-color="#150050"/>
</linearGradient>
</defs>
</svg>
