<svg width="1536" height="309" viewBox="0 0 1536 309" fill="none" xmlns="http://www.w3.org/2000/svg">
<path d="M120.66 308.594C100.116 308.594 81.0187 303.965 63.3682 294.705C45.7177 285.157 31.2501 272.136 19.9653 255.643C8.68057 239.15 2.02547 220.921 0 200.955H16.0591C18.0845 218.027 24.0162 233.652 33.8542 247.83C43.6922 261.719 56.1344 272.715 71.1807 280.816C86.5164 288.629 103.009 292.535 120.66 292.535C140.047 292.535 157.842 287.761 174.045 278.212C190.249 268.664 203.125 255.498 212.674 238.716C222.223 221.933 226.997 203.125 226.997 182.292V16.0591H91.58V0H242.622V182.292C242.622 206.019 237.124 227.576 226.129 246.962C215.423 266.06 200.666 281.106 181.858 292.101C163.339 303.097 142.94 308.594 120.66 308.594Z" fill="white"/>
<path d="M362.95 302.084H346.891V0H468.419C488.673 0 507.336 4.34029 524.408 13.0209C541.769 21.7014 555.514 33.9989 565.641 49.9133C575.768 65.8277 580.832 84.2016 580.832 105.035C580.832 125 575.624 143.374 565.207 160.157C555.08 176.939 541.191 189.815 523.54 198.785C508.205 206.598 489.831 210.504 468.419 210.504H362.95V302.084ZM362.95 194.445H468.419C486.937 194.445 502.128 191.551 513.992 185.764C529.327 178.53 541.625 167.68 550.884 153.212C560.143 138.744 564.773 122.685 564.773 105.035C564.773 87.6738 560.143 71.7594 550.884 57.2918C541.625 42.8242 529.183 31.9734 513.558 24.7396C501.694 18.9526 486.648 16.0591 468.419 16.0591H362.95V194.445Z" fill="white"/>
<path d="M675.118 302.084V0H691.177V286.025H901.681V302.084H675.118Z" fill="white"/>
<path d="M982.946 0L1090.15 161.459L1196.49 0H1215.59L1097.96 178.386V302.084H1081.9V178.386L963.849 0H982.946Z" fill="white"/>
<path d="M1536 302.084H1303.79V0H1421.42C1446.59 0 1467.13 4.48496 1483.05 13.4549C1498.67 22.1355 1510.83 33.9989 1519.51 49.0452C1528.19 64.0916 1532.53 80.7293 1532.53 98.9585C1532.53 121.528 1525.58 141.783 1511.69 159.723C1497.81 177.373 1480.3 189.092 1459.18 194.879L1536 302.084ZM1331.14 16.0591L1449.19 180.99C1468.58 176.939 1484.64 167.246 1497.37 151.91C1510.1 136.574 1516.47 118.924 1516.47 98.9585C1516.47 83.0441 1512.56 68.5765 1504.75 55.5557C1496.94 42.5348 1485.94 32.5521 1471.76 25.6077C1459.03 19.2419 1442.39 16.0591 1421.85 16.0591H1331.14ZM1319.85 26.4757V182.292H1431.4L1319.85 26.4757ZM1319.85 286.025H1505.62L1442.25 197.917L1428.79 198.351H1319.85V286.025Z" fill="url(#paint0_linear_6_6)"/>
<defs>
<linearGradient id="paint0_linear_6_6" x1="1536" y1="-0.000138548" x2="1302.5" y2="309" gradientUnits="userSpaceOnUse">
<stop stop-color="#00A4DC"/>
<stop offset="1" stop-color="#AA5CC3"/>
</linearGradient>
</defs>
</svg>
